<?xml version="1.0" encoding="UTF-8" standalone="no"?>
<!DOCTYPE svg PUBLIC "-//W3C//DTD SVG 1.1//EN"
 "http://www.w3.org/Graphics/SVG/1.1/DTD/svg11.dtd">
<!-- Generated by graphviz version 14.1.0 (20251206.1807)
 -->
<!-- Title: G Pages: 1 -->
<svg width="1016pt" height="783pt"
 viewBox="0.00 0.00 1016.00 783.00" xmlns="http://www.w3.org/2000/svg" xmlns:xlink="http://www.w3.org/1999/xlink">
<g id="graph0" class="graph" transform="scale(4.16667 4.16667) rotate(0) translate(4 184)">
<title>G</title>
<!-- push -->
<g id="node1" class="node">
<title>push</title>
<polygon fill="none" stroke="black" points="144.88,-180 90.88,-180 90.88,-144 144.88,-144 144.88,-180"/>
<text xml:space="preserve" text-anchor="middle" x="117.88" y="-159.2" font-family="RocknRoll One" font-size="14.00">push</text>
</g>
<!-- get -->
<g id="node2" class="node">
<title>get</title>
<polygon fill="none" stroke="black" points="235.75,-108 0,-108 0,-72 235.75,-72 235.75,-108"/>
<text xml:space="preserve" text-anchor="middle" x="117.88" y="-87.2" font-family="RocknRoll One" font-size="14.00">削除するユーザーのUserIDを取得</text>
</g>
<!-- push&#45;&gt;get -->
<g id="edge1" class="edge">
<title>push&#45;&gt;get</title>
<path fill="none" stroke="black" d="M117.88,-143.7C117.88,-136.41 117.88,-127.73 117.88,-119.54"/>
<polygon fill="black" stroke="black" points="121.38,-119.62 117.88,-109.62 114.38,-119.62 121.38,-119.62"/>
</g>
<!-- move -->
<g id="node3" class="node">
<title>move</title>
<polygon fill="none" stroke="black" points="221.88,-36 13.88,-36 13.88,0 221.88,0 221.88,-36"/>
<text xml:space="preserve" text-anchor="middle" x="117.88" y="-15.2" font-family="RocknRoll One" font-size="14.00">AdminDeleteAccountに移行</text>
</g>
<!-- get&#45;&gt;move -->
<g id="edge2" class="edge">
<title>get&#45;&gt;move</title>
<path fill="none" stroke="black" d="M117.88,-71.7C117.88,-64.41 117.88,-55.73 117.88,-47.54"/>
<polygon fill="black" stroke="black" points="121.38,-47.62 117.88,-37.62 114.38,-47.62 121.38,-47.62"/>
</g>
</g>
</svg>
