<?xml version="1.0" encoding="UTF-8" standalone="no"?>
<!DOCTYPE svg PUBLIC "-//W3C//DTD SVG 1.1//EN"
 "http://www.w3.org/Graphics/SVG/1.1/DTD/svg11.dtd">
<!-- Generated by graphviz version 14.1.0 (20251206.1807)
 -->
<!-- Title: G Pages: 1 -->
<svg width="2066pt" height="967pt"
 viewBox="0.00 0.00 2066.00 967.00" xmlns="http://www.w3.org/2000/svg" xmlns:xlink="http://www.w3.org/1999/xlink">
<g id="graph0" class="graph" transform="scale(4.16667 4.16667) rotate(0) translate(4 228)">
<title>G</title>
<!-- branch -->
<g id="node1" class="node">
<title>branch</title>
<polygon fill="none" stroke="black" points="164.38,-224 34.38,-195 164.37,-166 294.38,-195 164.38,-224"/>
<text xml:space="preserve" text-anchor="middle" x="164.38" y="-192.2" font-family="RocknRoll One" font-size="14.00">ログアウトを選択</text>
</g>
<!-- no -->
<g id="node2" class="node">
<title>no</title>
<polygon fill="none" stroke="black" points="286.75,-109 0,-109 0,-73 286.75,-73 286.75,-109"/>
<text xml:space="preserve" text-anchor="middle" x="143.38" y="-88.2" font-family="RocknRoll One" font-size="14.00">ログアウト画面へ遷移する前の画面へ遷移</text>
</g>
<!-- branch&#45;&gt;no -->
<g id="edge1" class="edge">
<title>branch&#45;&gt;no</title>
<path fill="none" stroke="black" d="M158.8,-166.93C155.83,-152.5 152.18,-134.75 149.17,-120.15"/>
<polygon fill="black" stroke="black" points="152.68,-119.82 147.23,-110.73 145.82,-121.23 152.68,-119.82"/>
<text xml:space="preserve" text-anchor="middle" x="164.63" y="-134.7" font-family="RocknRoll One" font-size="14.00">No</text>
</g>
<!-- yes -->
<g id="node3" class="node">
<title>yes</title>
<polygon fill="none" stroke="black" points="477.75,-109 305,-109 305,-73 477.75,-73 477.75,-109"/>
<text xml:space="preserve" text-anchor="middle" x="391.38" y="-88.2" font-family="RocknRoll One" font-size="14.00">セッション情報の無効化</text>
</g>
<!-- branch&#45;&gt;yes -->
<g id="edge2" class="edge">
<title>branch&#45;&gt;yes</title>
<path fill="none" stroke="black" d="M206.54,-175.05C244.91,-157.81 301.57,-132.35 342.03,-114.17"/>
<polygon fill="black" stroke="black" points="343.4,-117.39 351.09,-110.1 340.53,-111.01 343.4,-117.39"/>
<text xml:space="preserve" text-anchor="middle" x="323.85" y="-134.7" font-family="RocknRoll One" font-size="14.00">Yes</text>
</g>
<!-- login -->
<g id="node4" class="node">
<title>login</title>
<polygon fill="none" stroke="black" points="487.88,-36 294.88,-36 294.88,0 487.88,0 487.88,-36"/>
<text xml:space="preserve" text-anchor="middle" x="391.38" y="-15.2" font-family="RocknRoll One" font-size="14.00">AdminLoginScreenに移行</text>
</g>
<!-- yes&#45;&gt;login -->
<g id="edge3" class="edge">
<title>yes&#45;&gt;login</title>
<path fill="none" stroke="black" d="M391.38,-72.81C391.38,-65.23 391.38,-56.1 391.38,-47.54"/>
<polygon fill="black" stroke="black" points="394.88,-47.54 391.38,-37.54 387.88,-47.54 394.88,-47.54"/>
</g>
</g>
</svg>
