<?xml version="1.0" encoding="UTF-8" standalone="no"?>
<!DOCTYPE svg PUBLIC "-//W3C//DTD SVG 1.1//EN"
 "http://www.w3.org/Graphics/SVG/1.1/DTD/svg11.dtd">
<!-- Generated by graphviz version 2.43.0 (0)
 -->
<!-- Title: G Pages: 1 -->
<svg width="2048pt" height="850pt"
 viewBox="0.00 0.00 491.50 204.00" xmlns="http://www.w3.org/2000/svg" xmlns:xlink="http://www.w3.org/1999/xlink">
<g id="graph0" class="graph" transform="scale(4.17 4.17) rotate(0) translate(4 200)">
<title>G</title>
<!-- branch -->
<g id="node1" class="node">
<title>branch</title>
<polygon fill="none" stroke="black" points="215.5,-196 95.18,-178 215.5,-160 335.82,-178 215.5,-196"/>
<text text-anchor="middle" x="215.5" y="-174.3" font-family="RocknRoll One" font-size="14.00">ログアウトを選択</text>
</g>
<!-- no -->
<g id="node2" class="node">
<title>no</title>
<polygon fill="none" stroke="black" points="287,-109 0,-109 0,-73 287,-73 287,-109"/>
<text text-anchor="middle" x="143.5" y="-87.3" font-family="RocknRoll One" font-size="14.00">ログアウト画面へ遷移する前の画面へ遷移</text>
</g>
<!-- branch&#45;&gt;no -->
<g id="edge1" class="edge">
<title>branch&#45;&gt;no</title>
<path fill="none" stroke="black" d="M202.63,-161.8C192.05,-149.31 176.85,-131.37 164.51,-116.8"/>
<polygon fill="black" stroke="black" points="167.13,-114.48 157.99,-109.11 161.79,-119 167.13,-114.48"/>
<text text-anchor="middle" x="193" y="-130.8" font-family="RocknRoll One" font-size="14.00">No</text>
</g>
<!-- yes -->
<g id="node3" class="node">
<title>yes</title>
<polygon fill="none" stroke="black" points="478,-109 305,-109 305,-73 478,-73 478,-109"/>
<text text-anchor="middle" x="391.5" y="-87.3" font-family="RocknRoll One" font-size="14.00">セッション情報の無効化</text>
</g>
<!-- branch&#45;&gt;yes -->
<g id="edge2" class="edge">
<title>branch&#45;&gt;yes</title>
<path fill="none" stroke="black" d="M242.61,-163.91C270.35,-150.51 313.9,-129.48 346.75,-113.61"/>
<polygon fill="black" stroke="black" points="348.66,-116.58 356.15,-109.07 345.62,-110.27 348.66,-116.58"/>
<text text-anchor="middle" x="325" y="-130.8" font-family="RocknRoll One" font-size="14.00">Yes</text>
</g>
<!-- login -->
<g id="node4" class="node">
<title>login</title>
<polygon fill="none" stroke="black" points="483.5,-36 299.5,-36 299.5,0 483.5,0 483.5,-36"/>
<text text-anchor="middle" x="391.5" y="-14.3" font-family="RocknRoll One" font-size="14.00">AdminLoginScreenに移行</text>
</g>
<!-- yes&#45;&gt;login -->
<g id="edge3" class="edge">
<title>yes&#45;&gt;login</title>
<path fill="none" stroke="black" d="M391.5,-72.81C391.5,-64.79 391.5,-55.05 391.5,-46.07"/>
<polygon fill="black" stroke="black" points="395,-46.03 391.5,-36.03 388,-46.03 395,-46.03"/>
</g>
</g>
</svg>
