<?xml version="1.0" encoding="UTF-8" standalone="no"?>
<!DOCTYPE svg PUBLIC "-//W3C//DTD SVG 1.1//EN"
 "http://www.w3.org/Graphics/SVG/1.1/DTD/svg11.dtd">
<!-- Generated by graphviz version 2.43.0 (0)
 -->
<!-- Title: G Pages: 1 -->
<svg width="2048pt" height="850pt"
 viewBox="0.00 0.00 491.50 204.00" xmlns="http://www.w3.org/2000/svg" xmlns:xlink="http://www.w3.org/1999/xlink">
<g id="graph0" class="graph" transform="scale(4.17 4.17) rotate(0) translate(4 200)">
<title>G</title>
<!-- branch -->
<g id="node1" class="node">
<title>branch</title>
<polygon fill="none" stroke="black" points="281,-196 150,-196 150,-160 281,-160 281,-196"/>
<text text-anchor="middle" x="215.5" y="-174.3" font-family="RocknRoll One" font-size="14.00">ログアウトを選択</text>
</g>
<!-- no -->
<g id="node2" class="node">
<title>no</title>
<polygon fill="none" stroke="black" points="287,-109 0,-109 0,-73 287,-73 287,-109"/>
<text text-anchor="middle" x="143.5" y="-87.3" font-family="RocknRoll One" font-size="14.00">ログアウト画面へ遷移する前の画面へ遷移</text>
</g>
<!-- branch&#45;&gt;no -->
<g id="edge1" class="edge">
<title>branch&#45;&gt;no</title>
<path fill="none" stroke="black" d="M200.93,-159.8C190.49,-147.47 176.26,-130.68 164.58,-116.89"/>
<polygon fill="black" stroke="black" points="167.18,-114.54 158.05,-109.18 161.84,-119.07 167.18,-114.54"/>
<text text-anchor="middle" x="193" y="-130.8" font-family="RocknRoll One" font-size="14.00">No</text>
</g>
<!-- yes -->
<g id="node3" class="node">
<title>yes</title>
<polygon fill="none" stroke="black" points="478,-109 305,-109 305,-73 478,-73 478,-109"/>
<text text-anchor="middle" x="391.5" y="-87.3" font-family="RocknRoll One" font-size="14.00">セッション情報の無効化</text>
</g>
<!-- branch&#45;&gt;yes -->
<g id="edge2" class="edge">
<title>branch&#45;&gt;yes</title>
<path fill="none" stroke="black" d="M251.12,-159.8C278.76,-146.45 317.25,-127.86 346.93,-113.52"/>
<polygon fill="black" stroke="black" points="348.75,-116.53 356.24,-109.03 345.71,-110.23 348.75,-116.53"/>
<text text-anchor="middle" x="325" y="-130.8" font-family="RocknRoll One" font-size="14.00">Yes</text>
</g>
<!-- login -->
<g id="node4" class="node">
<title>login</title>
<polygon fill="none" stroke="black" points="483.5,-36 299.5,-36 299.5,0 483.5,0 483.5,-36"/>
<text text-anchor="middle" x="391.5" y="-14.3" font-family="RocknRoll One" font-size="14.00">AdminLoginScreenに移行</text>
</g>
<!-- yes&#45;&gt;login -->
<g id="edge3" class="edge">
<title>yes&#45;&gt;login</title>
<path fill="none" stroke="black" d="M391.5,-72.81C391.5,-64.79 391.5,-55.05 391.5,-46.07"/>
<polygon fill="black" stroke="black" points="395,-46.03 391.5,-36.03 388,-46.03 395,-46.03"/>
</g>
</g>
</svg>
