<?xml version="1.0" encoding="UTF-8" standalone="no"?>
<!DOCTYPE svg PUBLIC "-//W3C//DTD SVG 1.1//EN"
 "http://www.w3.org/Graphics/SVG/1.1/DTD/svg11.dtd">
<!-- Generated by graphviz version 14.1.0 (20251206.1807)
 -->
<!-- Title: G Pages: 1 -->
<svg width="2066pt" height="875pt"
 viewBox="0.00 0.00 2066.00 875.00" xmlns="http://www.w3.org/2000/svg" xmlns:xlink="http://www.w3.org/1999/xlink">
<g id="graph0" class="graph" transform="scale(4.16667 4.16667) rotate(0) translate(4 206)">
<title>G</title>
<!-- branch -->
<g id="node1" class="node">
<title>branch</title>
<polygon fill="none" stroke="black" points="229.38,-202 99.38,-202 99.38,-166 229.38,-166 229.38,-202"/>
<text xml:space="preserve" text-anchor="middle" x="164.38" y="-181.2" font-family="RocknRoll One" font-size="14.00">ログアウトを選択</text>
</g>
<!-- no -->
<g id="node2" class="node">
<title>no</title>
<polygon fill="none" stroke="black" points="286.75,-109 0,-109 0,-73 286.75,-73 286.75,-109"/>
<text xml:space="preserve" text-anchor="middle" x="143.38" y="-88.2" font-family="RocknRoll One" font-size="14.00">ログアウト画面へ遷移する前の画面へ遷移</text>
</g>
<!-- branch&#45;&gt;no -->
<g id="edge1" class="edge">
<title>branch&#45;&gt;no</title>
<path fill="none" stroke="black" d="M160.43,-165.88C157.48,-153.13 153.39,-135.42 149.96,-120.53"/>
<polygon fill="black" stroke="black" points="153.38,-119.78 147.72,-110.82 146.56,-121.35 153.38,-119.78"/>
<text xml:space="preserve" text-anchor="middle" x="165.88" y="-134.7" font-family="RocknRoll One" font-size="14.00">No</text>
</g>
<!-- yes -->
<g id="node3" class="node">
<title>yes</title>
<polygon fill="none" stroke="black" points="477.75,-109 305,-109 305,-73 477.75,-73 477.75,-109"/>
<text xml:space="preserve" text-anchor="middle" x="391.38" y="-88.2" font-family="RocknRoll One" font-size="14.00">セッション情報の無効化</text>
</g>
<!-- branch&#45;&gt;yes -->
<g id="edge2" class="edge">
<title>branch&#45;&gt;yes</title>
<path fill="none" stroke="black" d="M207.87,-165.56C244.78,-150.77 297.9,-129.47 337.5,-113.6"/>
<polygon fill="black" stroke="black" points="338.64,-116.91 346.62,-109.94 336.03,-110.41 338.64,-116.91"/>
<text xml:space="preserve" text-anchor="middle" x="310.58" y="-134.7" font-family="RocknRoll One" font-size="14.00">Yes</text>
</g>
<!-- login -->
<g id="node4" class="node">
<title>login</title>
<polygon fill="none" stroke="black" points="487.88,-36 294.88,-36 294.88,0 487.88,0 487.88,-36"/>
<text xml:space="preserve" text-anchor="middle" x="391.38" y="-15.2" font-family="RocknRoll One" font-size="14.00">AdminLoginScreenに移行</text>
</g>
<!-- yes&#45;&gt;login -->
<g id="edge3" class="edge">
<title>yes&#45;&gt;login</title>
<path fill="none" stroke="black" d="M391.38,-72.81C391.38,-65.23 391.38,-56.1 391.38,-47.54"/>
<polygon fill="black" stroke="black" points="394.88,-47.54 391.38,-37.54 387.88,-47.54 394.88,-47.54"/>
</g>
</g>
</svg>
