<?xml version="1.0" encoding="UTF-8" standalone="no"?>
<!DOCTYPE svg PUBLIC "-//W3C//DTD SVG 1.1//EN"
 "http://www.w3.org/Graphics/SVG/1.1/DTD/svg11.dtd">
<!-- Generated by graphviz version 14.1.0 (20251206.1807)
 -->
<!-- Title: G Pages: 1 -->
<svg width="1843pt" height="967pt"
 viewBox="0.00 0.00 1843.00 967.00" xmlns="http://www.w3.org/2000/svg" xmlns:xlink="http://www.w3.org/1999/xlink">
<g id="graph0" class="graph" transform="scale(4.16667 4.16667) rotate(0) translate(4 228)">
<title>G</title>
<!-- check -->
<g id="node1" class="node">
<title>check</title>
<polygon fill="none" stroke="black" points="206.5,-224 62.25,-195 206.5,-166 350.75,-195 206.5,-224"/>
<text xml:space="preserve" text-anchor="middle" x="206.5" y="-192.2" font-family="RocknRoll One" font-size="14.00">削除できたかどうか</text>
</g>
<!-- yes -->
<g id="node2" class="node">
<title>yes</title>
<polygon fill="none" stroke="black" points="187,-109 0,-109 0,-73 187,-73 187,-109"/>
<text xml:space="preserve" text-anchor="middle" x="93.5" y="-88.2" font-family="RocknRoll One" font-size="14.00">「削除できました」と表示</text>
</g>
<!-- check&#45;&gt;yes -->
<g id="edge1" class="edge">
<title>check&#45;&gt;yes</title>
<path fill="none" stroke="black" d="M180.86,-170.85C163.06,-154.79 139.38,-133.41 121.16,-116.97"/>
<polygon fill="black" stroke="black" points="123.59,-114.45 113.83,-110.35 118.9,-119.65 123.59,-114.45"/>
<text xml:space="preserve" text-anchor="middle" x="165.76" y="-134.7" font-family="RocknRoll One" font-size="14.00">Yes</text>
</g>
<!-- no -->
<g id="node3" class="node">
<title>no</title>
<polygon fill="none" stroke="black" points="434.38,-109 204.62,-109 204.62,-73 434.38,-73 434.38,-109"/>
<text xml:space="preserve" text-anchor="middle" x="319.5" y="-88.2" font-family="RocknRoll One" font-size="14.00">「削除できませんでした」と表示</text>
</g>
<!-- check&#45;&gt;no -->
<g id="edge2" class="edge">
<title>check&#45;&gt;no</title>
<path fill="none" stroke="black" d="M232.14,-170.85C249.94,-154.79 273.62,-133.41 291.84,-116.97"/>
<polygon fill="black" stroke="black" points="294.1,-119.65 299.17,-110.35 289.41,-114.45 294.1,-119.65"/>
<text xml:space="preserve" text-anchor="middle" x="289.85" y="-134.7" font-family="RocknRoll One" font-size="14.00">No</text>
</g>
<!-- update -->
<g id="node4" class="node">
<title>update</title>
<polygon fill="none" stroke="black" points="291.88,-36 119.12,-36 119.12,0 291.88,0 291.88,-36"/>
<text xml:space="preserve" text-anchor="middle" x="205.5" y="-15.2" font-family="RocknRoll One" font-size="14.00">ユーザー管理画面を更新</text>
</g>
<!-- yes&#45;&gt;update -->
<g id="edge3" class="edge">
<title>yes&#45;&gt;update</title>
<path fill="none" stroke="black" d="M120.9,-72.63C135.27,-63.52 153.08,-52.23 168.65,-42.36"/>
<polygon fill="black" stroke="black" points="170.15,-45.56 176.72,-37.25 166.4,-39.64 170.15,-45.56"/>
</g>
<!-- no&#45;&gt;update -->
<g id="edge4" class="edge">
<title>no&#45;&gt;update</title>
<path fill="none" stroke="black" d="M291.61,-72.63C276.98,-63.52 258.86,-52.23 243.01,-42.36"/>
<polygon fill="black" stroke="black" points="245.12,-39.55 234.78,-37.24 241.42,-45.49 245.12,-39.55"/>
</g>
</g>
</svg>
