<?xml version="1.0" encoding="UTF-8" standalone="no"?>
<!DOCTYPE svg PUBLIC "-//W3C//DTD SVG 1.1//EN"
 "http://www.w3.org/Graphics/SVG/1.1/DTD/svg11.dtd">
<!-- Generated by graphviz version 14.1.0 (20251206.1807)
 -->
<!-- Title: G Pages: 1 -->
<svg width="1648pt" height="1575pt"
 viewBox="0.00 0.00 1648.00 1575.00" xmlns="http://www.w3.org/2000/svg" xmlns:xlink="http://www.w3.org/1999/xlink">
<g id="graph0" class="graph" transform="scale(4.16667 4.16667) rotate(0) translate(4 374)">
<title>G</title>
<!-- auth -->
<g id="node1" class="node">
<title>auth</title>
<polygon fill="none" stroke="black" points="276.75,-370 110.75,-370 110.75,-334 276.75,-334 276.75,-370"/>
<text xml:space="preserve" text-anchor="middle" x="193.75" y="-349.2" font-family="RocknRoll One" font-size="14.00">Google認証にアクセス</text>
</g>
<!-- info -->
<g id="node2" class="node">
<title>info</title>
<polygon fill="none" stroke="black" points="298.12,-297 89.37,-297 89.37,-261 298.12,-261 298.12,-297"/>
<text xml:space="preserve" text-anchor="middle" x="193.75" y="-276.2" font-family="RocknRoll One" font-size="14.00">Googelから利用者情報を取得</text>
</g>
<!-- auth&#45;&gt;info -->
<g id="edge1" class="edge">
<title>auth&#45;&gt;info</title>
<path fill="none" stroke="black" d="M193.75,-333.81C193.75,-326.23 193.75,-317.1 193.75,-308.54"/>
<polygon fill="black" stroke="black" points="197.25,-308.54 193.75,-298.54 190.25,-308.54 197.25,-308.54"/>
</g>
<!-- exist -->
<g id="node3" class="node">
<title>exist</title>
<polygon fill="none" stroke="black" points="193.75,-224 0,-195 193.75,-166 387.5,-195 193.75,-224"/>
<text xml:space="preserve" text-anchor="middle" x="193.75" y="-192.2" font-family="RocknRoll One" font-size="14.00">DBにユーザーが存在するか</text>
</g>
<!-- info&#45;&gt;exist -->
<g id="edge2" class="edge">
<title>info&#45;&gt;exist</title>
<path fill="none" stroke="black" d="M193.75,-260.61C193.75,-253.29 193.75,-244.44 193.75,-235.68"/>
<polygon fill="black" stroke="black" points="197.25,-235.85 193.75,-225.85 190.25,-235.85 197.25,-235.85"/>
</g>
<!-- login -->
<g id="node4" class="node">
<title>login</title>
<polygon fill="none" stroke="black" points="169.5,-109 68,-109 68,-73 169.5,-73 169.5,-109"/>
<text xml:space="preserve" text-anchor="middle" x="118.75" y="-88.2" font-family="RocknRoll One" font-size="14.00">ログイン処理</text>
</g>
<!-- exist&#45;&gt;login -->
<g id="edge3" class="edge">
<title>exist&#45;&gt;login</title>
<path fill="none" stroke="black" d="M175.02,-168.52C163.81,-153.28 149.58,-133.93 138.24,-118.51"/>
<polygon fill="black" stroke="black" points="141.24,-116.68 132.5,-110.7 135.6,-120.83 141.24,-116.68"/>
<text xml:space="preserve" text-anchor="middle" x="170.87" y="-134.7" font-family="RocknRoll One" font-size="14.00">Yes</text>
</g>
<!-- save -->
<g id="node5" class="node">
<title>save</title>
<polygon fill="none" stroke="black" points="352.38,-109 187.12,-109 187.12,-73 352.38,-73 352.38,-109"/>
<text xml:space="preserve" text-anchor="middle" x="269.75" y="-88.2" font-family="RocknRoll One" font-size="14.00">DBに利用者情報を格納</text>
</g>
<!-- exist&#45;&gt;save -->
<g id="edge4" class="edge">
<title>exist&#45;&gt;save</title>
<path fill="none" stroke="black" d="M212.73,-168.52C224.09,-153.28 238.51,-133.93 250,-118.51"/>
<polygon fill="black" stroke="black" points="252.65,-120.8 255.82,-110.69 247.04,-116.62 252.65,-120.8"/>
<text xml:space="preserve" text-anchor="middle" x="253.12" y="-134.7" font-family="RocknRoll One" font-size="14.00">No</text>
</g>
<!-- result -->
<g id="node6" class="node">
<title>result</title>
<polygon fill="none" stroke="black" points="251.62,-36 135.87,-36 135.87,0 251.62,0 251.62,-36"/>
<text xml:space="preserve" text-anchor="middle" x="193.75" y="-15.2" font-family="RocknRoll One" font-size="14.00">ホーム画面表示</text>
</g>
<!-- login&#45;&gt;result -->
<g id="edge5" class="edge">
<title>login&#45;&gt;result</title>
<path fill="none" stroke="black" d="M136.91,-72.81C146.05,-64.16 157.31,-53.5 167.39,-43.96"/>
<polygon fill="black" stroke="black" points="169.55,-46.73 174.4,-37.32 164.73,-41.65 169.55,-46.73"/>
</g>
<!-- save&#45;&gt;result -->
<g id="edge6" class="edge">
<title>save&#45;&gt;result</title>
<path fill="none" stroke="black" d="M251.35,-72.81C242.09,-64.16 230.68,-53.5 220.47,-43.96"/>
<polygon fill="black" stroke="black" points="223.04,-41.58 213.35,-37.31 218.27,-46.69 223.04,-41.58"/>
</g>
</g>
</svg>
