<?xml version="1.0" encoding="UTF-8" standalone="no"?>
<!DOCTYPE svg PUBLIC "-//W3C//DTD SVG 1.1//EN"
 "http://www.w3.org/Graphics/SVG/1.1/DTD/svg11.dtd">
<!-- Generated by graphviz version 14.1.0 (20251206.1807)
 -->
<!-- Title: G Pages: 1 -->
<svg width="1843pt" height="875pt"
 viewBox="0.00 0.00 1843.00 875.00" xmlns="http://www.w3.org/2000/svg" xmlns:xlink="http://www.w3.org/1999/xlink">
<g id="graph0" class="graph" transform="scale(4.16667 4.16667) rotate(0) translate(4 206)">
<title>G</title>
<!-- check -->
<g id="node1" class="node">
<title>check</title>
<polygon fill="none" stroke="black" points="206.5,-202 62.25,-173 206.5,-144 350.75,-173 206.5,-202"/>
<text xml:space="preserve" text-anchor="middle" x="206.5" y="-170.2" font-family="RocknRoll One" font-size="14.00">削除できたかどうか</text>
</g>
<!-- yes -->
<g id="node2" class="node">
<title>yes</title>
<polygon fill="none" stroke="black" points="187,-108 0,-108 0,-72 187,-72 187,-108"/>
<text xml:space="preserve" text-anchor="middle" x="93.5" y="-87.2" font-family="RocknRoll One" font-size="14.00">「削除できました」と表示</text>
</g>
<!-- check&#45;&gt;yes -->
<g id="edge1" class="edge">
<title>check&#45;&gt;yes</title>
<path fill="none" stroke="black" d="M175.62,-149.87C160.58,-139.08 142.46,-126.1 127.07,-115.07"/>
<polygon fill="black" stroke="black" points="129.29,-112.35 119.13,-109.37 125.22,-118.04 129.29,-112.35"/>
</g>
<!-- no -->
<g id="node3" class="node">
<title>no</title>
<polygon fill="none" stroke="black" points="434.38,-108 204.62,-108 204.62,-72 434.38,-72 434.38,-108"/>
<text xml:space="preserve" text-anchor="middle" x="319.5" y="-87.2" font-family="RocknRoll One" font-size="14.00">「削除できませんでした」と表示</text>
</g>
<!-- check&#45;&gt;no -->
<g id="edge2" class="edge">
<title>check&#45;&gt;no</title>
<path fill="none" stroke="black" d="M237.38,-149.87C252.42,-139.08 270.54,-126.1 285.93,-115.07"/>
<polygon fill="black" stroke="black" points="287.78,-118.04 293.87,-109.37 283.71,-112.35 287.78,-118.04"/>
</g>
<!-- update -->
<g id="node4" class="node">
<title>update</title>
<polygon fill="none" stroke="black" points="292.88,-36 120.12,-36 120.12,0 292.88,0 292.88,-36"/>
<text xml:space="preserve" text-anchor="middle" x="206.5" y="-15.2" font-family="RocknRoll One" font-size="14.00">ユーザー管理画面を更新</text>
</g>
<!-- yes&#45;&gt;update -->
<g id="edge3" class="edge">
<title>yes&#45;&gt;update</title>
<path fill="none" stroke="black" d="M121.72,-71.52C135.99,-62.68 153.49,-51.84 168.88,-42.3"/>
<polygon fill="black" stroke="black" points="170.69,-45.3 177.35,-37.06 167.01,-39.35 170.69,-45.3"/>
</g>
<!-- no&#45;&gt;update -->
<g id="edge4" class="edge">
<title>no&#45;&gt;update</title>
<path fill="none" stroke="black" d="M291.28,-71.52C277.01,-62.68 259.51,-51.84 244.12,-42.3"/>
<polygon fill="black" stroke="black" points="245.99,-39.35 235.65,-37.06 242.31,-45.3 245.99,-39.35"/>
</g>
</g>
</svg>
