<?xml version="1.0" encoding="UTF-8" standalone="no"?>
<!DOCTYPE svg PUBLIC "-//W3C//DTD SVG 1.1//EN"
 "http://www.w3.org/Graphics/SVG/1.1/DTD/svg11.dtd">
<!-- Generated by graphviz version 2.43.0 (0)
 -->
<!-- Title: G Pages: 1 -->
<svg width="992pt" height="783pt"
 viewBox="0.00 0.00 238.00 188.00" xmlns="http://www.w3.org/2000/svg" xmlns:xlink="http://www.w3.org/1999/xlink">
<g id="graph0" class="graph" transform="scale(4.17 4.17) rotate(0) translate(4 184)">
<title>G</title>
<!-- webhook -->
<g id="node1" class="node">
<title>webhook</title>
<polygon fill="none" stroke="black" points="218,-180 12,-180 12,-144 218,-144 218,-180"/>
<text text-anchor="middle" x="115" y="-158.3" font-family="RocknRoll One" font-size="14.00">webhookから支払情報を取得</text>
</g>
<!-- db -->
<g id="node2" class="node">
<title>db</title>
<polygon fill="none" stroke="black" points="194.5,-108 35.5,-108 35.5,-72 194.5,-72 194.5,-108"/>
<text text-anchor="middle" x="115" y="-86.3" font-family="RocknRoll One" font-size="14.00">支払いステータス更新</text>
</g>
<!-- webhook&#45;&gt;db -->
<g id="edge1" class="edge">
<title>webhook&#45;&gt;db</title>
<path fill="none" stroke="black" d="M115,-143.7C115,-135.98 115,-126.71 115,-118.11"/>
<polygon fill="black" stroke="black" points="118.5,-118.1 115,-108.1 111.5,-118.1 118.5,-118.1"/>
</g>
<!-- result -->
<g id="node3" class="node">
<title>result</title>
<polygon fill="none" stroke="black" points="230,-36 0,-36 0,0 230,0 230,-36"/>
<text text-anchor="middle" x="115" y="-14.3" font-family="RocknRoll One" font-size="14.00">PayInformationListScreenに移行</text>
</g>
<!-- db&#45;&gt;result -->
<g id="edge2" class="edge">
<title>db&#45;&gt;result</title>
<path fill="none" stroke="black" d="M115,-71.7C115,-63.98 115,-54.71 115,-46.11"/>
<polygon fill="black" stroke="black" points="118.5,-46.1 115,-36.1 111.5,-46.1 118.5,-46.1"/>
</g>
</g>
</svg>
