<?xml version="1.0" encoding="UTF-8" standalone="no"?>
<!DOCTYPE svg PUBLIC "-//W3C//DTD SVG 1.1//EN"
 "http://www.w3.org/Graphics/SVG/1.1/DTD/svg11.dtd">
<!-- Generated by graphviz version 14.1.0 (20251206.1807)
 -->
<!-- Title: G Pages: 1 -->
<svg width="1041pt" height="783pt"
 viewBox="0.00 0.00 1041.00 783.00" xmlns="http://www.w3.org/2000/svg" xmlns:xlink="http://www.w3.org/1999/xlink">
<g id="graph0" class="graph" transform="scale(4.16667 4.16667) rotate(0) translate(4 184)">
<title>G</title>
<!-- webhook -->
<g id="node1" class="node">
<title>webhook</title>
<polygon fill="none" stroke="black" points="224.88,-180 16.88,-180 16.88,-144 224.88,-144 224.88,-180"/>
<text xml:space="preserve" text-anchor="middle" x="120.88" y="-159.2" font-family="RocknRoll One" font-size="14.00">webhookから支払情報を取得</text>
</g>
<!-- db -->
<g id="node2" class="node">
<title>db</title>
<polygon fill="none" stroke="black" points="200.12,-108 41.62,-108 41.62,-72 200.12,-72 200.12,-108"/>
<text xml:space="preserve" text-anchor="middle" x="120.88" y="-87.2" font-family="RocknRoll One" font-size="14.00">支払いステータス更新</text>
</g>
<!-- webhook&#45;&gt;db -->
<g id="edge1" class="edge">
<title>webhook&#45;&gt;db</title>
<path fill="none" stroke="black" d="M120.88,-143.7C120.88,-136.41 120.88,-127.73 120.88,-119.54"/>
<polygon fill="black" stroke="black" points="124.38,-119.62 120.88,-109.62 117.38,-119.62 124.38,-119.62"/>
</g>
<!-- result -->
<g id="node3" class="node">
<title>result</title>
<polygon fill="none" stroke="black" points="241.75,-36 0,-36 0,0 241.75,0 241.75,-36"/>
<text xml:space="preserve" text-anchor="middle" x="120.88" y="-15.2" font-family="RocknRoll One" font-size="14.00">PayInformationListScreenに移行</text>
</g>
<!-- db&#45;&gt;result -->
<g id="edge2" class="edge">
<title>db&#45;&gt;result</title>
<path fill="none" stroke="black" d="M120.88,-71.7C120.88,-64.41 120.88,-55.73 120.88,-47.54"/>
<polygon fill="black" stroke="black" points="124.38,-47.62 120.88,-37.62 117.38,-47.62 124.38,-47.62"/>
</g>
</g>
</svg>
