<?xml version="1.0" encoding="UTF-8" standalone="no"?>
<!DOCTYPE svg PUBLIC "-//W3C//DTD SVG 1.1//EN"
 "http://www.w3.org/Graphics/SVG/1.1/DTD/svg11.dtd">
<!-- Generated by graphviz version 14.1.0 (20251206.1807)
 -->
<!-- Title: G Pages: 1 -->
<svg width="2499pt" height="967pt"
 viewBox="0.00 0.00 2499.00 967.00" xmlns="http://www.w3.org/2000/svg" xmlns:xlink="http://www.w3.org/1999/xlink">
<g id="graph0" class="graph" transform="scale(4.16667 4.16667) rotate(0) translate(4 228)">
<title>G</title>
<!-- check -->
<g id="node1" class="node">
<title>check</title>
<polygon fill="none" stroke="black" points="295.38,-224 151.13,-195 295.37,-166 439.62,-195 295.38,-224"/>
<text xml:space="preserve" text-anchor="middle" x="295.38" y="-192.2" font-family="RocknRoll One" font-size="14.00">申請が承認か却下か</text>
</g>
<!-- yes -->
<g id="node2" class="node">
<title>yes</title>
<polygon fill="none" stroke="black" points="286.75,-109 0,-109 0,-73 286.75,-73 286.75,-109"/>
<text xml:space="preserve" text-anchor="middle" x="143.38" y="-88.2" font-family="RocknRoll One" font-size="14.00">「承認しました」とメッセージを表示する</text>
</g>
<!-- check&#45;&gt;yes -->
<g id="edge1" class="edge">
<title>check&#45;&gt;yes</title>
<path fill="none" stroke="black" d="M262.77,-172.12C238.02,-155.51 204.03,-132.7 178.65,-115.67"/>
<polygon fill="black" stroke="black" points="180.89,-112.96 170.63,-110.29 176.99,-118.77 180.89,-112.96"/>
<text xml:space="preserve" text-anchor="middle" x="238.18" y="-134.7" font-family="RocknRoll One" font-size="14.00">承認</text>
</g>
<!-- no -->
<g id="node3" class="node">
<title>no</title>
<polygon fill="none" stroke="black" points="591.75,-109 305,-109 305,-73 591.75,-73 591.75,-109"/>
<text xml:space="preserve" text-anchor="middle" x="448.38" y="-88.2" font-family="RocknRoll One" font-size="14.00">「却下しました」とメッセージを表示する</text>
</g>
<!-- check&#45;&gt;no -->
<g id="edge2" class="edge">
<title>check&#45;&gt;no</title>
<path fill="none" stroke="black" d="M328.2,-172.12C353.11,-155.51 387.32,-132.7 412.87,-115.67"/>
<polygon fill="black" stroke="black" points="414.57,-118.75 420.94,-110.29 410.68,-112.92 414.57,-118.75"/>
<text xml:space="preserve" text-anchor="middle" x="408.77" y="-134.7" font-family="RocknRoll One" font-size="14.00">却下</text>
</g>
<!-- reflect -->
<g id="node4" class="node">
<title>reflect</title>
<polygon fill="none" stroke="black" points="425.25,-36 165.5,-36 165.5,0 425.25,0 425.25,-36"/>
<text xml:space="preserve" text-anchor="middle" x="295.38" y="-15.2" font-family="RocknRoll One" font-size="14.00">該当の申請IDを申請一覧から除外する</text>
</g>
<!-- yes&#45;&gt;reflect -->
<g id="edge3" class="edge">
<title>yes&#45;&gt;reflect</title>
<path fill="none" stroke="black" d="M180.56,-72.63C200.8,-63.18 226.06,-51.38 247.74,-41.25"/>
<polygon fill="black" stroke="black" points="249.1,-44.48 256.68,-37.08 246.14,-38.14 249.1,-44.48"/>
</g>
<!-- no&#45;&gt;reflect -->
<g id="edge4" class="edge">
<title>no&#45;&gt;reflect</title>
<path fill="none" stroke="black" d="M410.95,-72.63C390.57,-63.18 365.14,-51.38 343.33,-41.25"/>
<polygon fill="black" stroke="black" points="344.86,-38.11 334.32,-37.07 341.92,-44.46 344.86,-38.11"/>
</g>
</g>
</svg>
