<?xml version="1.0" encoding="UTF-8" standalone="no"?>
<!DOCTYPE svg PUBLIC "-//W3C//DTD SVG 1.1//EN"
 "http://www.w3.org/Graphics/SVG/1.1/DTD/svg11.dtd">
<!-- Generated by graphviz version 14.1.0 (20251206.1807)
 -->
<!-- Title: G Pages: 1 -->
<svg width="1906pt" height="1271pt"
 viewBox="0.00 0.00 1906.00 1271.00" xmlns="http://www.w3.org/2000/svg" xmlns:xlink="http://www.w3.org/1999/xlink">
<g id="graph0" class="graph" transform="scale(4.16667 4.16667) rotate(0) translate(4 301)">
<title>G</title>
<!-- do -->
<g id="node1" class="node">
<title>do</title>
<polygon fill="none" stroke="black" points="224.75,-297 37.75,-268 224.75,-239 411.75,-268 224.75,-297"/>
<text xml:space="preserve" text-anchor="middle" x="224.75" y="-265.2" font-family="RocknRoll One" font-size="14.00">通報された投稿を削除した</text>
</g>
<!-- yes -->
<g id="node2" class="node">
<title>yes</title>
<polygon fill="none" stroke="black" points="215.5,-182 0,-182 0,-146 215.5,-146 215.5,-182"/>
<text xml:space="preserve" text-anchor="middle" x="107.75" y="-161.2" font-family="RocknRoll One" font-size="14.00">「投稿を削除しました」と表示</text>
</g>
<!-- do&#45;&gt;yes -->
<g id="edge1" class="edge">
<title>do&#45;&gt;yes</title>
<path fill="none" stroke="black" d="M197.02,-242.83C178.67,-226.83 154.67,-205.91 136.18,-189.79"/>
<polygon fill="black" stroke="black" points="138.57,-187.23 128.73,-183.29 133.97,-192.5 138.57,-187.23"/>
<text xml:space="preserve" text-anchor="middle" x="182.13" y="-207.7" font-family="RocknRoll One" font-size="14.00">Yes</text>
</g>
<!-- no -->
<g id="node3" class="node">
<title>no</title>
<polygon fill="none" stroke="black" points="449.5,-182 234,-182 234,-146 449.5,-146 449.5,-182"/>
<text xml:space="preserve" text-anchor="middle" x="341.75" y="-161.2" font-family="RocknRoll One" font-size="14.00">「通報を処理しました」と表示</text>
</g>
<!-- do&#45;&gt;no -->
<g id="edge2" class="edge">
<title>do&#45;&gt;no</title>
<path fill="none" stroke="black" d="M252.48,-242.83C270.83,-226.83 294.83,-205.91 313.32,-189.79"/>
<polygon fill="black" stroke="black" points="315.53,-192.5 320.77,-183.29 310.93,-187.23 315.53,-192.5"/>
<text xml:space="preserve" text-anchor="middle" x="310.69" y="-207.7" font-family="RocknRoll One" font-size="14.00">No</text>
</g>
<!-- report -->
<g id="node4" class="node">
<title>report</title>
<polygon fill="none" stroke="black" points="331.5,-109 116,-109 116,-73 331.5,-73 331.5,-109"/>
<text xml:space="preserve" text-anchor="middle" x="223.75" y="-88.2" font-family="RocknRoll One" font-size="14.00">対応した通報を処理済みにする</text>
</g>
<!-- yes&#45;&gt;report -->
<g id="edge3" class="edge">
<title>yes&#45;&gt;report</title>
<path fill="none" stroke="black" d="M136.13,-145.63C151.01,-136.52 169.46,-125.23 185.58,-115.36"/>
<polygon fill="black" stroke="black" points="187.27,-118.43 193.97,-110.23 183.62,-112.46 187.27,-118.43"/>
</g>
<!-- no&#45;&gt;report -->
<g id="edge4" class="edge">
<title>no&#45;&gt;report</title>
<path fill="none" stroke="black" d="M312.88,-145.63C297.74,-136.52 278.98,-125.23 262.58,-115.36"/>
<polygon fill="black" stroke="black" points="264.4,-112.37 254.02,-110.22 260.79,-118.37 264.4,-112.37"/>
</g>
<!-- change -->
<g id="node5" class="node">
<title>change</title>
<polygon fill="none" stroke="black" points="424.12,-36 23.38,-36 23.38,0 424.12,0 424.12,-36"/>
<text xml:space="preserve" text-anchor="middle" x="223.75" y="-15.2" font-family="RocknRoll One" font-size="14.00">未対応の通報が上に来るように通報管理リストを並び替える</text>
</g>
<!-- report&#45;&gt;change -->
<g id="edge5" class="edge">
<title>report&#45;&gt;change</title>
<path fill="none" stroke="black" d="M223.75,-72.81C223.75,-65.23 223.75,-56.1 223.75,-47.54"/>
<polygon fill="black" stroke="black" points="227.25,-47.54 223.75,-37.54 220.25,-47.54 227.25,-47.54"/>
</g>
</g>
</svg>
