<?xml version="1.0" encoding="UTF-8" standalone="no"?>
<!DOCTYPE svg PUBLIC "-//W3C//DTD SVG 1.1//EN"
 "http://www.w3.org/Graphics/SVG/1.1/DTD/svg11.dtd">
<!-- Generated by graphviz version 14.1.0 (20251206.1807)
 -->
<!-- Title: G Pages: 1 -->
<svg width="903pt" height="1383pt"
 viewBox="0.00 0.00 903.00 1383.00" xmlns="http://www.w3.org/2000/svg" xmlns:xlink="http://www.w3.org/1999/xlink">
<g id="graph0" class="graph" transform="scale(4.16667 4.16667) rotate(0) translate(4 328)">
<title>G</title>
<!-- access -->
<g id="node1" class="node">
<title>access</title>
<polygon fill="none" stroke="black" points="187.38,-324 21.38,-324 21.38,-288 187.38,-288 187.38,-324"/>
<text xml:space="preserve" text-anchor="middle" x="104.38" y="-303.2" font-family="RocknRoll One" font-size="14.00">Google認証にアクセス</text>
</g>
<!-- get -->
<g id="node2" class="node">
<title>get</title>
<polygon fill="none" stroke="black" points="208.75,-252 0,-252 0,-216 208.75,-216 208.75,-252"/>
<text xml:space="preserve" text-anchor="middle" x="104.38" y="-231.2" font-family="RocknRoll One" font-size="14.00">Googleから利用者情報を取得</text>
</g>
<!-- access&#45;&gt;get -->
<g id="edge1" class="edge">
<title>access&#45;&gt;get</title>
<path fill="none" stroke="black" d="M104.38,-287.7C104.38,-280.41 104.38,-271.73 104.38,-263.54"/>
<polygon fill="black" stroke="black" points="107.88,-263.62 104.38,-253.62 100.88,-263.62 107.88,-263.62"/>
</g>
<!-- getsession -->
<g id="node3" class="node">
<title>getsession</title>
<polygon fill="none" stroke="black" points="177.25,-180 31.5,-180 31.5,-144 177.25,-144 177.25,-180"/>
<text xml:space="preserve" text-anchor="middle" x="104.38" y="-159.2" font-family="RocknRoll One" font-size="14.00">セッションIDを発行</text>
</g>
<!-- get&#45;&gt;getsession -->
<g id="edge2" class="edge">
<title>get&#45;&gt;getsession</title>
<path fill="none" stroke="black" d="M104.38,-215.7C104.38,-208.41 104.38,-199.73 104.38,-191.54"/>
<polygon fill="black" stroke="black" points="107.88,-191.62 104.38,-181.62 100.88,-191.62 107.88,-191.62"/>
</g>
<!-- insession -->
<g id="node4" class="node">
<title>insession</title>
<polygon fill="none" stroke="black" points="187.75,-108 21,-108 21,-72 187.75,-72 187.75,-108"/>
<text xml:space="preserve" text-anchor="middle" x="104.38" y="-87.2" font-family="RocknRoll One" font-size="14.00">セッションIDをDB格納</text>
</g>
<!-- getsession&#45;&gt;insession -->
<g id="edge3" class="edge">
<title>getsession&#45;&gt;insession</title>
<path fill="none" stroke="black" d="M104.38,-143.7C104.38,-136.41 104.38,-127.73 104.38,-119.54"/>
<polygon fill="black" stroke="black" points="107.88,-119.62 104.38,-109.62 100.88,-119.62 107.88,-119.62"/>
</g>
<!-- login -->
<g id="node5" class="node">
<title>login</title>
<polygon fill="none" stroke="black" points="155.12,-36 53.62,-36 53.62,0 155.12,0 155.12,-36"/>
<text xml:space="preserve" text-anchor="middle" x="104.38" y="-15.2" font-family="RocknRoll One" font-size="14.00">ログイン処理</text>
</g>
<!-- insession&#45;&gt;login -->
<g id="edge4" class="edge">
<title>insession&#45;&gt;login</title>
<path fill="none" stroke="black" d="M104.38,-71.7C104.38,-64.41 104.38,-55.73 104.38,-47.54"/>
<polygon fill="black" stroke="black" points="107.88,-47.62 104.38,-37.62 100.88,-47.62 107.88,-47.62"/>
</g>
</g>
</svg>
