<?xml version="1.0" encoding="UTF-8" standalone="no"?>
<!DOCTYPE svg PUBLIC "-//W3C//DTD SVG 1.1//EN"
 "http://www.w3.org/Graphics/SVG/1.1/DTD/svg11.dtd">
<!-- Generated by graphviz version 14.1.0 (20251206.1807)
 -->
<!-- Title: G Pages: 1 -->
<svg width="1768pt" height="1575pt"
 viewBox="0.00 0.00 1768.00 1575.00" xmlns="http://www.w3.org/2000/svg" xmlns:xlink="http://www.w3.org/1999/xlink">
<g id="graph0" class="graph" transform="scale(4.16667 4.16667) rotate(0) translate(4 374)">
<title>G</title>
<!-- auth -->
<g id="node1" class="node">
<title>auth</title>
<polygon fill="none" stroke="black" points="260.88,-370 130.88,-370 130.88,-334 260.88,-334 260.88,-370"/>
<text xml:space="preserve" text-anchor="middle" x="195.88" y="-349.2" font-family="RocknRoll One" font-size="14.00">ログイン状態確認</text>
</g>
<!-- get_user -->
<g id="node2" class="node">
<title>get_user</title>
<polygon fill="none" stroke="black" points="260.88,-297 130.88,-297 130.88,-261 260.88,-261 260.88,-297"/>
<text xml:space="preserve" text-anchor="middle" x="195.88" y="-276.2" font-family="RocknRoll One" font-size="14.00">ユーザー情報取得</text>
</g>
<!-- auth&#45;&gt;get_user -->
<g id="edge1" class="edge">
<title>auth&#45;&gt;get_user</title>
<path fill="none" stroke="black" d="M195.88,-333.81C195.88,-326.23 195.88,-317.1 195.88,-308.54"/>
<polygon fill="black" stroke="black" points="199.38,-308.54 195.88,-298.54 192.38,-308.54 199.38,-308.54"/>
</g>
<!-- check_subscription -->
<g id="node3" class="node">
<title>check_subscription</title>
<polygon fill="none" stroke="black" points="195.88,-224 5.13,-195 195.87,-166 386.62,-195 195.88,-224"/>
<text xml:space="preserve" text-anchor="middle" x="195.88" y="-192.2" font-family="RocknRoll One" font-size="14.00">Subscriptionの有無を確認</text>
</g>
<!-- get_user&#45;&gt;check_subscription -->
<g id="edge2" class="edge">
<title>get_user&#45;&gt;check_subscription</title>
<path fill="none" stroke="black" d="M195.88,-260.61C195.88,-253.29 195.88,-244.44 195.88,-235.68"/>
<polygon fill="black" stroke="black" points="199.38,-235.85 195.88,-225.85 192.38,-235.85 199.38,-235.85"/>
</g>
<!-- create_checkout -->
<g id="node4" class="node">
<title>create_checkout</title>
<polygon fill="none" stroke="black" points="175.75,-109 0,-109 0,-73 175.75,-73 175.75,-109"/>
<text xml:space="preserve" text-anchor="middle" x="87.88" y="-88.2" font-family="RocknRoll One" font-size="14.00">Checkout Session 作成</text>
</g>
<!-- check_subscription&#45;&gt;create_checkout -->
<g id="edge3" class="edge">
<title>check_subscription&#45;&gt;create_checkout</title>
<path fill="none" stroke="black" d="M170.01,-169.57C153.21,-153.71 131.39,-133.09 114.45,-117.1"/>
<polygon fill="black" stroke="black" points="116.87,-114.57 107.2,-110.25 112.07,-119.66 116.87,-114.57"/>
<text xml:space="preserve" text-anchor="middle" x="159.36" y="-134.7" font-family="RocknRoll One" font-size="14.00">はい</text>
</g>
<!-- create_portal -->
<g id="node6" class="node">
<title>create_portal</title>
<polygon fill="none" stroke="black" points="416.38,-109 193.38,-109 193.38,-73 416.38,-73 416.38,-109"/>
<text xml:space="preserve" text-anchor="middle" x="304.88" y="-88.2" font-family="RocknRoll One" font-size="14.00">Customer Portal Session 作成</text>
</g>
<!-- check_subscription&#45;&gt;create_portal -->
<g id="edge5" class="edge">
<title>check_subscription&#45;&gt;create_portal</title>
<path fill="none" stroke="black" d="M221.98,-169.57C239.09,-153.56 261.37,-132.71 278.52,-116.66"/>
<polygon fill="black" stroke="black" points="280.47,-119.63 285.38,-110.25 275.68,-114.52 280.47,-119.63"/>
<text xml:space="preserve" text-anchor="middle" x="287.88" y="-134.7" font-family="RocknRoll One" font-size="14.00">いいえ</text>
</g>
<!-- redirect_checkout -->
<g id="node5" class="node">
<title>redirect_checkout</title>
<polygon fill="none" stroke="black" points="170.88,-36 4.88,-36 4.88,0 170.88,0 170.88,-36"/>
<text xml:space="preserve" text-anchor="middle" x="87.88" y="-15.2" font-family="RocknRoll One" font-size="14.00">Checkout URL を取得</text>
</g>
<!-- create_checkout&#45;&gt;redirect_checkout -->
<g id="edge4" class="edge">
<title>create_checkout&#45;&gt;redirect_checkout</title>
<path fill="none" stroke="black" d="M87.88,-72.81C87.88,-65.23 87.88,-56.1 87.88,-47.54"/>
<polygon fill="black" stroke="black" points="91.38,-47.54 87.88,-37.54 84.38,-47.54 91.38,-47.54"/>
</g>
<!-- redirect_portal -->
<g id="node7" class="node">
<title>redirect_portal</title>
<polygon fill="none" stroke="black" points="375.12,-36 234.62,-36 234.62,0 375.12,0 375.12,-36"/>
<text xml:space="preserve" text-anchor="middle" x="304.88" y="-15.2" font-family="RocknRoll One" font-size="14.00">Portal URL を取得</text>
</g>
<!-- create_portal&#45;&gt;redirect_portal -->
<g id="edge6" class="edge">
<title>create_portal&#45;&gt;redirect_portal</title>
<path fill="none" stroke="black" d="M304.88,-72.81C304.88,-65.23 304.88,-56.1 304.88,-47.54"/>
<polygon fill="black" stroke="black" points="308.38,-47.54 304.88,-37.54 301.38,-47.54 308.38,-47.54"/>
</g>
</g>
</svg>
