<?xml version="1.0" encoding="UTF-8" standalone="no"?>
<!DOCTYPE svg PUBLIC "-//W3C//DTD SVG 1.1//EN"
 "http://www.w3.org/Graphics/SVG/1.1/DTD/svg11.dtd">
<!-- Generated by graphviz version 14.1.0 (20251206.1807)
 -->
<!-- Title: G Pages: 1 -->
<svg width="1106pt" height="1083pt"
 viewBox="0.00 0.00 1106.00 1083.00" xmlns="http://www.w3.org/2000/svg" xmlns:xlink="http://www.w3.org/1999/xlink">
<g id="graph0" class="graph" transform="scale(4.16667 4.16667) rotate(0) translate(4 256)">
<title>G</title>
<!-- db -->
<g id="node1" class="node">
<title>db</title>
<polygon fill="none" stroke="black" points="182.88,-252 74.62,-252 74.62,-216 182.88,-216 182.88,-252"/>
<text xml:space="preserve" text-anchor="middle" x="128.75" y="-231.2" font-family="RocknRoll One" font-size="14.00">DBにアクセス</text>
</g>
<!-- get -->
<g id="node2" class="node">
<title>get</title>
<polygon fill="none" stroke="black" points="250.75,-180 6.75,-180 6.75,-144 250.75,-144 250.75,-180"/>
<text xml:space="preserve" text-anchor="middle" x="128.75" y="-159.2" font-family="RocknRoll One" font-size="14.00">総リアクション数を総閲覧数を取得</text>
</g>
<!-- db&#45;&gt;get -->
<g id="edge1" class="edge">
<title>db&#45;&gt;get</title>
<path fill="none" stroke="black" d="M128.75,-215.7C128.75,-208.41 128.75,-199.73 128.75,-191.54"/>
<polygon fill="black" stroke="black" points="132.25,-191.62 128.75,-181.62 125.25,-191.62 132.25,-191.62"/>
</g>
<!-- comp -->
<g id="node3" class="node">
<title>comp</title>
<polygon fill="none" stroke="black" points="257.5,-108 0,-108 0,-72 257.5,-72 257.5,-108"/>
<text xml:space="preserve" text-anchor="middle" x="128.75" y="-87.2" font-family="RocknRoll One" font-size="14.00">&quot;総リアクション数 / 総閲覧数&quot;を計算</text>
</g>
<!-- get&#45;&gt;comp -->
<g id="edge2" class="edge">
<title>get&#45;&gt;comp</title>
<path fill="none" stroke="black" d="M128.75,-143.7C128.75,-136.41 128.75,-127.73 128.75,-119.54"/>
<polygon fill="black" stroke="black" points="132.25,-119.62 128.75,-109.62 125.25,-119.62 132.25,-119.62"/>
</g>
<!-- view -->
<g id="node4" class="node">
<title>view</title>
<polygon fill="none" stroke="black" points="231.25,-36 26.25,-36 26.25,0 231.25,0 231.25,-36"/>
<text xml:space="preserve" text-anchor="middle" x="128.75" y="-15.2" font-family="RocknRoll One" font-size="14.00">BusinessDashboardScreen</text>
</g>
<!-- comp&#45;&gt;view -->
<g id="edge3" class="edge">
<title>comp&#45;&gt;view</title>
<path fill="none" stroke="black" d="M128.75,-71.7C128.75,-64.41 128.75,-55.73 128.75,-47.54"/>
<polygon fill="black" stroke="black" points="132.25,-47.62 128.75,-37.62 125.25,-47.62 132.25,-47.62"/>
</g>
</g>
</svg>
