<?xml version="1.0" encoding="UTF-8" standalone="no"?>
<!DOCTYPE svg PUBLIC "-//W3C//DTD SVG 1.1//EN"
 "http://www.w3.org/Graphics/SVG/1.1/DTD/svg11.dtd">
<!-- Generated by graphviz version 14.1.0 (20251206.1807)
 -->
<!-- Title: G Pages: 1 -->
<svg width="1829pt" height="967pt"
 viewBox="0.00 0.00 1829.00 967.00" xmlns="http://www.w3.org/2000/svg" xmlns:xlink="http://www.w3.org/1999/xlink">
<g id="graph0" class="graph" transform="scale(4.16667 4.16667) rotate(0) translate(4 228)">
<title>G</title>
<!-- edit -->
<g id="node1" class="node">
<title>edit</title>
<polygon fill="none" stroke="black" points="280.5,-224 150.5,-224 150.5,-188 280.5,-188 280.5,-224"/>
<text xml:space="preserve" text-anchor="middle" x="215.5" y="-203.2" font-family="RocknRoll One" font-size="14.00">編集ボタンを選択</text>
</g>
<!-- input -->
<g id="node2" class="node">
<title>input</title>
<polygon fill="none" stroke="black" points="215.5,-151 0,-122 215.5,-93 431,-122 215.5,-151"/>
<text xml:space="preserve" text-anchor="middle" x="215.5" y="-119.2" font-family="RocknRoll One" font-size="14.00">変更する事業者名の入力の受付</text>
</g>
<!-- edit&#45;&gt;input -->
<g id="edge1" class="edge">
<title>edit&#45;&gt;input</title>
<path fill="none" stroke="black" d="M215.5,-187.61C215.5,-180.29 215.5,-171.44 215.5,-162.68"/>
<polygon fill="black" stroke="black" points="219,-162.85 215.5,-152.85 212,-162.85 219,-162.85"/>
</g>
<!-- not -->
<g id="node3" class="node">
<title>not</title>
<polygon fill="none" stroke="black" points="197.88,-36 25.12,-36 25.12,0 197.88,0 197.88,-36"/>
<text xml:space="preserve" text-anchor="middle" x="111.5" y="-15.2" font-family="RocknRoll One" font-size="14.00">変更前の事業者名に戻す</text>
</g>
<!-- input&#45;&gt;not -->
<g id="edge2" class="edge">
<title>input&#45;&gt;not</title>
<path fill="none" stroke="black" d="M190.06,-96.05C173.98,-80.28 153.27,-59.97 137.15,-44.16"/>
<polygon fill="black" stroke="black" points="139.86,-41.91 130.27,-37.41 134.96,-46.91 139.86,-41.91"/>
<text xml:space="preserve" text-anchor="middle" x="202.24" y="-61.7" font-family="RocknRoll One" font-size="14.00">キャンセル</text>
</g>
<!-- store -->
<g id="node4" class="node">
<title>store</title>
<polygon fill="none" stroke="black" points="425.25,-36 215.75,-36 215.75,0 425.25,0 425.25,-36"/>
<text xml:space="preserve" text-anchor="middle" x="320.5" y="-15.2" font-family="RocknRoll One" font-size="14.00">InputChangeBusinessName</text>
</g>
<!-- input&#45;&gt;store -->
<g id="edge3" class="edge">
<title>input&#45;&gt;store</title>
<path fill="none" stroke="black" d="M241.19,-96.05C257.42,-80.28 278.33,-59.97 294.6,-44.16"/>
<polygon fill="black" stroke="black" points="296.82,-46.88 301.56,-37.4 291.95,-41.86 296.82,-46.88"/>
<text xml:space="preserve" text-anchor="middle" x="297.79" y="-61.7" font-family="RocknRoll One" font-size="14.00">保存</text>
</g>
</g>
</svg>
