<?xml version="1.0" encoding="UTF-8" standalone="no"?>
<!DOCTYPE svg PUBLIC "-//W3C//DTD SVG 1.1//EN"
 "http://www.w3.org/Graphics/SVG/1.1/DTD/svg11.dtd">
<!-- Generated by graphviz version 14.1.0 (20251206.1807)
 -->
<!-- Title: G Pages: 1 -->
<svg width="1659pt" height="967pt"
 viewBox="0.00 0.00 1659.00 967.00" xmlns="http://www.w3.org/2000/svg" xmlns:xlink="http://www.w3.org/1999/xlink">
<g id="graph0" class="graph" transform="scale(4.16667 4.16667) rotate(0) translate(4 228)">
<title>G</title>
<!-- select -->
<g id="node1" class="node">
<title>select</title>
<polygon fill="none" stroke="black" points="232,-224 144.75,-224 144.75,-188 232,-188 232,-224"/>
<text xml:space="preserve" text-anchor="middle" x="188.38" y="-203.2" font-family="RocknRoll One" font-size="14.00">画像を選択</text>
</g>
<!-- pre -->
<g id="node2" class="node">
<title>pre</title>
<polygon fill="none" stroke="black" points="188.38,-151 58.38,-122 188.37,-93 318.38,-122 188.38,-151"/>
<text xml:space="preserve" text-anchor="middle" x="188.38" y="-119.2" font-family="RocknRoll One" font-size="14.00">プレビューを表示</text>
</g>
<!-- select&#45;&gt;pre -->
<g id="edge1" class="edge">
<title>select&#45;&gt;pre</title>
<path fill="none" stroke="black" d="M188.38,-187.61C188.38,-180.29 188.38,-171.44 188.38,-162.68"/>
<polygon fill="black" stroke="black" points="191.88,-162.85 188.38,-152.85 184.88,-162.85 191.88,-162.85"/>
</g>
<!-- no -->
<g id="node3" class="node">
<title>no</title>
<polygon fill="none" stroke="black" points="172.75,-36 0,-36 0,0 172.75,0 172.75,-36"/>
<text xml:space="preserve" text-anchor="middle" x="86.38" y="-15.2" font-family="RocknRoll One" font-size="14.00">変更前のアイコンに戻す</text>
</g>
<!-- pre&#45;&gt;no -->
<g id="edge2" class="edge">
<title>pre&#45;&gt;no</title>
<path fill="none" stroke="black" d="M165.23,-97.85C149.31,-81.94 128.17,-60.8 111.79,-44.42"/>
<polygon fill="black" stroke="black" points="114.32,-42 104.78,-37.4 109.38,-46.95 114.32,-42"/>
<text xml:space="preserve" text-anchor="middle" x="176.06" y="-61.7" font-family="RocknRoll One" font-size="14.00">キャンセル</text>
</g>
<!-- yes -->
<g id="node4" class="node">
<title>yes</title>
<polygon fill="none" stroke="black" points="390.25,-36 190.5,-36 190.5,0 390.25,0 390.25,-36"/>
<text xml:space="preserve" text-anchor="middle" x="290.38" y="-15.2" font-family="RocknRoll One" font-size="14.00">InputChangeBusinessIcon</text>
</g>
<!-- pre&#45;&gt;yes -->
<g id="edge3" class="edge">
<title>pre&#45;&gt;yes</title>
<path fill="none" stroke="black" d="M211.52,-97.85C227.44,-81.94 248.58,-60.8 264.96,-44.42"/>
<polygon fill="black" stroke="black" points="267.37,-46.95 271.97,-37.4 262.43,-42 267.37,-46.95"/>
<text xml:space="preserve" text-anchor="middle" x="304.35" y="-61.7" font-family="RocknRoll One" font-size="14.00">アイコンを保存</text>
</g>
</g>
</svg>
