<?xml version="1.0" encoding="UTF-8" standalone="no"?>
<!DOCTYPE svg PUBLIC "-//W3C//DTD SVG 1.1//EN"
 "http://www.w3.org/Graphics/SVG/1.1/DTD/svg11.dtd">
<!-- Generated by graphviz version 14.1.0 (20251206.1807)
 -->
<!-- Title: G Pages: 1 -->
<svg width="2273pt" height="1879pt"
 viewBox="0.00 0.00 2273.00 1879.00" xmlns="http://www.w3.org/2000/svg" xmlns:xlink="http://www.w3.org/1999/xlink">
<g id="graph0" class="graph" transform="scale(4.16667 4.16667) rotate(0) translate(4 447)">
<title>G</title>
<!-- input -->
<g id="node1" class="node">
<title>input</title>
<polygon fill="none" stroke="black" points="423.25,-443 307.5,-443 307.5,-407 423.25,-407 423.25,-443"/>
<text xml:space="preserve" text-anchor="middle" x="365.38" y="-422.2" font-family="RocknRoll One" font-size="14.00">通報理由を入力</text>
</g>
<!-- serect -->
<g id="node2" class="node">
<title>serect</title>
<polygon fill="none" stroke="black" points="358.5,-370 214.25,-370 214.25,-334 358.5,-334 358.5,-370"/>
<text xml:space="preserve" text-anchor="middle" x="286.38" y="-349.2" font-family="RocknRoll One" font-size="14.00">「通報する」を選択</text>
</g>
<!-- input&#45;&gt;serect -->
<g id="edge1" class="edge">
<title>input&#45;&gt;serect</title>
<path fill="none" stroke="black" d="M346.25,-406.81C336.62,-398.16 324.76,-387.5 314.14,-377.96"/>
<polygon fill="black" stroke="black" points="316.5,-375.37 306.72,-371.29 311.82,-380.57 316.5,-375.37"/>
</g>
<!-- check -->
<g id="node3" class="node">
<title>check</title>
<polygon fill="none" stroke="black" points="200.38,-297 13.38,-268 200.37,-239 387.38,-268 200.38,-297"/>
<text xml:space="preserve" text-anchor="middle" x="200.38" y="-265.2" font-family="RocknRoll One" font-size="14.00">通報理由が入力されている</text>
</g>
<!-- serect&#45;&gt;check -->
<g id="edge2" class="edge">
<title>serect&#45;&gt;check</title>
<path fill="none" stroke="black" d="M268.14,-333.61C258.22,-324.15 245.63,-312.15 234.01,-301.07"/>
<polygon fill="black" stroke="black" points="236.51,-298.62 226.86,-294.25 231.68,-303.69 236.51,-298.62"/>
</g>
<!-- no -->
<g id="node4" class="node">
<title>no</title>
<polygon fill="none" stroke="black" points="537.5,-182 279.25,-182 279.25,-146 537.5,-146 537.5,-182"/>
<text xml:space="preserve" text-anchor="middle" x="408.38" y="-161.2" font-family="RocknRoll One" font-size="14.00">通報理由が入力されていない旨を表示</text>
</g>
<!-- check&#45;&gt;no -->
<g id="edge3" class="edge">
<title>check&#45;&gt;no</title>
<path fill="none" stroke="black" d="M244.49,-245.37C279.33,-228.28 327.77,-204.53 362.95,-187.28"/>
<polygon fill="black" stroke="black" points="364.15,-190.58 371.59,-183.04 361.07,-184.3 364.15,-190.58"/>
<text xml:space="preserve" text-anchor="middle" x="345.28" y="-207.7" font-family="RocknRoll One" font-size="14.00">No</text>
</g>
<!-- db -->
<g id="node5" class="node">
<title>db</title>
<polygon fill="none" stroke="black" points="254.5,-182 146.25,-182 146.25,-146 254.5,-146 254.5,-182"/>
<text xml:space="preserve" text-anchor="middle" x="200.38" y="-161.2" font-family="RocknRoll One" font-size="14.00">DBにアクセス</text>
</g>
<!-- check&#45;&gt;db -->
<g id="edge5" class="edge">
<title>check&#45;&gt;db</title>
<path fill="none" stroke="black" d="M200.38,-238.59C200.38,-224.64 200.38,-207.86 200.38,-193.85"/>
<polygon fill="black" stroke="black" points="203.88,-193.9 200.38,-183.9 196.88,-193.9 203.88,-193.9"/>
<text xml:space="preserve" text-anchor="middle" x="214.62" y="-207.7" font-family="RocknRoll One" font-size="14.00">YES</text>
</g>
<!-- no&#45;&gt;input -->
<g id="edge4" class="edge">
<title>no&#45;&gt;input</title>
<path fill="none" stroke="black" d="M407.63,-182.19C406.35,-207.48 403.18,-256.14 396.38,-297 390.65,-331.36 380.65,-370.18 373.55,-395.75"/>
<polygon fill="black" stroke="black" points="370.28,-394.47 370.93,-405.05 377.01,-396.37 370.28,-394.47"/>
</g>
<!-- store -->
<g id="node6" class="node">
<title>store</title>
<polygon fill="none" stroke="black" points="258.25,-109 142.5,-109 142.5,-73 258.25,-73 258.25,-109"/>
<text xml:space="preserve" text-anchor="middle" x="200.38" y="-88.2" font-family="RocknRoll One" font-size="14.00">通報内容を格納</text>
</g>
<!-- db&#45;&gt;store -->
<g id="edge6" class="edge">
<title>db&#45;&gt;store</title>
<path fill="none" stroke="black" d="M200.38,-145.81C200.38,-138.23 200.38,-129.1 200.38,-120.54"/>
<polygon fill="black" stroke="black" points="203.88,-120.54 200.38,-110.54 196.88,-120.54 203.88,-120.54"/>
</g>
<!-- display -->
<g id="node7" class="node">
<title>display</title>
<polygon fill="none" stroke="black" points="400.75,-36 0,-36 0,0 400.75,0 400.75,-36"/>
<text xml:space="preserve" text-anchor="middle" x="200.38" y="-15.2" font-family="RocknRoll One" font-size="14.00">「通報を受け付けました。運営が確認いたします。」を表示</text>
</g>
<!-- store&#45;&gt;display -->
<g id="edge7" class="edge">
<title>store&#45;&gt;display</title>
<path fill="none" stroke="black" d="M200.38,-72.81C200.38,-65.23 200.38,-56.1 200.38,-47.54"/>
<polygon fill="black" stroke="black" points="203.88,-47.54 200.38,-37.54 196.88,-47.54 203.88,-47.54"/>
</g>
</g>
</svg>
