<?xml version="1.0" encoding="UTF-8" standalone="no"?>
<!DOCTYPE svg PUBLIC "-//W3C//DTD SVG 1.1//EN"
 "http://www.w3.org/Graphics/SVG/1.1/DTD/svg11.dtd">
<!-- Generated by graphviz version 14.1.0 (20251206.1807)
 -->
<!-- Title: G Pages: 1 -->
<svg width="1094pt" height="1083pt"
 viewBox="0.00 0.00 1094.00 1083.00" xmlns="http://www.w3.org/2000/svg" xmlns:xlink="http://www.w3.org/1999/xlink">
<g id="graph0" class="graph" transform="scale(4.16667 4.16667) rotate(0) translate(4 256)">
<title>G</title>
<!-- serect -->
<g id="node1" class="node">
<title>serect</title>
<polygon fill="none" stroke="black" points="213.62,-252 40.88,-252 40.88,-216 213.62,-216 213.62,-252"/>
<text xml:space="preserve" text-anchor="middle" x="127.25" y="-231.2" font-family="RocknRoll One" font-size="14.00">「ブロック解除」を選択</text>
</g>
<!-- db -->
<g id="node2" class="node">
<title>db</title>
<polygon fill="none" stroke="black" points="195.62,-180 58.88,-180 58.88,-144 195.62,-144 195.62,-180"/>
<text xml:space="preserve" text-anchor="middle" x="127.25" y="-159.2" font-family="RocknRoll One" font-size="14.00">DBにアクセスする</text>
</g>
<!-- serect&#45;&gt;db -->
<g id="edge1" class="edge">
<title>serect&#45;&gt;db</title>
<path fill="none" stroke="black" d="M127.25,-215.7C127.25,-208.41 127.25,-199.73 127.25,-191.54"/>
<polygon fill="black" stroke="black" points="130.75,-191.62 127.25,-181.62 123.75,-191.62 130.75,-191.62"/>
</g>
<!-- delete -->
<g id="node3" class="node">
<title>delete</title>
<polygon fill="none" stroke="black" points="221.5,-108 33,-108 33,-72 221.5,-72 221.5,-108"/>
<text xml:space="preserve" text-anchor="middle" x="127.25" y="-87.2" font-family="RocknRoll One" font-size="14.00">選択したユーザーIDを削除</text>
</g>
<!-- db&#45;&gt;delete -->
<g id="edge2" class="edge">
<title>db&#45;&gt;delete</title>
<path fill="none" stroke="black" d="M127.25,-143.7C127.25,-136.41 127.25,-127.73 127.25,-119.54"/>
<polygon fill="black" stroke="black" points="130.75,-119.62 127.25,-109.62 123.75,-119.62 130.75,-119.62"/>
</g>
<!-- view -->
<g id="node4" class="node">
<title>view</title>
<polygon fill="none" stroke="black" points="254.5,-36 0,-36 0,0 254.5,0 254.5,-36"/>
<text xml:space="preserve" text-anchor="middle" x="127.25" y="-15.2" font-family="RocknRoll One" font-size="14.00">BusinessDeleteBlockScreenに移行</text>
</g>
<!-- delete&#45;&gt;view -->
<g id="edge3" class="edge">
<title>delete&#45;&gt;view</title>
<path fill="none" stroke="black" d="M127.25,-71.7C127.25,-64.41 127.25,-55.73 127.25,-47.54"/>
<polygon fill="black" stroke="black" points="130.75,-47.62 127.25,-37.62 123.75,-47.62 130.75,-47.62"/>
</g>
</g>
</svg>
