<?xml version="1.0" encoding="UTF-8" standalone="no"?>
<!DOCTYPE svg PUBLIC "-//W3C//DTD SVG 1.1//EN"
 "http://www.w3.org/Graphics/SVG/1.1/DTD/svg11.dtd">
<!-- Generated by graphviz version 14.1.0 (20251206.1807)
 -->
<!-- Title: G Pages: 1 -->
<svg width="1006pt" height="783pt"
 viewBox="0.00 0.00 1006.00 783.00" xmlns="http://www.w3.org/2000/svg" xmlns:xlink="http://www.w3.org/1999/xlink">
<g id="graph0" class="graph" transform="scale(4.16667 4.16667) rotate(0) translate(4 184)">
<title>G</title>
<!-- db -->
<g id="node1" class="node">
<title>db</title>
<polygon fill="none" stroke="black" points="170.88,-180 62.63,-180 62.63,-144 170.88,-144 170.88,-180"/>
<text xml:space="preserve" text-anchor="middle" x="116.75" y="-159.2" font-family="RocknRoll One" font-size="14.00">DBにアクセス</text>
</g>
<!-- store -->
<g id="node2" class="node">
<title>store</title>
<polygon fill="none" stroke="black" points="188.88,-108 44.63,-108 44.63,-72 188.88,-72 188.88,-108"/>
<text xml:space="preserve" text-anchor="middle" x="116.75" y="-87.2" font-family="RocknRoll One" font-size="14.00">ブロック情報の格納</text>
</g>
<!-- db&#45;&gt;store -->
<g id="edge1" class="edge">
<title>db&#45;&gt;store</title>
<path fill="none" stroke="black" d="M116.75,-143.7C116.75,-136.41 116.75,-127.73 116.75,-119.54"/>
<polygon fill="black" stroke="black" points="120.25,-119.62 116.75,-109.62 113.25,-119.62 120.25,-119.62"/>
</g>
<!-- map -->
<g id="node3" class="node">
<title>map</title>
<polygon fill="none" stroke="black" points="233.5,-36 0,-36 0,0 233.5,0 233.5,-36"/>
<text xml:space="preserve" text-anchor="middle" x="116.75" y="-15.2" font-family="RocknRoll One" font-size="14.00">BusinessMapViewScreenに移行</text>
</g>
<!-- store&#45;&gt;map -->
<g id="edge2" class="edge">
<title>store&#45;&gt;map</title>
<path fill="none" stroke="black" d="M116.75,-71.7C116.75,-64.41 116.75,-55.73 116.75,-47.54"/>
<polygon fill="black" stroke="black" points="120.25,-47.62 116.75,-37.62 113.25,-47.62 120.25,-47.62"/>
</g>
</g>
</svg>
