<?xml version="1.0" encoding="UTF-8" standalone="no"?>
<!DOCTYPE svg PUBLIC "-//W3C//DTD SVG 1.1//EN"
 "http://www.w3.org/Graphics/SVG/1.1/DTD/svg11.dtd">
<!-- Generated by graphviz version 14.1.0 (20251206.1807)
 -->
<!-- Title: G Pages: 1 -->
<svg width="3749pt" height="1963pt"
 viewBox="0.00 0.00 3749.00 1963.00" xmlns="http://www.w3.org/2000/svg" xmlns:xlink="http://www.w3.org/1999/xlink">
<g id="graph0" class="graph" transform="scale(4.16667 4.16667) rotate(0) translate(4 467)">
<title>G</title>
<!-- select -->
<g id="node1" class="node">
<title>select</title>
<polygon fill="none" stroke="black" points="415,-452 242.25,-452 242.25,-416 415,-416 415,-452"/>
<text xml:space="preserve" text-anchor="middle" x="328.62" y="-431.2" font-family="RocknRoll One" font-size="14.00">「ブロック」を選択する</text>
</g>
<!-- display -->
<g id="node2" class="node">
<title>display</title>
<polygon fill="none" stroke="black" points="657.25,-348 0,-348 0,-312 657.25,-312 657.25,-348"/>
<text xml:space="preserve" text-anchor="middle" x="328.62" y="-327.2" font-family="RocknRoll One" font-size="14.00">「このユーザーをブロックしますか？ブロックすると相手の投稿が表示されなくなります。」を表示</text>
</g>
<!-- select&#45;&gt;display -->
<g id="edge1" class="edge">
<title>select&#45;&gt;display</title>
<path fill="none" stroke="black" d="M328.62,-415.7C328.62,-400.38 328.62,-377.74 328.62,-359.71"/>
<polygon fill="black" stroke="black" points="332.13,-359.9 328.63,-349.9 325.13,-359.9 332.13,-359.9"/>
</g>
<!-- ok -->
<g id="node9" class="node">
<title>ok</title>
<polygon fill="none" stroke="black" points="355.62,-275 301.62,-275 301.62,-239 355.62,-239 355.62,-275"/>
<text xml:space="preserve" text-anchor="middle" x="328.62" y="-254.2" font-family="RocknRoll One" font-size="14.00">ok</text>
</g>
<!-- display&#45;&gt;ok -->
<g id="edge2" class="edge">
<title>display&#45;&gt;ok</title>
<path fill="none" stroke="black" d="M328.62,-311.81C328.62,-304.23 328.62,-295.1 328.62,-286.54"/>
<polygon fill="black" stroke="black" points="332.13,-286.54 328.63,-276.54 325.13,-286.54 332.13,-286.54"/>
</g>
<!-- yes -->
<g id="node3" class="node">
<title>yes</title>
<polygon fill="none" stroke="black" points="783.62,-463 675.38,-434 783.62,-405 891.88,-434 783.62,-463"/>
<text xml:space="preserve" text-anchor="middle" x="783.62" y="-431.2" font-family="RocknRoll One" font-size="14.00">「OK」を選択</text>
</g>
<!-- db -->
<g id="node4" class="node">
<title>db</title>
<polygon fill="none" stroke="black" points="783.75,-348 675.5,-348 675.5,-312 783.75,-312 783.75,-348"/>
<text xml:space="preserve" text-anchor="middle" x="729.62" y="-327.2" font-family="RocknRoll One" font-size="14.00">DBにアクセス</text>
</g>
<!-- yes&#45;&gt;db -->
<g id="edge3" class="edge">
<title>yes&#45;&gt;db</title>
<path fill="none" stroke="black" d="M770.42,-408.05C762.45,-393 752.29,-373.82 744.11,-358.36"/>
<polygon fill="black" stroke="black" points="747.29,-356.89 739.52,-349.68 741.1,-360.16 747.29,-356.89"/>
<text xml:space="preserve" text-anchor="middle" x="770.62" y="-373.7" font-family="RocknRoll One" font-size="14.00">Yes</text>
</g>
<!-- view -->
<g id="node8" class="node">
<title>view</title>
<polygon fill="none" stroke="black" points="878.38,-36 644.88,-36 644.88,0 878.38,0 878.38,-36"/>
<text xml:space="preserve" text-anchor="middle" x="761.62" y="-15.2" font-family="RocknRoll One" font-size="14.00">BusinessPinDetailScreenに移行</text>
</g>
<!-- yes&#45;&gt;view -->
<g id="edge4" class="edge">
<title>yes&#45;&gt;view</title>
<path fill="none" stroke="black" d="M803.66,-410.02C818.67,-390.41 836.62,-360.73 836.62,-331 836.62,-331 836.62,-331 836.62,-90 836.62,-70.37 822.9,-54.54 807.19,-42.85"/>
<polygon fill="black" stroke="black" points="809.29,-40.04 799.06,-37.3 805.35,-45.83 809.29,-40.04"/>
<text xml:space="preserve" text-anchor="middle" x="846.75" y="-207.7" font-family="RocknRoll One" font-size="14.00">No</text>
</g>
<!-- store -->
<g id="node5" class="node">
<title>store</title>
<polygon fill="none" stroke="black" points="782.75,-275 638.5,-275 638.5,-239 782.75,-239 782.75,-275"/>
<text xml:space="preserve" text-anchor="middle" x="710.62" y="-254.2" font-family="RocknRoll One" font-size="14.00">ブロック情報の格納</text>
</g>
<!-- db&#45;&gt;store -->
<g id="edge5" class="edge">
<title>db&#45;&gt;store</title>
<path fill="none" stroke="black" d="M725.03,-311.81C722.95,-304.05 720.44,-294.68 718.1,-285.95"/>
<polygon fill="black" stroke="black" points="721.54,-285.25 715.57,-276.49 714.78,-287.06 721.54,-285.25"/>
</g>
<!-- output -->
<g id="node6" class="node">
<title>output</title>
<polygon fill="none" stroke="black" points="808.88,-182 536.38,-182 536.38,-146 808.88,-146 808.88,-182"/>
<text xml:space="preserve" text-anchor="middle" x="672.62" y="-161.2" font-family="RocknRoll One" font-size="14.00">「ユーザーをブロックしました」を表示</text>
</g>
<!-- store&#45;&gt;output -->
<g id="edge6" class="edge">
<title>store&#45;&gt;output</title>
<path fill="none" stroke="black" d="M703.48,-238.88C698.05,-225.87 690.46,-207.71 684.17,-192.65"/>
<polygon fill="black" stroke="black" points="687.54,-191.62 680.45,-183.75 681.08,-194.32 687.54,-191.62"/>
</g>
<!-- map -->
<g id="node7" class="node">
<title>map</title>
<polygon fill="none" stroke="black" points="803.38,-109 569.88,-109 569.88,-73 803.38,-73 803.38,-109"/>
<text xml:space="preserve" text-anchor="middle" x="686.62" y="-88.2" font-family="RocknRoll One" font-size="14.00">BusinessMapViewScreenに移行</text>
</g>
<!-- output&#45;&gt;map -->
<g id="edge7" class="edge">
<title>output&#45;&gt;map</title>
<path fill="none" stroke="black" d="M676.01,-145.81C677.53,-138.14 679.35,-128.89 681.06,-120.24"/>
<polygon fill="black" stroke="black" points="684.47,-121 682.97,-110.51 677.61,-119.65 684.47,-121"/>
</g>
<!-- map&#45;&gt;view -->
<g id="edge8" class="edge">
<title>map&#45;&gt;view</title>
<path fill="none" stroke="black" d="M704.78,-72.81C713.93,-64.16 725.18,-53.5 735.26,-43.96"/>
<polygon fill="black" stroke="black" points="737.42,-46.73 742.28,-37.32 732.61,-41.65 737.42,-46.73"/>
</g>
</g>
</svg>
