<?xml version="1.0" encoding="UTF-8" standalone="no"?>
<!DOCTYPE svg PUBLIC "-//W3C//DTD SVG 1.1//EN"
 "http://www.w3.org/Graphics/SVG/1.1/DTD/svg11.dtd">
<!-- Generated by graphviz version 14.1.0 (20251206.1807)
 -->
<!-- Title: G Pages: 1 -->
<svg width="2037pt" height="1179pt"
 viewBox="0.00 0.00 2037.00 1179.00" xmlns="http://www.w3.org/2000/svg" xmlns:xlink="http://www.w3.org/1999/xlink">
<g id="graph0" class="graph" transform="scale(4.16667 4.16667) rotate(0) translate(4 279)">
<title>G</title>
<!-- branch -->
<g id="node1" class="node">
<title>branch</title>
<polygon fill="none" stroke="black" points="229.38,-275 99.38,-275 99.38,-239 229.38,-239 229.38,-275"/>
<text xml:space="preserve" text-anchor="middle" x="164.38" y="-254.2" font-family="RocknRoll One" font-size="14.00">ログアウトを選択</text>
</g>
<!-- no -->
<g id="node2" class="node">
<title>no</title>
<polygon fill="none" stroke="black" points="286.75,-182 0,-182 0,-146 286.75,-146 286.75,-182"/>
<text xml:space="preserve" text-anchor="middle" x="143.38" y="-161.2" font-family="RocknRoll One" font-size="14.00">ログアウト画面へ遷移する前の画面へ遷移</text>
</g>
<!-- branch&#45;&gt;no -->
<g id="edge1" class="edge">
<title>branch&#45;&gt;no</title>
<path fill="none" stroke="black" d="M160.43,-238.88C157.48,-226.13 153.39,-208.42 149.96,-193.53"/>
<polygon fill="black" stroke="black" points="153.38,-192.78 147.72,-183.82 146.56,-194.35 153.38,-192.78"/>
<text xml:space="preserve" text-anchor="middle" x="165.88" y="-207.7" font-family="RocknRoll One" font-size="14.00">No</text>
</g>
<!-- yes -->
<g id="node3" class="node">
<title>yes</title>
<polygon fill="none" stroke="black" points="463.62,-182 305.12,-182 305.12,-146 463.62,-146 463.62,-182"/>
<text xml:space="preserve" text-anchor="middle" x="384.38" y="-161.2" font-family="RocknRoll One" font-size="14.00">ログアウト画面を表示</text>
</g>
<!-- branch&#45;&gt;yes -->
<g id="edge2" class="edge">
<title>branch&#45;&gt;yes</title>
<path fill="none" stroke="black" d="M206.53,-238.56C242.23,-223.8 293.56,-202.56 331.91,-186.7"/>
<polygon fill="black" stroke="black" points="333.06,-190.01 340.96,-182.96 330.38,-183.55 333.06,-190.01"/>
<text xml:space="preserve" text-anchor="middle" x="306.45" y="-207.7" font-family="RocknRoll One" font-size="14.00">Yes</text>
</g>
<!-- logout -->
<g id="node4" class="node">
<title>logout</title>
<polygon fill="none" stroke="black" points="470.75,-109 298,-109 298,-73 470.75,-73 470.75,-109"/>
<text xml:space="preserve" text-anchor="middle" x="384.38" y="-88.2" font-family="RocknRoll One" font-size="14.00">セッション情報の無効化</text>
</g>
<!-- yes&#45;&gt;logout -->
<g id="edge3" class="edge">
<title>yes&#45;&gt;logout</title>
<path fill="none" stroke="black" d="M384.38,-145.81C384.38,-138.23 384.38,-129.1 384.38,-120.54"/>
<polygon fill="black" stroke="black" points="387.88,-120.54 384.38,-110.54 380.88,-120.54 387.88,-120.54"/>
</g>
<!-- login -->
<g id="node5" class="node">
<title>login</title>
<polygon fill="none" stroke="black" points="480.88,-36 287.88,-36 287.88,0 480.88,0 480.88,-36"/>
<text xml:space="preserve" text-anchor="middle" x="384.38" y="-15.2" font-family="RocknRoll One" font-size="14.00">AdminLoginScreenに移行</text>
</g>
<!-- logout&#45;&gt;login -->
<g id="edge4" class="edge">
<title>logout&#45;&gt;login</title>
<path fill="none" stroke="black" d="M384.38,-72.81C384.38,-65.23 384.38,-56.1 384.38,-47.54"/>
<polygon fill="black" stroke="black" points="387.88,-47.54 384.38,-37.54 380.88,-47.54 387.88,-47.54"/>
</g>
</g>
</svg>
