<?xml version="1.0" encoding="UTF-8" standalone="no"?>
<!DOCTYPE svg PUBLIC "-//W3C//DTD SVG 1.1//EN"
 "http://www.w3.org/Graphics/SVG/1.1/DTD/svg11.dtd">
<!-- Generated by graphviz version 14.1.0 (20251206.1807)
 -->
<!-- Title: G Pages: 1 -->
<svg width="1833pt" height="1879pt"
 viewBox="0.00 0.00 1833.00 1879.00" xmlns="http://www.w3.org/2000/svg" xmlns:xlink="http://www.w3.org/1999/xlink">
<g id="graph0" class="graph" transform="scale(4.16667 4.16667) rotate(0) translate(4 447)">
<title>G</title>
<!-- trash -->
<g id="node1" class="node">
<title>trash</title>
<polygon fill="none" stroke="black" points="293.38,-443 149.12,-443 149.12,-407 293.38,-407 293.38,-443"/>
<text xml:space="preserve" text-anchor="middle" x="221.25" y="-422.2" font-family="RocknRoll One" font-size="14.00">ゴミ箱マークを選択</text>
</g>
<!-- trash_display -->
<g id="node2" class="node">
<title>trash_display</title>
<polygon fill="none" stroke="black" points="293.38,-370 149.12,-370 149.12,-334 293.38,-334 293.38,-370"/>
<text xml:space="preserve" text-anchor="middle" x="221.25" y="-349.2" font-family="RocknRoll One" font-size="14.00">削除確認画面を表示</text>
</g>
<!-- trash&#45;&gt;trash_display -->
<g id="edge1" class="edge">
<title>trash&#45;&gt;trash_display</title>
<path fill="none" stroke="black" d="M221.25,-406.81C221.25,-399.23 221.25,-390.1 221.25,-381.54"/>
<polygon fill="black" stroke="black" points="224.75,-381.54 221.25,-371.54 217.75,-381.54 224.75,-381.54"/>
</g>
<!-- yes -->
<g id="node3" class="node">
<title>yes</title>
<polygon fill="none" stroke="black" points="108.25,-277 0,-248 108.25,-219 216.5,-248 108.25,-277"/>
<text xml:space="preserve" text-anchor="middle" x="108.25" y="-245.2" font-family="RocknRoll One" font-size="14.00">「OK」を選択</text>
</g>
<!-- trash_display&#45;&gt;yes -->
<g id="edge2" class="edge">
<title>trash_display&#45;&gt;yes</title>
<path fill="none" stroke="black" d="M202.08,-333.7C185.3,-318.55 160.56,-296.22 140.69,-278.29"/>
<polygon fill="black" stroke="black" points="143.13,-275.77 133.36,-271.67 138.44,-280.97 143.13,-275.77"/>
<text xml:space="preserve" text-anchor="middle" x="193.85" y="-302.7" font-family="RocknRoll One" font-size="14.00">Yes</text>
</g>
<!-- no -->
<g id="node4" class="node">
<title>no</title>
<polygon fill="none" stroke="black" points="432,-266 234.5,-266 234.5,-230 432,-230 432,-266"/>
<text xml:space="preserve" text-anchor="middle" x="333.25" y="-245.2" font-family="RocknRoll One" font-size="14.00">UserMyPageScreenに移行</text>
</g>
<!-- trash_display&#45;&gt;no -->
<g id="edge3" class="edge">
<title>trash_display&#45;&gt;no</title>
<path fill="none" stroke="black" d="M240.25,-333.7C258.27,-317.29 285.54,-292.45 305.9,-273.91"/>
<polygon fill="black" stroke="black" points="308,-276.73 313.04,-267.41 303.29,-271.55 308,-276.73"/>
<text xml:space="preserve" text-anchor="middle" x="290.73" y="-302.7" font-family="RocknRoll One" font-size="14.00">No</text>
</g>
<!-- db -->
<g id="node5" class="node">
<title>db</title>
<polygon fill="none" stroke="black" points="162.38,-182 54.12,-182 54.12,-146 162.38,-146 162.38,-182"/>
<text xml:space="preserve" text-anchor="middle" x="108.25" y="-161.2" font-family="RocknRoll One" font-size="14.00">DBにアクセス</text>
</g>
<!-- yes&#45;&gt;db -->
<g id="edge4" class="edge">
<title>yes&#45;&gt;db</title>
<path fill="none" stroke="black" d="M108.25,-218.78C108.25,-210.56 108.25,-201.58 108.25,-193.36"/>
<polygon fill="black" stroke="black" points="111.75,-193.54 108.25,-183.54 104.75,-193.54 111.75,-193.54"/>
</g>
<!-- delete -->
<g id="node6" class="node">
<title>delete</title>
<polygon fill="none" stroke="black" points="166.12,-109 50.38,-109 50.38,-73 166.12,-73 166.12,-109"/>
<text xml:space="preserve" text-anchor="middle" x="108.25" y="-88.2" font-family="RocknRoll One" font-size="14.00">投稿内容を削除</text>
</g>
<!-- db&#45;&gt;delete -->
<g id="edge5" class="edge">
<title>db&#45;&gt;delete</title>
<path fill="none" stroke="black" d="M108.25,-145.81C108.25,-138.23 108.25,-129.1 108.25,-120.54"/>
<polygon fill="black" stroke="black" points="111.75,-120.54 108.25,-110.54 104.75,-120.54 111.75,-120.54"/>
</g>
<!-- delete_display -->
<g id="node7" class="node">
<title>delete_display</title>
<polygon fill="none" stroke="black" points="216,-36 0.5,-36 0.5,0 216,0 216,-36"/>
<text xml:space="preserve" text-anchor="middle" x="108.25" y="-15.2" font-family="RocknRoll One" font-size="14.00">「投稿を削除しました」と表示</text>
</g>
<!-- delete&#45;&gt;delete_display -->
<g id="edge6" class="edge">
<title>delete&#45;&gt;delete_display</title>
<path fill="none" stroke="black" d="M108.25,-72.81C108.25,-65.23 108.25,-56.1 108.25,-47.54"/>
<polygon fill="black" stroke="black" points="111.75,-47.54 108.25,-37.54 104.75,-47.54 111.75,-47.54"/>
</g>
</g>
</svg>
