<?xml version="1.0" encoding="UTF-8" standalone="no"?>
<!DOCTYPE svg PUBLIC "-//W3C//DTD SVG 1.1//EN"
 "http://www.w3.org/Graphics/SVG/1.1/DTD/svg11.dtd">
<!-- Generated by graphviz version 14.1.0 (20251206.1807)
 -->
<!-- Title: G Pages: 1 -->
<svg width="2037pt" height="1271pt"
 viewBox="0.00 0.00 2037.00 1271.00" xmlns="http://www.w3.org/2000/svg" xmlns:xlink="http://www.w3.org/1999/xlink">
<g id="graph0" class="graph" transform="scale(4.16667 4.16667) rotate(0) translate(4 301)">
<title>G</title>
<!-- branch -->
<g id="node1" class="node">
<title>branch</title>
<polygon fill="none" stroke="black" points="164.38,-297 34.38,-268 164.37,-239 294.38,-268 164.38,-297"/>
<text xml:space="preserve" text-anchor="middle" x="164.38" y="-265.2" font-family="RocknRoll One" font-size="14.00">ログアウトを選択</text>
</g>
<!-- no -->
<g id="node2" class="node">
<title>no</title>
<polygon fill="none" stroke="black" points="286.75,-182 0,-182 0,-146 286.75,-146 286.75,-182"/>
<text xml:space="preserve" text-anchor="middle" x="143.38" y="-161.2" font-family="RocknRoll One" font-size="14.00">ログアウト画面へ遷移する前の画面へ遷移</text>
</g>
<!-- branch&#45;&gt;no -->
<g id="edge1" class="edge">
<title>branch&#45;&gt;no</title>
<path fill="none" stroke="black" d="M158.8,-239.93C155.83,-225.5 152.18,-207.75 149.17,-193.15"/>
<polygon fill="black" stroke="black" points="152.68,-192.82 147.23,-183.73 145.82,-194.23 152.68,-192.82"/>
<text xml:space="preserve" text-anchor="middle" x="164.63" y="-207.7" font-family="RocknRoll One" font-size="14.00">No</text>
</g>
<!-- yes -->
<g id="node3" class="node">
<title>yes</title>
<polygon fill="none" stroke="black" points="463.62,-182 305.12,-182 305.12,-146 463.62,-146 463.62,-182"/>
<text xml:space="preserve" text-anchor="middle" x="384.38" y="-161.2" font-family="RocknRoll One" font-size="14.00">ログアウト画面を表示</text>
</g>
<!-- branch&#45;&gt;yes -->
<g id="edge2" class="edge">
<title>branch&#45;&gt;yes</title>
<path fill="none" stroke="black" d="M205.76,-247.81C243,-230.54 297.73,-205.17 336.78,-187.07"/>
<polygon fill="black" stroke="black" points="337.88,-190.42 345.48,-183.04 334.93,-184.07 337.88,-190.42"/>
<text xml:space="preserve" text-anchor="middle" x="319.31" y="-207.7" font-family="RocknRoll One" font-size="14.00">Yes</text>
</g>
<!-- logout -->
<g id="node4" class="node">
<title>logout</title>
<polygon fill="none" stroke="black" points="470.75,-109 298,-109 298,-73 470.75,-73 470.75,-109"/>
<text xml:space="preserve" text-anchor="middle" x="384.38" y="-88.2" font-family="RocknRoll One" font-size="14.00">セッション情報の無効化</text>
</g>
<!-- yes&#45;&gt;logout -->
<g id="edge3" class="edge">
<title>yes&#45;&gt;logout</title>
<path fill="none" stroke="black" d="M384.38,-145.81C384.38,-138.23 384.38,-129.1 384.38,-120.54"/>
<polygon fill="black" stroke="black" points="387.88,-120.54 384.38,-110.54 380.88,-120.54 387.88,-120.54"/>
</g>
<!-- login -->
<g id="node5" class="node">
<title>login</title>
<polygon fill="none" stroke="black" points="480.88,-36 287.88,-36 287.88,0 480.88,0 480.88,-36"/>
<text xml:space="preserve" text-anchor="middle" x="384.38" y="-15.2" font-family="RocknRoll One" font-size="14.00">AdminLoginScreenに移行</text>
</g>
<!-- logout&#45;&gt;login -->
<g id="edge4" class="edge">
<title>logout&#45;&gt;login</title>
<path fill="none" stroke="black" d="M384.38,-72.81C384.38,-65.23 384.38,-56.1 384.38,-47.54"/>
<polygon fill="black" stroke="black" points="387.88,-47.54 384.38,-37.54 380.88,-47.54 387.88,-47.54"/>
</g>
</g>
</svg>
