<?xml version="1.0" encoding="UTF-8" standalone="no"?>
<!DOCTYPE svg PUBLIC "-//W3C//DTD SVG 1.1//EN"
 "http://www.w3.org/Graphics/SVG/1.1/DTD/svg11.dtd">
<!-- Generated by graphviz version 14.1.0 (20251206.1807)
 -->
<!-- Title: G Pages: 1 -->
<svg width="2345pt" height="1504pt"
 viewBox="0.00 0.00 2345.00 1504.00" xmlns="http://www.w3.org/2000/svg" xmlns:xlink="http://www.w3.org/1999/xlink">
<g id="graph0" class="graph" transform="scale(4.16667 4.16667) rotate(0) translate(4 357)">
<title>G</title>
<!-- input -->
<g id="node1" class="node">
<title>input</title>
<polygon fill="none" stroke="black" points="301.88,-353 129.12,-353 129.12,-317 301.88,-317 301.88,-353"/>
<text xml:space="preserve" text-anchor="middle" x="215.5" y="-332.2" font-family="RocknRoll One" font-size="14.00">入力された文字列を取得</text>
</g>
<!-- serch -->
<g id="node2" class="node">
<title>serch</title>
<polygon fill="none" stroke="black" points="215.5,-280 0,-230 215.5,-180 431,-230 215.5,-280"/>
<text xml:space="preserve" text-anchor="middle" x="215.5" y="-237.7" font-family="RocknRoll One" font-size="14.00">事業者情報から入力された</text>
<text xml:space="preserve" text-anchor="middle" x="215.5" y="-216.7" font-family="RocknRoll One" font-size="14.00">文字列が含まれる事業者を検索</text>
</g>
<!-- input&#45;&gt;serch -->
<g id="edge1" class="edge">
<title>input&#45;&gt;serch</title>
<path fill="none" stroke="black" d="M215.5,-316.53C215.5,-309.35 215.5,-300.57 215.5,-291.4"/>
<polygon fill="black" stroke="black" points="219,-291.62 215.5,-281.62 212,-291.62 219,-291.62"/>
</g>
<!-- no -->
<g id="node3" class="node">
<title>no</title>
<polygon fill="none" stroke="black" points="323.62,-116 65.38,-116 65.38,-80 323.62,-80 323.62,-116"/>
<text xml:space="preserve" text-anchor="middle" x="194.5" y="-95.2" font-family="RocknRoll One" font-size="14.00">「その事業者は存在しません」と表示</text>
</g>
<!-- serch&#45;&gt;no -->
<g id="edge2" class="edge">
<title>serch&#45;&gt;no</title>
<path fill="none" stroke="black" d="M207.8,-181.33C204.87,-163.2 201.63,-143.13 199.08,-127.34"/>
<polygon fill="black" stroke="black" points="202.57,-127.01 197.52,-117.7 195.66,-128.13 202.57,-127.01"/>
<text xml:space="preserve" text-anchor="middle" x="214.5" y="-148.7" font-family="RocknRoll One" font-size="14.00">No</text>
</g>
<!-- yes -->
<g id="node4" class="node">
<title>yes</title>
<polygon fill="none" stroke="black" points="543.12,-123 341.88,-123 341.88,-73 543.12,-73 543.12,-123"/>
<text xml:space="preserve" text-anchor="middle" x="442.5" y="-105.7" font-family="RocknRoll One" font-size="14.00">取得された事業者の住所から</text>
<text xml:space="preserve" text-anchor="middle" x="442.5" y="-84.7" font-family="RocknRoll One" font-size="14.00">緯度・経度を取得</text>
</g>
<!-- serch&#45;&gt;yes -->
<g id="edge3" class="edge">
<title>serch&#45;&gt;yes</title>
<path fill="none" stroke="black" d="M276.93,-193.82C312.42,-173.49 356.59,-148.2 390.38,-128.85"/>
<polygon fill="black" stroke="black" points="391.81,-132.06 398.75,-124.06 388.33,-125.99 391.81,-132.06"/>
<text xml:space="preserve" text-anchor="middle" x="381.45" y="-148.7" font-family="RocknRoll One" font-size="14.00">Yes</text>
</g>
<!-- view -->
<g id="node5" class="node">
<title>view</title>
<polygon fill="none" stroke="black" points="554.75,-36 330.25,-36 330.25,0 554.75,0 554.75,-36"/>
<text xml:space="preserve" text-anchor="middle" x="442.5" y="-15.2" font-family="RocknRoll One" font-size="14.00">BusinessPinPostScreenに反映</text>
</g>
<!-- yes&#45;&gt;view -->
<g id="edge4" class="edge">
<title>yes&#45;&gt;view</title>
<path fill="none" stroke="black" d="M442.5,-72.75C442.5,-64.82 442.5,-55.93 442.5,-47.7"/>
<polygon fill="black" stroke="black" points="446,-47.82 442.5,-37.82 439,-47.82 446,-47.82"/>
</g>
</g>
</svg>
