<?xml version="1.0" encoding="UTF-8" standalone="no"?>
<!DOCTYPE svg PUBLIC "-//W3C//DTD SVG 1.1//EN"
 "http://www.w3.org/Graphics/SVG/1.1/DTD/svg11.dtd">
<!-- Generated by graphviz version 14.1.0 (20251206.1807)
 -->
<!-- Title: G Pages: 1 -->
<svg width="3579pt" height="1983pt"
 viewBox="0.00 0.00 3579.00 1983.00" xmlns="http://www.w3.org/2000/svg" xmlns:xlink="http://www.w3.org/1999/xlink">
<g id="graph0" class="graph" transform="scale(4.16667 4.16667) rotate(0) translate(4 472)">
<title>G</title>
<!-- input -->
<g id="node1" class="node">
<title>input</title>
<polygon fill="none" stroke="black" points="382.75,-468 0,-418 382.75,-368 765.5,-418 382.75,-468"/>
<text xml:space="preserve" text-anchor="middle" x="382.75" y="-425.7" font-family="RocknRoll One" font-size="14.00">退会理由(任意)を記入，削除確認項目にすべてチェック，</text>
<text xml:space="preserve" text-anchor="middle" x="382.75" y="-404.7" font-family="RocknRoll One" font-size="14.00">アカウントを削除するを確認</text>
</g>
<!-- no -->
<g id="node2" class="node">
<title>no</title>
<polygon fill="none" stroke="black" points="410.12,-304 183.38,-304 183.38,-268 410.12,-268 410.12,-304"/>
<text xml:space="preserve" text-anchor="middle" x="296.75" y="-283.2" font-family="RocknRoll One" font-size="14.00">BusinessMyPageScreenに移行</text>
</g>
<!-- input&#45;&gt;no -->
<g id="edge1" class="edge">
<title>input&#45;&gt;no</title>
<path fill="none" stroke="black" d="M352.67,-371.53C339.8,-352.07 325.22,-330.03 314.17,-313.33"/>
<polygon fill="black" stroke="black" points="317.39,-311.85 308.95,-305.45 311.55,-315.72 317.39,-311.85"/>
<text xml:space="preserve" text-anchor="middle" x="347.3" y="-336.7" font-family="RocknRoll One" font-size="14.00">No</text>
</g>
<!-- yes -->
<g id="node3" class="node">
<title>yes</title>
<polygon fill="none" stroke="black" points="771.62,-311 427.88,-311 427.88,-261 771.62,-261 771.62,-311"/>
<text xml:space="preserve" text-anchor="middle" x="599.75" y="-293.7" font-family="RocknRoll One" font-size="14.00">「本当にアカウントを削除してもよろしいですか？</text>
<text xml:space="preserve" text-anchor="middle" x="599.75" y="-272.7" font-family="RocknRoll One" font-size="14.00">この操作は取り消せません。」を表示</text>
</g>
<!-- input&#45;&gt;yes -->
<g id="edge2" class="edge">
<title>input&#45;&gt;yes</title>
<path fill="none" stroke="black" d="M450.52,-376.4C482.47,-357.26 519.94,-334.81 549.34,-317.2"/>
<polygon fill="black" stroke="black" points="550.9,-320.34 557.68,-312.2 547.3,-314.34 550.9,-320.34"/>
<text xml:space="preserve" text-anchor="middle" x="541.94" y="-336.7" font-family="RocknRoll One" font-size="14.00">Yes</text>
</g>
<!-- ok -->
<g id="node4" class="node">
<title>ok</title>
<polygon fill="none" stroke="black" points="599.75,-224 491.5,-195 599.75,-166 708,-195 599.75,-224"/>
<text xml:space="preserve" text-anchor="middle" x="599.75" y="-192.2" font-family="RocknRoll One" font-size="14.00">「OK」を選択</text>
</g>
<!-- yes&#45;&gt;ok -->
<g id="edge3" class="edge">
<title>yes&#45;&gt;ok</title>
<path fill="none" stroke="black" d="M599.75,-260.68C599.75,-252.97 599.75,-244.23 599.75,-235.72"/>
<polygon fill="black" stroke="black" points="603.25,-235.9 599.75,-225.9 596.25,-235.9 603.25,-235.9"/>
</g>
<!-- nook -->
<g id="node5" class="node">
<title>nook</title>
<polygon fill="none" stroke="black" points="645.5,-109 430,-109 430,-73 645.5,-73 645.5,-109"/>
<text xml:space="preserve" text-anchor="middle" x="537.75" y="-88.2" font-family="RocknRoll One" font-size="14.00">BusinessDeleteScreenに移行</text>
</g>
<!-- ok&#45;&gt;nook -->
<g id="edge4" class="edge">
<title>ok&#45;&gt;nook</title>
<path fill="none" stroke="black" d="M584.9,-169.57C575.61,-154.29 563.64,-134.6 554.09,-118.88"/>
<polygon fill="black" stroke="black" points="557.18,-117.23 549,-110.5 551.2,-120.87 557.18,-117.23"/>
<text xml:space="preserve" text-anchor="middle" x="580.73" y="-134.7" font-family="RocknRoll One" font-size="14.00">No</text>
</g>
<!-- yesok -->
<g id="node6" class="node">
<title>yesok</title>
<polygon fill="none" stroke="black" points="828.38,-109 663.12,-109 663.12,-73 828.38,-73 828.38,-109"/>
<text xml:space="preserve" text-anchor="middle" x="745.75" y="-88.2" font-family="RocknRoll One" font-size="14.00">DBから会員情報を削除</text>
</g>
<!-- ok&#45;&gt;yesok -->
<g id="edge5" class="edge">
<title>ok&#45;&gt;yesok</title>
<path fill="none" stroke="black" d="M628.94,-173.6C652.85,-156.9 686.71,-133.25 711.82,-115.71"/>
<polygon fill="black" stroke="black" points="713.54,-118.77 719.73,-110.18 709.53,-113.03 713.54,-118.77"/>
<text xml:space="preserve" text-anchor="middle" x="706.73" y="-134.7" font-family="RocknRoll One" font-size="14.00">Yes</text>
</g>
<!-- login -->
<g id="node7" class="node">
<title>login</title>
<polygon fill="none" stroke="black" points="850.88,-36 640.62,-36 640.62,0 850.88,0 850.88,-36"/>
<text xml:space="preserve" text-anchor="middle" x="745.75" y="-15.2" font-family="RocknRoll One" font-size="14.00">BusinessLoginScreenに移行</text>
</g>
<!-- yesok&#45;&gt;login -->
<g id="edge6" class="edge">
<title>yesok&#45;&gt;login</title>
<path fill="none" stroke="black" d="M745.75,-72.81C745.75,-65.23 745.75,-56.1 745.75,-47.54"/>
<polygon fill="black" stroke="black" points="749.25,-47.54 745.75,-37.54 742.25,-47.54 749.25,-47.54"/>
</g>
</g>
</svg>
