<?xml version="1.0" encoding="UTF-8" standalone="no"?>
<!DOCTYPE svg PUBLIC "-//W3C//DTD SVG 1.1//EN"
 "http://www.w3.org/Graphics/SVG/1.1/DTD/svg11.dtd">
<!-- Generated by graphviz version 14.1.0 (20251206.1807)
 -->
<!-- Title: G Pages: 1 -->
<svg width="2423pt" height="967pt"
 viewBox="0.00 0.00 2423.00 967.00" xmlns="http://www.w3.org/2000/svg" xmlns:xlink="http://www.w3.org/1999/xlink">
<g id="graph0" class="graph" transform="scale(4.16667 4.16667) rotate(0) translate(4 228)">
<title>G</title>
<!-- input -->
<g id="node1" class="node">
<title>input</title>
<polygon fill="none" stroke="black" points="394.5,-224 179,-224 179,-188 394.5,-188 394.5,-224"/>
<text xml:space="preserve" text-anchor="middle" x="286.75" y="-203.2" font-family="RocknRoll One" font-size="14.00">店舗名，電話番号，住所を入力</text>
</g>
<!-- check -->
<g id="node2" class="node">
<title>check</title>
<polygon fill="none" stroke="black" points="286.75,-151 0,-122 286.75,-93 573.5,-122 286.75,-151"/>
<text xml:space="preserve" text-anchor="middle" x="286.75" y="-119.2" font-family="RocknRoll One" font-size="14.00">必須項目が全て入力されているのかを確認</text>
</g>
<!-- input&#45;&gt;check -->
<g id="edge1" class="edge">
<title>input&#45;&gt;check</title>
<path fill="none" stroke="black" d="M286.75,-187.61C286.75,-180.29 286.75,-171.44 286.75,-162.68"/>
<polygon fill="black" stroke="black" points="290.25,-162.85 286.75,-152.85 283.25,-162.85 290.25,-162.85"/>
</g>
<!-- er -->
<g id="node3" class="node">
<title>er</title>
<polygon fill="none" stroke="black" points="293.88,-36 35.62,-36 35.62,0 293.88,0 293.88,-36"/>
<text xml:space="preserve" text-anchor="middle" x="164.75" y="-15.2" font-family="RocknRoll One" font-size="14.00">必須項目が入力されていない旨を表示</text>
</g>
<!-- check&#45;&gt;er -->
<g id="edge2" class="edge">
<title>check&#45;&gt;er</title>
<path fill="none" stroke="black" d="M256.59,-95.79C237.55,-79.87 213.07,-59.4 194.17,-43.6"/>
<polygon fill="black" stroke="black" points="196.47,-40.96 186.55,-37.23 191.98,-46.33 196.47,-40.96"/>
<text xml:space="preserve" text-anchor="middle" x="239.53" y="-61.7" font-family="RocknRoll One" font-size="14.00">No</text>
</g>
<!-- db -->
<g id="node4" class="node">
<title>db</title>
<polygon fill="none" stroke="black" points="505.62,-36 311.88,-36 311.88,0 505.62,0 505.62,-36"/>
<text xml:space="preserve" text-anchor="middle" x="408.75" y="-15.2" font-family="RocknRoll One" font-size="14.00">DBに事業者申請情報を格納</text>
</g>
<!-- check&#45;&gt;db -->
<g id="edge3" class="edge">
<title>check&#45;&gt;db</title>
<path fill="none" stroke="black" d="M316.91,-95.79C335.95,-79.87 360.43,-59.4 379.33,-43.6"/>
<polygon fill="black" stroke="black" points="381.52,-46.33 386.95,-37.23 377.03,-40.96 381.52,-46.33"/>
<text xml:space="preserve" text-anchor="middle" x="378.18" y="-61.7" font-family="RocknRoll One" font-size="14.00">Yes</text>
</g>
</g>
</svg>
