<?xml version="1.0" encoding="UTF-8" standalone="no"?>
<!DOCTYPE svg PUBLIC "-//W3C//DTD SVG 1.1//EN"
 "http://www.w3.org/Graphics/SVG/1.1/DTD/svg11.dtd">
<!-- Generated by graphviz version 14.1.0 (20251206.1807)
 -->
<!-- Title: G Pages: 1 -->
<svg width="1406pt" height="1383pt"
 viewBox="0.00 0.00 1406.00 1383.00" xmlns="http://www.w3.org/2000/svg" xmlns:xlink="http://www.w3.org/1999/xlink">
<g id="graph0" class="graph" transform="scale(4.16667 4.16667) rotate(0) translate(4 328)">
<title>G</title>
<!-- input -->
<g id="node1" class="node">
<title>input</title>
<polygon fill="none" stroke="black" points="236.88,-324 92.62,-324 92.62,-288 236.88,-288 236.88,-324"/>
<text xml:space="preserve" text-anchor="middle" x="164.75" y="-303.2" font-family="RocknRoll One" font-size="14.00">リアクションを選択</text>
</g>
<!-- db -->
<g id="node2" class="node">
<title>db</title>
<polygon fill="none" stroke="black" points="218.88,-252 110.62,-252 110.62,-216 218.88,-216 218.88,-252"/>
<text xml:space="preserve" text-anchor="middle" x="164.75" y="-231.2" font-family="RocknRoll One" font-size="14.00">DBにアクセス</text>
</g>
<!-- input&#45;&gt;db -->
<g id="edge1" class="edge">
<title>input&#45;&gt;db</title>
<path fill="none" stroke="black" d="M164.75,-287.7C164.75,-280.41 164.75,-271.73 164.75,-263.54"/>
<polygon fill="black" stroke="black" points="168.25,-263.62 164.75,-253.62 161.25,-263.62 168.25,-263.62"/>
</g>
<!-- post -->
<g id="node3" class="node">
<title>post</title>
<polygon fill="none" stroke="black" points="329.5,-180 0,-180 0,-144 329.5,-144 329.5,-180"/>
<text xml:space="preserve" text-anchor="middle" x="164.75" y="-159.2" font-family="RocknRoll One" font-size="14.00">リアクションされた投稿のリアクション数を取得</text>
</g>
<!-- db&#45;&gt;post -->
<g id="edge2" class="edge">
<title>db&#45;&gt;post</title>
<path fill="none" stroke="black" d="M164.75,-215.7C164.75,-208.41 164.75,-199.73 164.75,-191.54"/>
<polygon fill="black" stroke="black" points="168.25,-191.62 164.75,-181.62 161.25,-191.62 168.25,-191.62"/>
</g>
<!-- add -->
<g id="node4" class="node">
<title>add</title>
<polygon fill="none" stroke="black" points="289.38,-108 40.13,-108 40.13,-72 289.38,-72 289.38,-108"/>
<text xml:space="preserve" text-anchor="middle" x="164.75" y="-87.2" font-family="RocknRoll One" font-size="14.00">リアクション数に+1をし，再び格納</text>
</g>
<!-- post&#45;&gt;add -->
<g id="edge3" class="edge">
<title>post&#45;&gt;add</title>
<path fill="none" stroke="black" d="M164.75,-143.7C164.75,-136.41 164.75,-127.73 164.75,-119.54"/>
<polygon fill="black" stroke="black" points="168.25,-119.62 164.75,-109.62 161.25,-119.62 168.25,-119.62"/>
</g>
<!-- ref -->
<g id="node5" class="node">
<title>ref</title>
<polygon fill="none" stroke="black" points="266.5,-36 63,-36 63,0 266.5,0 266.5,-36"/>
<text xml:space="preserve" text-anchor="middle" x="164.75" y="-15.2" font-family="RocknRoll One" font-size="14.00">UserReactionScreenに移行</text>
</g>
<!-- add&#45;&gt;ref -->
<g id="edge4" class="edge">
<title>add&#45;&gt;ref</title>
<path fill="none" stroke="black" d="M164.75,-71.7C164.75,-64.41 164.75,-55.73 164.75,-47.54"/>
<polygon fill="black" stroke="black" points="168.25,-47.62 164.75,-37.62 161.25,-47.62 168.25,-47.62"/>
</g>
</g>
</svg>
