<?xml version="1.0" encoding="UTF-8" standalone="no"?>
<!DOCTYPE svg PUBLIC "-//W3C//DTD SVG 1.1//EN"
 "http://www.w3.org/Graphics/SVG/1.1/DTD/svg11.dtd">
<!-- Generated by graphviz version 2.43.0 (0)
 -->
<!-- Title: G Pages: 1 -->
<svg width="336pt" height="277pt"
 viewBox="0.00 0.00 336.00 277.00" xmlns="http://www.w3.org/2000/svg" xmlns:xlink="http://www.w3.org/1999/xlink">
<g id="graph0" class="graph" transform="scale(1 1) rotate(0) translate(4 273)">
<title>G</title>
<!-- db -->
<g id="node1" class="node">
<title>db</title>
<polygon fill="none" stroke="black" points="226,-269 119,-269 119,-233 226,-233 226,-269"/>
<text text-anchor="middle" x="172.5" y="-247.3" font-family="RocknRoll One" font-size="14.00">DBにアクセス</text>
</g>
<!-- get -->
<g id="node2" class="node">
<title>get</title>
<polygon fill="none" stroke="black" points="280.5,-196 64.5,-196 64.5,-160 280.5,-160 280.5,-196"/>
<text text-anchor="middle" x="172.5" y="-174.3" font-family="RocknRoll One" font-size="14.00">マップ上のピンの投稿数を取得</text>
</g>
<!-- db&#45;&gt;get -->
<g id="edge1" class="edge">
<title>db&#45;&gt;get</title>
<path fill="none" stroke="black" d="M172.5,-232.81C172.5,-224.79 172.5,-215.05 172.5,-206.07"/>
<polygon fill="black" stroke="black" points="176,-206.03 172.5,-196.03 169,-206.03 176,-206.03"/>
</g>
<!-- judge -->
<g id="node3" class="node">
<title>judge</title>
<polygon fill="none" stroke="black" points="172.5,-123 63.24,-105 172.5,-87 281.76,-105 172.5,-123"/>
<text text-anchor="middle" x="172.5" y="-101.3" font-family="RocknRoll One" font-size="14.00">投稿数が50以上</text>
</g>
<!-- get&#45;&gt;judge -->
<g id="edge2" class="edge">
<title>get&#45;&gt;judge</title>
<path fill="none" stroke="black" d="M172.5,-159.81C172.5,-151.79 172.5,-142.05 172.5,-133.07"/>
<polygon fill="black" stroke="black" points="176,-133.03 172.5,-123.03 169,-133.03 176,-133.03"/>
</g>
<!-- no -->
<g id="node4" class="node">
<title>no</title>
<polygon fill="none" stroke="black" points="173,-36 0,-36 0,0 173,0 173,-36"/>
<text text-anchor="middle" x="86.5" y="-14.3" font-family="RocknRoll One" font-size="14.00">ピンを通常サイズにする</text>
</g>
<!-- judge&#45;&gt;no -->
<g id="edge3" class="edge">
<title>judge&#45;&gt;no</title>
<path fill="none" stroke="black" d="M157.52,-89.19C144.82,-76.64 126.33,-58.37 111.41,-43.62"/>
<polygon fill="black" stroke="black" points="113.55,-40.81 103.97,-36.27 108.63,-45.79 113.55,-40.81"/>
<text text-anchor="middle" x="146.5" y="-57.8" font-family="RocknRoll One" font-size="14.00">NO</text>
</g>
<!-- yes -->
<g id="node5" class="node">
<title>yes</title>
<polygon fill="none" stroke="black" points="328,-36 191,-36 191,0 328,0 328,-36"/>
<text text-anchor="middle" x="259.5" y="-14.3" font-family="RocknRoll One" font-size="14.00">ピンを1.3倍にする</text>
</g>
<!-- judge&#45;&gt;yes -->
<g id="edge4" class="edge">
<title>judge&#45;&gt;yes</title>
<path fill="none" stroke="black" d="M187.65,-89.19C200.51,-76.64 219.2,-58.37 234.3,-43.62"/>
<polygon fill="black" stroke="black" points="237.12,-45.76 241.82,-36.27 232.22,-40.76 237.12,-45.76"/>
<text text-anchor="middle" x="232.5" y="-57.8" font-family="RocknRoll One" font-size="14.00">YES</text>
</g>
</g>
</svg>
