<?xml version="1.0" encoding="UTF-8" standalone="no"?>
<!DOCTYPE svg PUBLIC "-//W3C//DTD SVG 1.1//EN"
 "http://www.w3.org/Graphics/SVG/1.1/DTD/svg11.dtd">
<!-- Generated by graphviz version 2.43.0 (0)
 -->
<!-- Title: G Pages: 1 -->
<svg width="513pt" height="392pt"
 viewBox="14.40 14.40 498.40 377.40" xmlns="http://www.w3.org/2000/svg" xmlns:xlink="http://www.w3.org/1999/xlink">
<g id="graph0" class="graph" transform="scale(1 1) rotate(0) translate(50.4 341.4)">
<title>G</title>
<!-- db -->
<g id="node1" class="node">
<title>db</title>
<polygon fill="none" stroke="black" points="289,-291 140,-291 140,-255 289,-255 289,-291"/>
<text text-anchor="middle" x="214.5" y="-269.3" font-family="RocknRoll One" font-size="14.00">DBにアクセス</text>
</g>
<!-- get -->
<g id="node2" class="node">
<title>get</title>
<polygon fill="none" stroke="black" points="343.5,-218 85.5,-218 85.5,-182 343.5,-182 343.5,-218"/>
<text text-anchor="middle" x="214.5" y="-196.3" font-family="RocknRoll One" font-size="14.00">マップ上のピンの投稿数を取得</text>
</g>
<!-- db&#45;&gt;get -->
<g id="edge1" class="edge">
<title>db&#45;&gt;get</title>
<path fill="none" stroke="black" d="M214.5,-254.81C214.5,-246.79 214.5,-237.05 214.5,-228.07"/>
<polygon fill="black" stroke="black" points="218,-228.03 214.5,-218.03 211,-228.03 218,-228.03"/>
</g>
<!-- judge -->
<g id="node3" class="node">
<title>judge</title>
<polygon fill="none" stroke="black" points="214.5,-145 53.5,-116 214.5,-87 375.5,-116 214.5,-145"/>
<text text-anchor="middle" x="214.5" y="-112.3" font-family="RocknRoll One" font-size="14.00">投稿数が50以上</text>
</g>
<!-- get&#45;&gt;judge -->
<g id="edge2" class="edge">
<title>get&#45;&gt;judge</title>
<path fill="none" stroke="black" d="M214.5,-181.61C214.5,-173.89 214.5,-164.48 214.5,-155.25"/>
<polygon fill="black" stroke="black" points="218,-155.01 214.5,-145.01 211,-155.01 218,-155.01"/>
</g>
<!-- no -->
<g id="node4" class="node">
<title>no</title>
<polygon fill="none" stroke="black" points="215,-36 0,-36 0,0 215,0 215,-36"/>
<text text-anchor="middle" x="107.5" y="-14.3" font-family="RocknRoll One" font-size="14.00">ピンを通常サイズにする</text>
</g>
<!-- judge&#45;&gt;no -->
<g id="edge3" class="edge">
<title>judge&#45;&gt;no</title>
<path fill="none" stroke="black" d="M188.32,-91.52C171.95,-76.82 150.9,-57.94 134.39,-43.13"/>
<polygon fill="black" stroke="black" points="136.47,-40.29 126.69,-36.22 131.8,-45.5 136.47,-40.29"/>
<text text-anchor="middle" x="172.5" y="-57.8" font-family="RocknRoll One" font-size="14.00">NO</text>
</g>
<!-- yes -->
<g id="node5" class="node">
<title>yes</title>
<polygon fill="none" stroke="black" points="412,-36 233,-36 233,0 412,0 412,-36"/>
<text text-anchor="middle" x="322.5" y="-14.3" font-family="RocknRoll One" font-size="14.00">ピンを1.3倍にする</text>
</g>
<!-- judge&#45;&gt;yes -->
<g id="edge4" class="edge">
<title>judge&#45;&gt;yes</title>
<path fill="none" stroke="black" d="M240.92,-91.52C257.45,-76.82 278.69,-57.94 295.36,-43.13"/>
<polygon fill="black" stroke="black" points="297.98,-45.48 303.13,-36.22 293.33,-40.25 297.98,-45.48"/>
<text text-anchor="middle" x="292.5" y="-57.8" font-family="RocknRoll One" font-size="14.00">YES</text>
</g>
</g>
</svg>
