<?xml version="1.0" encoding="UTF-8" standalone="no"?>
<!DOCTYPE svg PUBLIC "-//W3C//DTD SVG 1.1//EN"
 "http://www.w3.org/Graphics/SVG/1.1/DTD/svg11.dtd">
<!-- Generated by graphviz version 2.43.0 (0)
 -->
<!-- Title: G Pages: 1 -->
<svg width="1112pt" height="1083pt"
 viewBox="0.00 0.00 267.00 260.00" xmlns="http://www.w3.org/2000/svg" xmlns:xlink="http://www.w3.org/1999/xlink">
<g id="graph0" class="graph" transform="scale(4.17 4.17) rotate(0) translate(4 256)">
<title>G</title>
<!-- serect -->
<g id="node1" class="node">
<title>serect</title>
<polygon fill="none" stroke="black" points="173.5,-252 85.5,-252 85.5,-216 173.5,-216 173.5,-252"/>
<text text-anchor="middle" x="129.5" y="-230.3" font-family="RocknRoll One" font-size="14.00">期間を選択</text>
</g>
<!-- db -->
<g id="node2" class="node">
<title>db</title>
<polygon fill="none" stroke="black" points="183,-180 76,-180 76,-144 183,-144 183,-180"/>
<text text-anchor="middle" x="129.5" y="-158.3" font-family="RocknRoll One" font-size="14.00">DBにアクセス</text>
</g>
<!-- serect&#45;&gt;db -->
<g id="edge1" class="edge">
<title>serect&#45;&gt;db</title>
<path fill="none" stroke="black" d="M129.5,-215.7C129.5,-207.98 129.5,-198.71 129.5,-190.11"/>
<polygon fill="black" stroke="black" points="133,-190.1 129.5,-180.1 126,-190.1 133,-190.1"/>
</g>
<!-- get -->
<g id="node3" class="node">
<title>get</title>
<polygon fill="none" stroke="black" points="187.5,-108 71.5,-108 71.5,-72 187.5,-72 187.5,-108"/>
<text text-anchor="middle" x="129.5" y="-86.3" font-family="RocknRoll One" font-size="14.00">選択された期間</text>
</g>
<!-- db&#45;&gt;get -->
<g id="edge2" class="edge">
<title>db&#45;&gt;get</title>
<path fill="none" stroke="black" d="M129.5,-143.7C129.5,-135.98 129.5,-126.71 129.5,-118.11"/>
<polygon fill="black" stroke="black" points="133,-118.1 129.5,-108.1 126,-118.1 133,-118.1"/>
</g>
<!-- output -->
<g id="node4" class="node">
<title>output</title>
<polygon fill="none" stroke="black" points="259,-36 0,-36 0,0 259,0 259,-36"/>
<text text-anchor="middle" x="129.5" y="-14.3" font-family="RocknRoll One" font-size="14.00">選択した期間の投稿とピンのみを表示</text>
</g>
<!-- get&#45;&gt;output -->
<g id="edge3" class="edge">
<title>get&#45;&gt;output</title>
<path fill="none" stroke="black" d="M129.5,-71.7C129.5,-63.98 129.5,-54.71 129.5,-46.11"/>
<polygon fill="black" stroke="black" points="133,-46.1 129.5,-36.1 126,-46.1 133,-46.1"/>
</g>
</g>
</svg>
