<?xml version="1.0" encoding="UTF-8" standalone="no"?>
<!DOCTYPE svg PUBLIC "-//W3C//DTD SVG 1.1//EN"
 "http://www.w3.org/Graphics/SVG/1.1/DTD/svg11.dtd">
<!-- Generated by graphviz version 2.43.0 (0)
 -->
<!-- Title: G Pages: 1 -->
<svg width="1229pt" height="1083pt"
 viewBox="0.00 0.00 295.00 260.00" xmlns="http://www.w3.org/2000/svg" xmlns:xlink="http://www.w3.org/1999/xlink">
<g id="graph0" class="graph" transform="scale(4.17 4.17) rotate(0) translate(4 256)">
<title>G</title>
<!-- serect -->
<g id="node1" class="node">
<title>serect</title>
<polygon fill="none" stroke="black" points="201.5,-252 85.5,-252 85.5,-216 201.5,-216 201.5,-252"/>
<text text-anchor="middle" x="143.5" y="-230.3" font-family="RocknRoll One" font-size="14.00">ジャンルを選択</text>
</g>
<!-- db -->
<g id="node2" class="node">
<title>db</title>
<polygon fill="none" stroke="black" points="197,-180 90,-180 90,-144 197,-144 197,-180"/>
<text text-anchor="middle" x="143.5" y="-158.3" font-family="RocknRoll One" font-size="14.00">DBにアクセス</text>
</g>
<!-- serect&#45;&gt;db -->
<g id="edge1" class="edge">
<title>serect&#45;&gt;db</title>
<path fill="none" stroke="black" d="M143.5,-215.7C143.5,-207.98 143.5,-198.71 143.5,-190.11"/>
<polygon fill="black" stroke="black" points="147,-190.1 143.5,-180.1 140,-190.1 147,-190.1"/>
</g>
<!-- get -->
<g id="node3" class="node">
<title>get</title>
<polygon fill="none" stroke="black" points="258.5,-108 28.5,-108 28.5,-72 258.5,-72 258.5,-108"/>
<text text-anchor="middle" x="143.5" y="-86.3" font-family="RocknRoll One" font-size="14.00">選択されたジャンルの投稿を取得</text>
</g>
<!-- db&#45;&gt;get -->
<g id="edge2" class="edge">
<title>db&#45;&gt;get</title>
<path fill="none" stroke="black" d="M143.5,-143.7C143.5,-135.98 143.5,-126.71 143.5,-118.11"/>
<polygon fill="black" stroke="black" points="147,-118.1 143.5,-108.1 140,-118.1 147,-118.1"/>
</g>
<!-- output -->
<g id="node4" class="node">
<title>output</title>
<polygon fill="none" stroke="black" points="287,-36 0,-36 0,0 287,0 287,-36"/>
<text text-anchor="middle" x="143.5" y="-14.3" font-family="RocknRoll One" font-size="14.00">選択したジャンルの投稿とピンのみを表示</text>
</g>
<!-- get&#45;&gt;output -->
<g id="edge3" class="edge">
<title>get&#45;&gt;output</title>
<path fill="none" stroke="black" d="M143.5,-71.7C143.5,-63.98 143.5,-54.71 143.5,-46.11"/>
<polygon fill="black" stroke="black" points="147,-46.1 143.5,-36.1 140,-46.1 147,-46.1"/>
</g>
</g>
</svg>
