<?xml version="1.0" encoding="UTF-8" standalone="no"?>
<!DOCTYPE svg PUBLIC "-//W3C//DTD SVG 1.1//EN"
 "http://www.w3.org/Graphics/SVG/1.1/DTD/svg11.dtd">
<!-- Generated by graphviz version 2.43.0 (0)
 -->
<!-- Title: G Pages: 1 -->
<svg width="873pt" height="355pt"
 viewBox="14.40 14.40 858.40 340.40" xmlns="http://www.w3.org/2000/svg" xmlns:xlink="http://www.w3.org/1999/xlink">
<g id="graph0" class="graph" transform="scale(1 1) rotate(0) translate(50.4 304.4)">
<title>G</title>
<!-- title -->
<g id="node1" class="node">
<title>title</title>
<polygon fill="none" stroke="black" points="201,-254 0,-225 201,-196 402,-225 201,-254"/>
<text text-anchor="middle" x="201" y="-221.3" font-family="RocknRoll One" font-size="14.00">件名が入力されている</text>
</g>
<!-- notitle -->
<g id="node2" class="node">
<title>notitle</title>
<polygon fill="none" stroke="black" points="265.5,-134 92.5,-134 92.5,-98 265.5,-98 265.5,-134"/>
<text text-anchor="middle" x="179" y="-112.3" font-family="RocknRoll One" font-size="14.00">メッセージを出力</text>
</g>
<!-- title&#45;&gt;notitle -->
<g id="edge1" class="edge">
<title>title&#45;&gt;notitle</title>
<path fill="none" stroke="black" d="M195.39,-196.72C192.07,-180.57 187.88,-160.18 184.57,-144.07"/>
<polygon fill="black" stroke="black" points="187.98,-143.27 182.53,-134.18 181.12,-144.68 187.98,-143.27"/>
<text text-anchor="middle" x="203" y="-166.8" font-family="RocknRoll One" font-size="14.00">NO</text>
</g>
<!-- message -->
<g id="node3" class="node">
<title>message</title>
<polygon fill="none" stroke="black" points="528,-145 284,-116 528,-87 772,-116 528,-145"/>
<text text-anchor="middle" x="528" y="-112.3" font-family="RocknRoll One" font-size="14.00">メッセージが入力されている</text>
</g>
<!-- title&#45;&gt;message -->
<g id="edge2" class="edge">
<title>title&#45;&gt;message</title>
<path fill="none" stroke="black" d="M260.6,-204.5C315.48,-186.54 397.03,-159.86 455.63,-140.68"/>
<polygon fill="black" stroke="black" points="456.78,-143.99 465.19,-137.55 454.6,-137.34 456.78,-143.99"/>
<text text-anchor="middle" x="397" y="-166.8" font-family="RocknRoll One" font-size="14.00">YES</text>
</g>
<!-- nomessage -->
<g id="node4" class="node">
<title>nomessage</title>
<polygon fill="none" stroke="black" points="512.5,-36 339.5,-36 339.5,0 512.5,0 512.5,-36"/>
<text text-anchor="middle" x="426" y="-14.3" font-family="RocknRoll One" font-size="14.00">メッセージを出力</text>
</g>
<!-- message&#45;&gt;nomessage -->
<g id="edge3" class="edge">
<title>message&#45;&gt;nomessage</title>
<path fill="none" stroke="black" d="M501.47,-90.03C486.19,-75.65 467.06,-57.65 451.89,-43.37"/>
<polygon fill="black" stroke="black" points="454.04,-40.59 444.36,-36.28 449.24,-45.68 454.04,-40.59"/>
<text text-anchor="middle" x="488" y="-57.8" font-family="RocknRoll One" font-size="14.00">NO</text>
</g>
<!-- move -->
<g id="node5" class="node">
<title>move</title>
<polygon fill="none" stroke="black" points="729.5,-36 530.5,-36 530.5,0 729.5,0 729.5,-36"/>
<text text-anchor="middle" x="630" y="-14.3" font-family="RocknRoll One" font-size="14.00">SubmitContactに移行</text>
</g>
<!-- message&#45;&gt;move -->
<g id="edge4" class="edge">
<title>message&#45;&gt;move</title>
<path fill="none" stroke="black" d="M554.53,-90.03C569.81,-75.65 588.94,-57.65 604.11,-43.37"/>
<polygon fill="black" stroke="black" points="606.76,-45.68 611.64,-36.28 601.96,-40.59 606.76,-45.68"/>
<text text-anchor="middle" x="603" y="-57.8" font-family="RocknRoll One" font-size="14.00">YES</text>
</g>
</g>
</svg>
