<?xml version="1.0" encoding="UTF-8" standalone="no"?>
<!DOCTYPE svg PUBLIC "-//W3C//DTD SVG 1.1//EN"
 "http://www.w3.org/Graphics/SVG/1.1/DTD/svg11.dtd">
<!-- Generated by graphviz version 2.43.0 (0)
 -->
<!-- Title: G Pages: 1 -->
<svg width="531pt" height="218pt"
 viewBox="0.00 0.00 530.82 218.00" xmlns="http://www.w3.org/2000/svg" xmlns:xlink="http://www.w3.org/1999/xlink">
<g id="graph0" class="graph" transform="scale(1 1) rotate(0) translate(4 214)">
<title>G</title>
<!-- title -->
<g id="node1" class="node">
<title>title</title>
<polygon fill="none" stroke="black" points="146.15,-210 -0.15,-192 146.15,-174 292.44,-192 146.15,-210"/>
<text text-anchor="middle" x="146.15" y="-188.3" font-family="RocknRoll One" font-size="14.00">件名が入力されている</text>
</g>
<!-- notitle -->
<g id="node2" class="node">
<title>notitle</title>
<polygon fill="none" stroke="black" points="133.65,-123 2.65,-123 2.65,-87 133.65,-87 133.65,-123"/>
<text text-anchor="middle" x="68.15" y="-101.3" font-family="RocknRoll One" font-size="14.00">メッセージを出力</text>
</g>
<!-- title&#45;&gt;notitle -->
<g id="edge1" class="edge">
<title>title&#45;&gt;notitle</title>
<path fill="none" stroke="black" d="M131.84,-175.41C120.41,-162.95 104.17,-145.26 90.96,-130.86"/>
<polygon fill="black" stroke="black" points="93.31,-128.25 83.97,-123.25 88.15,-132.98 93.31,-128.25"/>
<text text-anchor="middle" x="123.15" y="-144.8" font-family="RocknRoll One" font-size="14.00">NO</text>
</g>
<!-- message -->
<g id="node3" class="node">
<title>message</title>
<polygon fill="none" stroke="black" points="337.15,-123 151.31,-105 337.15,-87 522.99,-105 337.15,-123"/>
<text text-anchor="middle" x="337.15" y="-101.3" font-family="RocknRoll One" font-size="14.00">メッセージが入力されている</text>
</g>
<!-- title&#45;&gt;message -->
<g id="edge2" class="edge">
<title>title&#45;&gt;message</title>
<path fill="none" stroke="black" d="M176.41,-177.53C208.85,-163.09 260.54,-140.09 296.51,-124.08"/>
<polygon fill="black" stroke="black" points="298.04,-127.23 305.75,-119.97 295.19,-120.84 298.04,-127.23"/>
<text text-anchor="middle" x="264.15" y="-144.8" font-family="RocknRoll One" font-size="14.00">YES</text>
</g>
<!-- nomessage -->
<g id="node4" class="node">
<title>nomessage</title>
<polygon fill="none" stroke="black" points="321.65,-36 190.65,-36 190.65,0 321.65,0 321.65,-36"/>
<text text-anchor="middle" x="256.15" y="-14.3" font-family="RocknRoll One" font-size="14.00">メッセージを出力</text>
</g>
<!-- message&#45;&gt;nomessage -->
<g id="edge3" class="edge">
<title>message&#45;&gt;nomessage</title>
<path fill="none" stroke="black" d="M322.29,-88.41C310.42,-75.95 293.56,-58.26 279.83,-43.86"/>
<polygon fill="black" stroke="black" points="282.01,-41.07 272.58,-36.25 276.95,-45.9 282.01,-41.07"/>
<text text-anchor="middle" x="312.15" y="-57.8" font-family="RocknRoll One" font-size="14.00">NO</text>
</g>
<!-- move -->
<g id="node5" class="node">
<title>move</title>
<polygon fill="none" stroke="black" points="496.65,-36 339.65,-36 339.65,0 496.65,0 496.65,-36"/>
<text text-anchor="middle" x="418.15" y="-14.3" font-family="RocknRoll One" font-size="14.00">SubmitContactに移行</text>
</g>
<!-- message&#45;&gt;move -->
<g id="edge4" class="edge">
<title>message&#45;&gt;move</title>
<path fill="none" stroke="black" d="M352,-88.41C363.87,-75.95 380.73,-58.26 394.46,-43.86"/>
<polygon fill="black" stroke="black" points="397.35,-45.9 401.71,-36.25 392.28,-41.07 397.35,-45.9"/>
<text text-anchor="middle" x="394.15" y="-57.8" font-family="RocknRoll One" font-size="14.00">YES</text>
</g>
</g>
</svg>
