<?xml version="1.0" encoding="UTF-8" standalone="no"?>
<!DOCTYPE svg PUBLIC "-//W3C//DTD SVG 1.1//EN"
 "http://www.w3.org/Graphics/SVG/1.1/DTD/svg11.dtd">
<!-- Generated by graphviz version 2.43.0 (0)
 -->
<!-- Title: G Pages: 1 -->
<svg width="466pt" height="277pt"
 viewBox="0.00 0.00 465.50 277.00" xmlns="http://www.w3.org/2000/svg" xmlns:xlink="http://www.w3.org/1999/xlink">
<g id="graph0" class="graph" transform="scale(1 1) rotate(0) translate(4 273)">
<title>G</title>
<!-- screen -->
<g id="node1" class="node">
<title>screen</title>
<polygon fill="none" stroke="black" points="294.5,-269 149.5,-269 149.5,-233 294.5,-233 294.5,-269"/>
<text text-anchor="middle" x="222" y="-247.3" font-family="RocknRoll One" font-size="14.00">ログイン画面の表示</text>
</g>
<!-- check -->
<g id="node2" class="node">
<title>check</title>
<polygon fill="none" stroke="black" points="394,-196 50,-196 50,-160 394,-160 394,-196"/>
<text text-anchor="middle" x="222" y="-174.3" font-family="RocknRoll One" font-size="14.00">利用者規約のチェックボックスにチェックを入れる</text>
</g>
<!-- screen&#45;&gt;check -->
<g id="edge1" class="edge">
<title>screen&#45;&gt;check</title>
<path fill="none" stroke="black" d="M222,-232.81C222,-224.79 222,-215.05 222,-206.07"/>
<polygon fill="black" stroke="black" points="225.5,-206.03 222,-196.03 218.5,-206.03 225.5,-206.03"/>
</g>
<!-- select -->
<g id="node3" class="node">
<title>select</title>
<polygon fill="none" stroke="black" points="222,-123 32.81,-105 222,-87 411.19,-105 222,-123"/>
<text text-anchor="middle" x="222" y="-101.3" font-family="RocknRoll One" font-size="14.00">「Googleでログイン」を選択</text>
</g>
<!-- check&#45;&gt;select -->
<g id="edge2" class="edge">
<title>check&#45;&gt;select</title>
<path fill="none" stroke="black" d="M222,-159.81C222,-151.79 222,-142.05 222,-133.07"/>
<polygon fill="black" stroke="black" points="225.5,-133.03 222,-123.03 218.5,-133.03 225.5,-133.03"/>
</g>
<!-- user -->
<g id="node4" class="node">
<title>user</title>
<polygon fill="none" stroke="black" points="206,-36 0,-36 0,0 206,0 206,-36"/>
<text text-anchor="middle" x="103" y="-14.3" font-family="RocknRoll One" font-size="14.00">UserInputInformationに移行</text>
</g>
<!-- select&#45;&gt;user -->
<g id="edge3" class="edge">
<title>select&#45;&gt;user</title>
<path fill="none" stroke="black" d="M200.73,-88.8C182.51,-75.79 156.01,-56.86 135.2,-42"/>
<polygon fill="black" stroke="black" points="137.13,-39.07 126.95,-36.11 133.06,-44.77 137.13,-39.07"/>
<text text-anchor="middle" x="199" y="-57.8" font-family="RocknRoll One" font-size="14.00">一般会員</text>
</g>
<!-- business -->
<g id="node5" class="node">
<title>business</title>
<polygon fill="none" stroke="black" points="457.5,-36 224.5,-36 224.5,0 457.5,0 457.5,-36"/>
<text text-anchor="middle" x="341" y="-14.3" font-family="RocknRoll One" font-size="14.00">BusinessInputInformationに移行</text>
</g>
<!-- select&#45;&gt;business -->
<g id="edge4" class="edge">
<title>select&#45;&gt;business</title>
<path fill="none" stroke="black" d="M243.27,-88.8C261.49,-75.79 287.99,-56.86 308.8,-42"/>
<polygon fill="black" stroke="black" points="310.94,-44.77 317.05,-36.11 306.87,-39.07 310.94,-44.77"/>
<text text-anchor="middle" x="324" y="-57.8" font-family="RocknRoll One" font-size="14.00">事業者会員</text>
</g>
</g>
</svg>
