<?xml version="1.0" encoding="UTF-8" standalone="no"?>
<!DOCTYPE svg PUBLIC "-//W3C//DTD SVG 1.1//EN"
 "http://www.w3.org/Graphics/SVG/1.1/DTD/svg11.dtd">
<!-- Generated by graphviz version 2.43.0 (0)
 -->
<!-- Title: G Pages: 1 -->
<svg width="642pt" height="392pt"
 viewBox="14.40 14.40 627.90 377.40" xmlns="http://www.w3.org/2000/svg" xmlns:xlink="http://www.w3.org/1999/xlink">
<g id="graph0" class="graph" transform="scale(1 1) rotate(0) translate(50.4 341.4)">
<title>G</title>
<!-- screen -->
<g id="node1" class="node">
<title>screen</title>
<polygon fill="none" stroke="black" points="357.5,-291 170.5,-291 170.5,-255 357.5,-255 357.5,-291"/>
<text text-anchor="middle" x="264" y="-269.3" font-family="RocknRoll One" font-size="14.00">ログイン画面の表示</text>
</g>
<!-- check -->
<g id="node2" class="node">
<title>check</title>
<polygon fill="none" stroke="black" points="457,-218 71,-218 71,-182 457,-182 457,-218"/>
<text text-anchor="middle" x="264" y="-196.3" font-family="RocknRoll One" font-size="14.00">利用者規約のチェックボックスにチェックを入れる</text>
</g>
<!-- screen&#45;&gt;check -->
<g id="edge1" class="edge">
<title>screen&#45;&gt;check</title>
<path fill="none" stroke="black" d="M264,-254.81C264,-246.79 264,-237.05 264,-228.07"/>
<polygon fill="black" stroke="black" points="267.5,-228.03 264,-218.03 260.5,-228.03 267.5,-228.03"/>
</g>
<!-- select -->
<g id="node3" class="node">
<title>select</title>
<polygon fill="none" stroke="black" points="264,-145 16,-116 264,-87 512,-116 264,-145"/>
<text text-anchor="middle" x="264" y="-112.3" font-family="RocknRoll One" font-size="14.00">「Googleでログイン」を選択</text>
</g>
<!-- check&#45;&gt;select -->
<g id="edge2" class="edge">
<title>check&#45;&gt;select</title>
<path fill="none" stroke="black" d="M264,-181.61C264,-173.89 264,-164.48 264,-155.25"/>
<polygon fill="black" stroke="black" points="267.5,-155.01 264,-145.01 260.5,-155.01 267.5,-155.01"/>
</g>
<!-- user -->
<g id="node4" class="node">
<title>user</title>
<polygon fill="none" stroke="black" points="248,-36 0,-36 0,0 248,0 248,-36"/>
<text text-anchor="middle" x="124" y="-14.3" font-family="RocknRoll One" font-size="14.00">UserInputInformationに移行</text>
</g>
<!-- select&#45;&gt;user -->
<g id="edge3" class="edge">
<title>select&#45;&gt;user</title>
<path fill="none" stroke="black" d="M229.03,-91.02C207.11,-75.99 179.01,-56.72 157.39,-41.9"/>
<polygon fill="black" stroke="black" points="159.08,-38.81 148.86,-36.04 155.12,-44.59 159.08,-38.81"/>
<text text-anchor="middle" x="223" y="-57.8" font-family="RocknRoll One" font-size="14.00">一般会員</text>
</g>
<!-- business -->
<g id="node5" class="node">
<title>business</title>
<polygon fill="none" stroke="black" points="541.5,-36 266.5,-36 266.5,0 541.5,0 541.5,-36"/>
<text text-anchor="middle" x="404" y="-14.3" font-family="RocknRoll One" font-size="14.00">BusinessInputInformationに移行</text>
</g>
<!-- select&#45;&gt;business -->
<g id="edge4" class="edge">
<title>select&#45;&gt;business</title>
<path fill="none" stroke="black" d="M298.97,-91.02C320.89,-75.99 348.99,-56.72 370.61,-41.9"/>
<polygon fill="black" stroke="black" points="372.88,-44.59 379.14,-36.04 368.92,-38.81 372.88,-44.59"/>
<text text-anchor="middle" x="386" y="-57.8" font-family="RocknRoll One" font-size="14.00">事業者会員</text>
</g>
</g>
</svg>
