<?xml version="1.0" encoding="UTF-8" standalone="no"?>
<!DOCTYPE svg PUBLIC "-//W3C//DTD SVG 1.1//EN"
 "http://www.w3.org/Graphics/SVG/1.1/DTD/svg11.dtd">
<!-- Generated by graphviz version 2.43.0 (0)
 -->
<!-- Title: G Pages: 1 -->
<svg width="196pt" height="188pt"
 viewBox="0.00 0.00 196.00 188.00" xmlns="http://www.w3.org/2000/svg" xmlns:xlink="http://www.w3.org/1999/xlink">
<g id="graph0" class="graph" transform="scale(1 1) rotate(0) translate(4 184)">
<title>G</title>
<!-- screen -->
<g id="node1" class="node">
<title>screen</title>
<polygon fill="none" stroke="black" points="173.5,-180 14.5,-180 14.5,-144 173.5,-144 173.5,-180"/>
<text text-anchor="middle" x="94" y="-158.3" font-family="RocknRoll One" font-size="14.00">ログアウト画面の表示</text>
</g>
<!-- select -->
<g id="node2" class="node">
<title>select</title>
<polygon fill="none" stroke="black" points="188,-108 0,-108 0,-72 188,-72 188,-108"/>
<text text-anchor="middle" x="94" y="-86.3" font-family="RocknRoll One" font-size="14.00">「ログアウトする」を選択</text>
</g>
<!-- screen&#45;&gt;select -->
<g id="edge1" class="edge">
<title>screen&#45;&gt;select</title>
<path fill="none" stroke="black" d="M94,-143.7C94,-135.98 94,-126.71 94,-118.11"/>
<polygon fill="black" stroke="black" points="97.5,-118.1 94,-108.1 90.5,-118.1 97.5,-118.1"/>
</g>
<!-- move -->
<g id="node3" class="node">
<title>move</title>
<polygon fill="none" stroke="black" points="147,-36 41,-36 41,0 147,0 147,-36"/>
<text text-anchor="middle" x="94" y="-14.3" font-family="RocknRoll One" font-size="14.00">Logoutに移行</text>
</g>
<!-- select&#45;&gt;move -->
<g id="edge2" class="edge">
<title>select&#45;&gt;move</title>
<path fill="none" stroke="black" d="M94,-71.7C94,-63.98 94,-54.71 94,-46.11"/>
<polygon fill="black" stroke="black" points="97.5,-46.1 94,-36.1 90.5,-46.1 97.5,-46.1"/>
</g>
</g>
</svg>
