<?xml version="1.0" encoding="UTF-8" standalone="no"?>
<!DOCTYPE svg PUBLIC "-//W3C//DTD SVG 1.1//EN"
 "http://www.w3.org/Graphics/SVG/1.1/DTD/svg11.dtd">
<!-- Generated by graphviz version 2.43.0 (0)
 -->
<!-- Title: G Pages: 1 -->
<svg width="663pt" height="319pt"
 viewBox="14.40 14.40 648.40 304.40" xmlns="http://www.w3.org/2000/svg" xmlns:xlink="http://www.w3.org/1999/xlink">
<g id="graph0" class="graph" transform="scale(1 1) rotate(0) translate(50.4 268.4)">
<title>G</title>
<!-- branch -->
<g id="node1" class="node">
<title>branch</title>
<polygon fill="none" stroke="black" points="260.5,-218 110.5,-189 260.5,-160 410.5,-189 260.5,-218"/>
<text text-anchor="middle" x="260.5" y="-185.3" font-family="RocknRoll One" font-size="14.00">LogoutScreen</text>
</g>
<!-- no -->
<g id="node2" class="node">
<title>no</title>
<polygon fill="none" stroke="black" points="329,-109 0,-109 0,-73 329,-73 329,-109"/>
<text text-anchor="middle" x="164.5" y="-87.3" font-family="RocknRoll One" font-size="14.00">ログアウト画面へ遷移する前の画面へ遷移</text>
</g>
<!-- branch&#45;&gt;no -->
<g id="edge1" class="edge">
<title>branch&#45;&gt;no</title>
<path fill="none" stroke="black" d="M236.77,-164.27C222.21,-149.71 203.6,-131.1 188.91,-116.41"/>
<polygon fill="black" stroke="black" points="191.18,-113.73 181.63,-109.13 186.23,-118.68 191.18,-113.73"/>
<text text-anchor="middle" x="248.5" y="-130.8" font-family="RocknRoll One" font-size="14.00">キャンセル</text>
</g>
<!-- yes -->
<g id="node3" class="node">
<title>yes</title>
<polygon fill="none" stroke="black" points="562,-109 347,-109 347,-73 562,-73 562,-109"/>
<text text-anchor="middle" x="454.5" y="-87.3" font-family="RocknRoll One" font-size="14.00">セッション情報の無効化</text>
</g>
<!-- branch&#45;&gt;yes -->
<g id="edge2" class="edge">
<title>branch&#45;&gt;yes</title>
<path fill="none" stroke="black" d="M301.64,-167.64C333.63,-151.81 377.92,-129.9 410.59,-113.73"/>
<polygon fill="black" stroke="black" points="412.49,-116.69 419.9,-109.12 409.39,-110.42 412.49,-116.69"/>
<text text-anchor="middle" x="416.5" y="-130.8" font-family="RocknRoll One" font-size="14.00">ログアウト</text>
</g>
<!-- login -->
<g id="node4" class="node">
<title>login</title>
<polygon fill="none" stroke="black" points="546,-36 363,-36 363,0 546,0 546,-36"/>
<text text-anchor="middle" x="454.5" y="-14.3" font-family="RocknRoll One" font-size="14.00">LoginScreenに移行</text>
</g>
<!-- yes&#45;&gt;login -->
<g id="edge3" class="edge">
<title>yes&#45;&gt;login</title>
<path fill="none" stroke="black" d="M454.5,-72.81C454.5,-64.79 454.5,-55.05 454.5,-46.07"/>
<polygon fill="black" stroke="black" points="458,-46.03 454.5,-36.03 451,-46.03 458,-46.03"/>
</g>
</g>
</svg>
