<?xml version="1.0" encoding="UTF-8" standalone="no"?>
<!DOCTYPE svg PUBLIC "-//W3C//DTD SVG 1.1//EN"
 "http://www.w3.org/Graphics/SVG/1.1/DTD/svg11.dtd">
<!-- Generated by graphviz version 2.43.0 (0)
 -->
<!-- Title: G Pages: 1 -->
<svg width="486pt" height="204pt"
 viewBox="0.00 0.00 486.00 204.00" xmlns="http://www.w3.org/2000/svg" xmlns:xlink="http://www.w3.org/1999/xlink">
<g id="graph0" class="graph" transform="scale(1 1) rotate(0) translate(4 200)">
<title>G</title>
<!-- branch -->
<g id="node1" class="node">
<title>branch</title>
<polygon fill="none" stroke="black" points="215.5,-196 116.46,-178 215.5,-160 314.54,-178 215.5,-196"/>
<text text-anchor="middle" x="215.5" y="-174.3" font-family="RocknRoll One" font-size="14.00">LogoutScreen</text>
</g>
<!-- no -->
<g id="node2" class="node">
<title>no</title>
<polygon fill="none" stroke="black" points="287,-109 0,-109 0,-73 287,-73 287,-109"/>
<text text-anchor="middle" x="143.5" y="-87.3" font-family="RocknRoll One" font-size="14.00">ログアウト画面へ遷移する前の画面へ遷移</text>
</g>
<!-- branch&#45;&gt;no -->
<g id="edge1" class="edge">
<title>branch&#45;&gt;no</title>
<path fill="none" stroke="black" d="M202.96,-162.19C192.42,-149.75 177.13,-131.7 164.7,-117.02"/>
<polygon fill="black" stroke="black" points="167.26,-114.64 158.13,-109.27 161.92,-119.16 167.26,-114.64"/>
<text text-anchor="middle" x="193" y="-130.8" font-family="RocknRoll One" font-size="14.00">No</text>
</g>
<!-- yes -->
<g id="node3" class="node">
<title>yes</title>
<polygon fill="none" stroke="black" points="478,-109 305,-109 305,-73 478,-73 478,-109"/>
<text text-anchor="middle" x="391.5" y="-87.3" font-family="RocknRoll One" font-size="14.00">セッション情報の無効化</text>
</g>
<!-- branch&#45;&gt;yes -->
<g id="edge2" class="edge">
<title>branch&#45;&gt;yes</title>
<path fill="none" stroke="black" d="M241.09,-164.64C268.8,-151.26 313.53,-129.66 347.02,-113.48"/>
<polygon fill="black" stroke="black" points="348.66,-116.58 356.14,-109.08 345.61,-110.27 348.66,-116.58"/>
<text text-anchor="middle" x="325" y="-130.8" font-family="RocknRoll One" font-size="14.00">Yes</text>
</g>
<!-- login -->
<g id="node4" class="node">
<title>login</title>
<polygon fill="none" stroke="black" points="462,-36 321,-36 321,0 462,0 462,-36"/>
<text text-anchor="middle" x="391.5" y="-14.3" font-family="RocknRoll One" font-size="14.00">LoginScreenに移行</text>
</g>
<!-- yes&#45;&gt;login -->
<g id="edge3" class="edge">
<title>yes&#45;&gt;login</title>
<path fill="none" stroke="black" d="M391.5,-72.81C391.5,-64.79 391.5,-55.05 391.5,-46.07"/>
<polygon fill="black" stroke="black" points="395,-46.03 391.5,-36.03 388,-46.03 395,-46.03"/>
</g>
</g>
</svg>
