<?xml version="1.0" encoding="UTF-8" standalone="no"?>
<!DOCTYPE svg PUBLIC "-//W3C//DTD SVG 1.1//EN"
 "http://www.w3.org/Graphics/SVG/1.1/DTD/svg11.dtd">
<!-- Generated by graphviz version 2.43.0 (0)
 -->
<!-- Title: G Pages: 1 -->
<svg width="331pt" height="281pt"
 viewBox="14.40 14.40 316.40 266.40" xmlns="http://www.w3.org/2000/svg" xmlns:xlink="http://www.w3.org/1999/xlink">
<g id="graph0" class="graph" transform="scale(1 1) rotate(0) translate(50.4 230.4)">
<title>G</title>
<!-- screen -->
<g id="node1" class="node">
<title>screen</title>
<polygon fill="none" stroke="black" points="215.5,-180 14.5,-180 14.5,-144 215.5,-144 215.5,-180"/>
<text text-anchor="middle" x="115" y="-158.3" font-family="RocknRoll One" font-size="14.00">ログアウト画面の表示</text>
</g>
<!-- select -->
<g id="node2" class="node">
<title>select</title>
<polygon fill="none" stroke="black" points="230,-108 0,-108 0,-72 230,-72 230,-108"/>
<text text-anchor="middle" x="115" y="-86.3" font-family="RocknRoll One" font-size="14.00">「ログアウトする」を選択</text>
</g>
<!-- screen&#45;&gt;select -->
<g id="edge1" class="edge">
<title>screen&#45;&gt;select</title>
<path fill="none" stroke="black" d="M115,-143.7C115,-135.98 115,-126.71 115,-118.11"/>
<polygon fill="black" stroke="black" points="118.5,-118.1 115,-108.1 111.5,-118.1 118.5,-118.1"/>
</g>
<!-- move -->
<g id="node3" class="node">
<title>move</title>
<polygon fill="none" stroke="black" points="189,-36 41,-36 41,0 189,0 189,-36"/>
<text text-anchor="middle" x="115" y="-14.3" font-family="RocknRoll One" font-size="14.00">Logoutに移行</text>
</g>
<!-- select&#45;&gt;move -->
<g id="edge2" class="edge">
<title>select&#45;&gt;move</title>
<path fill="none" stroke="black" d="M115,-71.7C115,-63.98 115,-54.71 115,-46.11"/>
<polygon fill="black" stroke="black" points="118.5,-46.1 115,-36.1 111.5,-46.1 118.5,-46.1"/>
</g>
</g>
</svg>
