<?xml version="1.0" encoding="UTF-8" standalone="no"?>
<!DOCTYPE svg PUBLIC "-//W3C//DTD SVG 1.1//EN"
 "http://www.w3.org/Graphics/SVG/1.1/DTD/svg11.dtd">
<!-- Generated by graphviz version 2.43.0 (0)
 -->
<!-- Title: G Pages: 1 -->
<svg width="663pt" height="319pt"
 viewBox="14.40 14.40 648.40 304.40" xmlns="http://www.w3.org/2000/svg" xmlns:xlink="http://www.w3.org/1999/xlink">
<g id="graph0" class="graph" transform="scale(1 1) rotate(0) translate(50.4 268.4)">
<title>G</title>
<!-- branch -->
<g id="node1" class="node">
<title>branch</title>
<polygon fill="none" stroke="black" points="247.5,-218 97.5,-189 247.5,-160 397.5,-189 247.5,-218"/>
<text text-anchor="middle" x="247.5" y="-185.3" font-family="RocknRoll One" font-size="14.00">LogoutScreen</text>
</g>
<!-- no -->
<g id="node2" class="node">
<title>no</title>
<polygon fill="none" stroke="black" points="329,-109 0,-109 0,-73 329,-73 329,-109"/>
<text text-anchor="middle" x="164.5" y="-87.3" font-family="RocknRoll One" font-size="14.00">ログアウト画面へ遷移する前の画面へ遷移</text>
</g>
<!-- branch&#45;&gt;no -->
<g id="edge1" class="edge">
<title>branch&#45;&gt;no</title>
<path fill="none" stroke="black" d="M226.56,-163.78C214.16,-149.43 198.48,-131.3 185.99,-116.85"/>
<polygon fill="black" stroke="black" points="188.6,-114.53 179.42,-109.25 183.31,-119.11 188.6,-114.53"/>
<text text-anchor="middle" x="215" y="-130.8" font-family="RocknRoll One" font-size="14.00">No</text>
</g>
<!-- yes -->
<g id="node3" class="node">
<title>yes</title>
<polygon fill="none" stroke="black" points="562,-109 347,-109 347,-73 562,-73 562,-109"/>
<text text-anchor="middle" x="454.5" y="-87.3" font-family="RocknRoll One" font-size="14.00">セッション情報の無効化</text>
</g>
<!-- branch&#45;&gt;yes -->
<g id="edge2" class="edge">
<title>branch&#45;&gt;yes</title>
<path fill="none" stroke="black" d="M290.14,-168.23C324.69,-152.2 373.27,-129.67 408.65,-113.26"/>
<polygon fill="black" stroke="black" points="410.2,-116.4 417.8,-109.02 407.26,-110.05 410.2,-116.4"/>
<text text-anchor="middle" x="387" y="-130.8" font-family="RocknRoll One" font-size="14.00">Yes</text>
</g>
<!-- login -->
<g id="node4" class="node">
<title>login</title>
<polygon fill="none" stroke="black" points="546,-36 363,-36 363,0 546,0 546,-36"/>
<text text-anchor="middle" x="454.5" y="-14.3" font-family="RocknRoll One" font-size="14.00">LoginScreenに移行</text>
</g>
<!-- yes&#45;&gt;login -->
<g id="edge3" class="edge">
<title>yes&#45;&gt;login</title>
<path fill="none" stroke="black" d="M454.5,-72.81C454.5,-64.79 454.5,-55.05 454.5,-46.07"/>
<polygon fill="black" stroke="black" points="458,-46.03 454.5,-36.03 451,-46.03 458,-46.03"/>
</g>
</g>
</svg>
