<?xml version="1.0" encoding="UTF-8" standalone="no"?>
<!DOCTYPE svg PUBLIC "-//W3C//DTD SVG 1.1//EN"
 "http://www.w3.org/Graphics/SVG/1.1/DTD/svg11.dtd">
<!-- Generated by graphviz version 2.43.0 (0)
 -->
<!-- Title: G Pages: 1 -->
<svg width="899pt" height="485pt"
 viewBox="14.40 14.40 884.40 470.40" xmlns="http://www.w3.org/2000/svg" xmlns:xlink="http://www.w3.org/1999/xlink">
<g id="graph0" class="graph" transform="scale(1 1) rotate(0) translate(50.4 434.4)">
<title>G</title>
<!-- title -->
<g id="node1" class="node">
<title>title</title>
<polygon fill="none" stroke="black" points="263.5,-384 33.5,-384 33.5,-348 263.5,-348 263.5,-384"/>
<text text-anchor="middle" x="148.5" y="-362.3" font-family="RocknRoll One" font-size="14.00">タイトルを入力されている</text>
</g>
<!-- notitle -->
<g id="node2" class="node">
<title>notitle</title>
<polygon fill="none" stroke="black" points="173,-297 0,-297 0,-261 173,-261 173,-297"/>
<text text-anchor="middle" x="86.5" y="-275.3" font-family="RocknRoll One" font-size="14.00">メッセージを出力</text>
</g>
<!-- title&#45;&gt;notitle -->
<g id="edge1" class="edge">
<title>title&#45;&gt;notitle</title>
<path fill="none" stroke="black" d="M135.95,-347.8C127.05,-335.59 114.94,-318.99 104.94,-305.28"/>
<polygon fill="black" stroke="black" points="107.75,-303.19 99.03,-297.18 102.09,-307.32 107.75,-303.19"/>
<text text-anchor="middle" x="132.5" y="-318.8" font-family="RocknRoll One" font-size="14.00">NO</text>
</g>
<!-- content -->
<g id="node3" class="node">
<title>content</title>
<polygon fill="none" stroke="black" points="392,-297 191,-297 191,-261 392,-261 392,-297"/>
<text text-anchor="middle" x="291.5" y="-275.3" font-family="RocknRoll One" font-size="14.00">説明が入力されている</text>
</g>
<!-- title&#45;&gt;content -->
<g id="edge2" class="edge">
<title>title&#45;&gt;content</title>
<path fill="none" stroke="black" d="M177.44,-347.8C199.44,-334.72 229.89,-316.62 253.79,-302.41"/>
<polygon fill="black" stroke="black" points="255.8,-305.29 262.6,-297.18 252.22,-299.28 255.8,-305.29"/>
<text text-anchor="middle" x="241.5" y="-318.8" font-family="RocknRoll One" font-size="14.00">YES</text>
</g>
<!-- nocontent -->
<g id="node4" class="node">
<title>nocontent</title>
<polygon fill="none" stroke="black" points="315,-210 142,-210 142,-174 315,-174 315,-210"/>
<text text-anchor="middle" x="228.5" y="-188.3" font-family="RocknRoll One" font-size="14.00">メッセージを出力</text>
</g>
<!-- content&#45;&gt;nocontent -->
<g id="edge3" class="edge">
<title>content&#45;&gt;nocontent</title>
<path fill="none" stroke="black" d="M278.75,-260.8C269.7,-248.59 257.4,-231.99 247.24,-218.28"/>
<polygon fill="black" stroke="black" points="250,-216.13 241.23,-210.18 244.37,-220.29 250,-216.13"/>
<text text-anchor="middle" x="275.5" y="-231.8" font-family="RocknRoll One" font-size="14.00">NO</text>
</g>
<!-- latitude -->
<g id="node5" class="node">
<title>latitude</title>
<polygon fill="none" stroke="black" points="534,-210 333,-210 333,-174 534,-174 534,-210"/>
<text text-anchor="middle" x="433.5" y="-188.3" font-family="RocknRoll One" font-size="14.00">緯度が入力されている</text>
</g>
<!-- content&#45;&gt;latitude -->
<g id="edge4" class="edge">
<title>content&#45;&gt;latitude</title>
<path fill="none" stroke="black" d="M320.24,-260.8C342.08,-247.72 372.32,-229.62 396.06,-215.41"/>
<polygon fill="black" stroke="black" points="398.02,-218.31 404.81,-210.18 394.43,-212.31 398.02,-218.31"/>
<text text-anchor="middle" x="383.5" y="-231.8" font-family="RocknRoll One" font-size="14.00">YES</text>
</g>
<!-- nolatitude -->
<g id="node6" class="node">
<title>nolatitude</title>
<polygon fill="none" stroke="black" points="457,-123 284,-123 284,-87 457,-87 457,-123"/>
<text text-anchor="middle" x="370.5" y="-101.3" font-family="RocknRoll One" font-size="14.00">メッセージを出力</text>
</g>
<!-- latitude&#45;&gt;nolatitude -->
<g id="edge5" class="edge">
<title>latitude&#45;&gt;nolatitude</title>
<path fill="none" stroke="black" d="M420.75,-173.8C411.7,-161.59 399.4,-144.99 389.24,-131.28"/>
<polygon fill="black" stroke="black" points="392,-129.13 383.23,-123.18 386.37,-133.29 392,-129.13"/>
<text text-anchor="middle" x="417.5" y="-144.8" font-family="RocknRoll One" font-size="14.00">NO</text>
</g>
<!-- longitude -->
<g id="node7" class="node">
<title>longitude</title>
<polygon fill="none" stroke="black" points="676,-123 475,-123 475,-87 676,-87 676,-123"/>
<text text-anchor="middle" x="575.5" y="-101.3" font-family="RocknRoll One" font-size="14.00">経度が入力されている</text>
</g>
<!-- latitude&#45;&gt;longitude -->
<g id="edge6" class="edge">
<title>latitude&#45;&gt;longitude</title>
<path fill="none" stroke="black" d="M462.24,-173.8C484.08,-160.72 514.32,-142.62 538.06,-128.41"/>
<polygon fill="black" stroke="black" points="540.02,-131.31 546.81,-123.18 536.43,-125.31 540.02,-131.31"/>
<text text-anchor="middle" x="524.5" y="-144.8" font-family="RocknRoll One" font-size="14.00">YES</text>
</g>
<!-- nolongitude -->
<g id="node8" class="node">
<title>nolongitude</title>
<polygon fill="none" stroke="black" points="553,-36 380,-36 380,0 553,0 553,-36"/>
<text text-anchor="middle" x="466.5" y="-14.3" font-family="RocknRoll One" font-size="14.00">メッセージを出力</text>
</g>
<!-- longitude&#45;&gt;nolongitude -->
<g id="edge7" class="edge">
<title>longitude&#45;&gt;nolongitude</title>
<path fill="none" stroke="black" d="M553.44,-86.8C537.04,-74.01 514.48,-56.42 496.45,-42.36"/>
<polygon fill="black" stroke="black" points="498.56,-39.56 488.52,-36.18 494.26,-45.08 498.56,-39.56"/>
<text text-anchor="middle" x="538.5" y="-57.8" font-family="RocknRoll One" font-size="14.00">NO</text>
</g>
<!-- move -->
<g id="node9" class="node">
<title>move</title>
<polygon fill="none" stroke="black" points="798,-36 571,-36 571,0 798,0 798,-36"/>
<text text-anchor="middle" x="684.5" y="-14.3" font-family="RocknRoll One" font-size="14.00">GetPostTimestampに移行</text>
</g>
<!-- longitude&#45;&gt;move -->
<g id="edge8" class="edge">
<title>longitude&#45;&gt;move</title>
<path fill="none" stroke="black" d="M597.56,-86.8C613.96,-74.01 636.52,-56.42 654.55,-42.36"/>
<polygon fill="black" stroke="black" points="656.74,-45.08 662.48,-36.18 652.44,-39.56 656.74,-45.08"/>
<text text-anchor="middle" x="648.5" y="-57.8" font-family="RocknRoll One" font-size="14.00">YES</text>
</g>
</g>
</svg>
