<?xml version="1.0" encoding="UTF-8" standalone="no"?>
<!DOCTYPE svg PUBLIC "-//W3C//DTD SVG 1.1//EN"
 "http://www.w3.org/Graphics/SVG/1.1/DTD/svg11.dtd">
<!-- Generated by graphviz version 2.43.0 (0)
 -->
<!-- Title: G Pages: 1 -->
<svg width="576pt" height="392pt"
 viewBox="0.00 0.00 576.00 392.00" xmlns="http://www.w3.org/2000/svg" xmlns:xlink="http://www.w3.org/1999/xlink">
<g id="graph0" class="graph" transform="scale(1 1) rotate(0) translate(4 388)">
<title>G</title>
<!-- title -->
<g id="node1" class="node">
<title>title</title>
<polygon fill="none" stroke="black" points="211.5,-384 23.5,-384 23.5,-348 211.5,-348 211.5,-384"/>
<text text-anchor="middle" x="117.5" y="-362.3" font-family="RocknRoll One" font-size="14.00">タイトルを入力されている</text>
</g>
<!-- notitle -->
<g id="node2" class="node">
<title>notitle</title>
<polygon fill="none" stroke="black" points="131,-297 0,-297 0,-261 131,-261 131,-297"/>
<text text-anchor="middle" x="65.5" y="-275.3" font-family="RocknRoll One" font-size="14.00">メッセージを出力</text>
</g>
<!-- title&#45;&gt;notitle -->
<g id="edge1" class="edge">
<title>title&#45;&gt;notitle</title>
<path fill="none" stroke="black" d="M106.98,-347.8C99.65,-335.82 89.74,-319.62 81.44,-306.06"/>
<polygon fill="black" stroke="black" points="84.21,-303.88 76.01,-297.18 78.24,-307.53 84.21,-303.88"/>
<text text-anchor="middle" x="106.5" y="-318.8" font-family="RocknRoll One" font-size="14.00">NO</text>
</g>
<!-- content -->
<g id="node3" class="node">
<title>content</title>
<polygon fill="none" stroke="black" points="308,-297 149,-297 149,-261 308,-261 308,-297"/>
<text text-anchor="middle" x="228.5" y="-275.3" font-family="RocknRoll One" font-size="14.00">説明が入力されている</text>
</g>
<!-- title&#45;&gt;content -->
<g id="edge2" class="edge">
<title>title&#45;&gt;content</title>
<path fill="none" stroke="black" d="M139.96,-347.8C156.66,-335.01 179.64,-317.42 198,-303.36"/>
<polygon fill="black" stroke="black" points="200.26,-306.03 206.07,-297.18 196,-300.48 200.26,-306.03"/>
<text text-anchor="middle" x="192.5" y="-318.8" font-family="RocknRoll One" font-size="14.00">YES</text>
</g>
<!-- nocontent -->
<g id="node4" class="node">
<title>nocontent</title>
<polygon fill="none" stroke="black" points="242,-210 111,-210 111,-174 242,-174 242,-210"/>
<text text-anchor="middle" x="176.5" y="-188.3" font-family="RocknRoll One" font-size="14.00">メッセージを出力</text>
</g>
<!-- content&#45;&gt;nocontent -->
<g id="edge3" class="edge">
<title>content&#45;&gt;nocontent</title>
<path fill="none" stroke="black" d="M217.98,-260.8C210.65,-248.82 200.74,-232.62 192.44,-219.06"/>
<polygon fill="black" stroke="black" points="195.21,-216.88 187.01,-210.18 189.24,-220.53 195.21,-216.88"/>
<text text-anchor="middle" x="217.5" y="-231.8" font-family="RocknRoll One" font-size="14.00">NO</text>
</g>
<!-- latitude -->
<g id="node5" class="node">
<title>latitude</title>
<polygon fill="none" stroke="black" points="419,-210 260,-210 260,-174 419,-174 419,-210"/>
<text text-anchor="middle" x="339.5" y="-188.3" font-family="RocknRoll One" font-size="14.00">緯度が入力されている</text>
</g>
<!-- content&#45;&gt;latitude -->
<g id="edge4" class="edge">
<title>content&#45;&gt;latitude</title>
<path fill="none" stroke="black" d="M250.96,-260.8C267.66,-248.01 290.64,-230.42 309,-216.36"/>
<polygon fill="black" stroke="black" points="311.26,-219.03 317.07,-210.18 307,-213.48 311.26,-219.03"/>
<text text-anchor="middle" x="303.5" y="-231.8" font-family="RocknRoll One" font-size="14.00">YES</text>
</g>
<!-- nolatitude -->
<g id="node6" class="node">
<title>nolatitude</title>
<polygon fill="none" stroke="black" points="242,-123 111,-123 111,-87 242,-87 242,-123"/>
<text text-anchor="middle" x="176.5" y="-101.3" font-family="RocknRoll One" font-size="14.00">メッセージを出力</text>
</g>
<!-- latitude&#45;&gt;nolatitude -->
<g id="edge5" class="edge">
<title>latitude&#45;&gt;nolatitude</title>
<path fill="none" stroke="black" d="M306.51,-173.8C281.02,-160.51 245.58,-142.02 218.13,-127.71"/>
<polygon fill="black" stroke="black" points="219.64,-124.55 209.16,-123.03 216.41,-130.76 219.64,-124.55"/>
<text text-anchor="middle" x="279.5" y="-144.8" font-family="RocknRoll One" font-size="14.00">NO</text>
</g>
<!-- longitude -->
<g id="node7" class="node">
<title>longitude</title>
<polygon fill="none" stroke="black" points="419,-123 260,-123 260,-87 419,-87 419,-123"/>
<text text-anchor="middle" x="339.5" y="-101.3" font-family="RocknRoll One" font-size="14.00">経度が入力されている</text>
</g>
<!-- latitude&#45;&gt;longitude -->
<g id="edge6" class="edge">
<title>latitude&#45;&gt;longitude</title>
<path fill="none" stroke="black" d="M339.5,-173.8C339.5,-162.16 339.5,-146.55 339.5,-133.24"/>
<polygon fill="black" stroke="black" points="343,-133.18 339.5,-123.18 336,-133.18 343,-133.18"/>
<text text-anchor="middle" x="351.5" y="-144.8" font-family="RocknRoll One" font-size="14.00">YES</text>
</g>
<!-- nolongitude -->
<g id="node8" class="node">
<title>nolongitude</title>
<polygon fill="none" stroke="black" points="568,-123 437,-123 437,-87 568,-87 568,-123"/>
<text text-anchor="middle" x="502.5" y="-101.3" font-family="RocknRoll One" font-size="14.00">メッセージを出力</text>
</g>
<!-- latitude&#45;&gt;nolongitude -->
<g id="edge7" class="edge">
<title>latitude&#45;&gt;nolongitude</title>
<path fill="none" stroke="black" d="M372.49,-173.8C397.98,-160.51 433.42,-142.02 460.87,-127.71"/>
<polygon fill="black" stroke="black" points="462.59,-130.76 469.84,-123.03 459.36,-124.55 462.59,-130.76"/>
<text text-anchor="middle" x="442.5" y="-144.8" font-family="RocknRoll One" font-size="14.00">NO</text>
</g>
<!-- move -->
<g id="node9" class="node">
<title>move</title>
<polygon fill="none" stroke="black" points="432,-36 247,-36 247,0 432,0 432,-36"/>
<text text-anchor="middle" x="339.5" y="-14.3" font-family="RocknRoll One" font-size="14.00">GetPostTimestampに移行</text>
</g>
<!-- longitude&#45;&gt;move -->
<g id="edge8" class="edge">
<title>longitude&#45;&gt;move</title>
<path fill="none" stroke="black" d="M339.5,-86.8C339.5,-75.16 339.5,-59.55 339.5,-46.24"/>
<polygon fill="black" stroke="black" points="343,-46.18 339.5,-36.18 336,-46.18 343,-46.18"/>
<text text-anchor="middle" x="351.5" y="-57.8" font-family="RocknRoll One" font-size="14.00">YES</text>
</g>
</g>
</svg>
