<?xml version="1.0" encoding="UTF-8" standalone="no"?>
<!DOCTYPE svg PUBLIC "-//W3C//DTD SVG 1.1//EN"
 "http://www.w3.org/Graphics/SVG/1.1/DTD/svg11.dtd">
<!-- Generated by graphviz version 2.43.0 (0)
 -->
<!-- Title: G Pages: 1 -->
<svg width="485pt" height="246pt"
 viewBox="14.40 14.40 470.40 231.40" xmlns="http://www.w3.org/2000/svg" xmlns:xlink="http://www.w3.org/1999/xlink">
<g id="graph0" class="graph" transform="scale(1 1) rotate(0) translate(50.4 195.4)">
<title>G</title>
<!-- check -->
<g id="node1" class="node">
<title>check</title>
<polygon fill="none" stroke="black" points="196.5,-145 9.5,-116 196.5,-87 383.5,-116 196.5,-145"/>
<text text-anchor="middle" x="196.5" y="-112.3" font-family="RocknRoll One" font-size="14.00">通報理由が空でない</text>
</g>
<!-- yes -->
<g id="node2" class="node">
<title>yes</title>
<polygon fill="none" stroke="black" points="193,-36 0,-36 0,0 193,0 193,-36"/>
<text text-anchor="middle" x="96.5" y="-14.3" font-family="RocknRoll One" font-size="14.00">SubmitReportに移行</text>
</g>
<!-- check&#45;&gt;yes -->
<g id="edge1" class="edge">
<title>check&#45;&gt;yes</title>
<path fill="none" stroke="black" d="M171.27,-90.78C156.19,-76.3 137.09,-57.97 121.97,-43.45"/>
<polygon fill="black" stroke="black" points="124.11,-40.65 114.47,-36.25 119.26,-45.7 124.11,-40.65"/>
<text text-anchor="middle" x="158.5" y="-57.8" font-family="RocknRoll One" font-size="14.00">YES</text>
</g>
<!-- no -->
<g id="node3" class="node">
<title>no</title>
<polygon fill="none" stroke="black" points="384,-36 211,-36 211,0 384,0 384,-36"/>
<text text-anchor="middle" x="297.5" y="-14.3" font-family="RocknRoll One" font-size="14.00">メッセージを出力</text>
</g>
<!-- check&#45;&gt;no -->
<g id="edge2" class="edge">
<title>check&#45;&gt;no</title>
<path fill="none" stroke="black" d="M221.99,-90.78C237.21,-76.3 256.5,-57.97 271.77,-43.45"/>
<polygon fill="black" stroke="black" points="274.51,-45.68 279.35,-36.25 269.69,-40.61 274.51,-45.68"/>
<text text-anchor="middle" x="269.5" y="-57.8" font-family="RocknRoll One" font-size="14.00">NO</text>
</g>
</g>
</svg>
