<?xml version="1.0" encoding="UTF-8" standalone="no"?>
<!DOCTYPE svg PUBLIC "-//W3C//DTD SVG 1.1//EN"
 "http://www.w3.org/Graphics/SVG/1.1/DTD/svg11.dtd">
<!-- Generated by graphviz version 2.43.0 (0)
 -->
<!-- Title: G Pages: 1 -->
<svg width="308pt" height="131pt"
 viewBox="0.00 0.00 308.00 131.00" xmlns="http://www.w3.org/2000/svg" xmlns:xlink="http://www.w3.org/1999/xlink">
<g id="graph0" class="graph" transform="scale(1 1) rotate(0) translate(4 127)">
<title>G</title>
<!-- check -->
<g id="node1" class="node">
<title>check</title>
<polygon fill="none" stroke="black" points="154.5,-123 21.44,-105 154.5,-87 287.56,-105 154.5,-123"/>
<text text-anchor="middle" x="154.5" y="-101.3" font-family="RocknRoll One" font-size="14.00">通報理由が空でない</text>
</g>
<!-- yes -->
<g id="node2" class="node">
<title>yes</title>
<polygon fill="none" stroke="black" points="151,-36 0,-36 0,0 151,0 151,-36"/>
<text text-anchor="middle" x="75.5" y="-14.3" font-family="RocknRoll One" font-size="14.00">SubmitReportに移行</text>
</g>
<!-- check&#45;&gt;yes -->
<g id="edge1" class="edge">
<title>check&#45;&gt;yes</title>
<path fill="none" stroke="black" d="M140.38,-88.8C128.77,-76.31 112.09,-58.37 98.55,-43.8"/>
<polygon fill="black" stroke="black" points="100.77,-41.05 91.4,-36.11 95.65,-45.82 100.77,-41.05"/>
<text text-anchor="middle" x="132.5" y="-57.8" font-family="RocknRoll One" font-size="14.00">YES</text>
</g>
<!-- no -->
<g id="node3" class="node">
<title>no</title>
<polygon fill="none" stroke="black" points="300,-36 169,-36 169,0 300,0 300,-36"/>
<text text-anchor="middle" x="234.5" y="-14.3" font-family="RocknRoll One" font-size="14.00">メッセージを出力</text>
</g>
<!-- check&#45;&gt;no -->
<g id="edge2" class="edge">
<title>check&#45;&gt;no</title>
<path fill="none" stroke="black" d="M168.8,-88.8C180.67,-76.2 197.76,-58.03 211.54,-43.4"/>
<polygon fill="black" stroke="black" points="214.09,-45.79 218.4,-36.11 208.99,-40.99 214.09,-45.79"/>
<text text-anchor="middle" x="209.5" y="-57.8" font-family="RocknRoll One" font-size="14.00">NO</text>
</g>
</g>
</svg>
