<?xml version="1.0" encoding="UTF-8" standalone="no"?>
<!DOCTYPE svg PUBLIC "-//W3C//DTD SVG 1.1//EN"
 "http://www.w3.org/Graphics/SVG/1.1/DTD/svg11.dtd">
<!-- Generated by graphviz version 2.43.0 (0)
 -->
<!-- Title: G Pages: 1 -->
<svg width="418pt" height="204pt"
 viewBox="0.00 0.00 418.00 204.00" xmlns="http://www.w3.org/2000/svg" xmlns:xlink="http://www.w3.org/1999/xlink">
<g id="graph0" class="graph" transform="scale(1 1) rotate(0) translate(4 200)">
<title>G</title>
<!-- select -->
<g id="node1" class="node">
<title>select</title>
<polygon fill="none" stroke="black" points="275,-196 130,-196 130,-160 275,-160 275,-196"/>
<text text-anchor="middle" x="202.5" y="-174.3" font-family="RocknRoll One" font-size="14.00">ゴミ箱マークを選択</text>
</g>
<!-- delete -->
<g id="node2" class="node">
<title>delete</title>
<polygon fill="none" stroke="black" points="202.5,-123 69.44,-105 202.5,-87 335.56,-105 202.5,-123"/>
<text text-anchor="middle" x="202.5" y="-101.3" font-family="RocknRoll One" font-size="14.00">削除確認画面を表示</text>
</g>
<!-- select&#45;&gt;delete -->
<g id="edge1" class="edge">
<title>select&#45;&gt;delete</title>
<path fill="none" stroke="black" d="M202.5,-159.81C202.5,-151.79 202.5,-142.05 202.5,-133.07"/>
<polygon fill="black" stroke="black" points="206,-133.03 202.5,-123.03 199,-133.03 206,-133.03"/>
</g>
<!-- no -->
<g id="node3" class="node">
<title>no</title>
<polygon fill="none" stroke="black" points="191,-36 0,-36 0,0 191,0 191,-36"/>
<text text-anchor="middle" x="95.5" y="-14.3" font-family="RocknRoll One" font-size="14.00">UserDisplayMyPageに移行</text>
</g>
<!-- delete&#45;&gt;no -->
<g id="edge2" class="edge">
<title>delete&#45;&gt;no</title>
<path fill="none" stroke="black" d="M183.86,-89.19C167.69,-76.35 144,-57.53 125.22,-42.61"/>
<polygon fill="black" stroke="black" points="127.25,-39.75 117.24,-36.27 122.89,-45.23 127.25,-39.75"/>
<text text-anchor="middle" x="191.5" y="-57.8" font-family="RocknRoll One" font-size="14.00">キャンセル</text>
</g>
<!-- yes -->
<g id="node4" class="node">
<title>yes</title>
<polygon fill="none" stroke="black" points="410,-36 209,-36 209,0 410,0 410,-36"/>
<text text-anchor="middle" x="309.5" y="-14.3" font-family="RocknRoll One" font-size="14.00">AnonymizePostDetailに移行</text>
</g>
<!-- delete&#45;&gt;yes -->
<g id="edge3" class="edge">
<title>delete&#45;&gt;yes</title>
<path fill="none" stroke="black" d="M221.14,-89.19C237.31,-76.35 261,-57.53 279.78,-42.61"/>
<polygon fill="black" stroke="black" points="282.11,-45.23 287.76,-36.27 277.75,-39.75 282.11,-45.23"/>
<text text-anchor="middle" x="272" y="-57.8" font-family="RocknRoll One" font-size="14.00">OK</text>
</g>
</g>
</svg>
