<?xml version="1.0" encoding="UTF-8" standalone="no"?>
<!DOCTYPE svg PUBLIC "-//W3C//DTD SVG 1.1//EN"
 "http://www.w3.org/Graphics/SVG/1.1/DTD/svg11.dtd">
<!-- Generated by graphviz version 2.43.0 (0)
 -->
<!-- Title: G Pages: 1 -->
<svg width="840pt" height="244pt"
 viewBox="0.00 0.00 840.00 244.00" xmlns="http://www.w3.org/2000/svg" xmlns:xlink="http://www.w3.org/1999/xlink">
<g id="graph0" class="graph" transform="scale(1 1) rotate(0) translate(4 240)">
<title>G</title>
<!-- select -->
<g id="node1" class="node">
<title>select</title>
<polygon fill="none" stroke="black" points="502.5,-236 329.5,-236 329.5,-200 502.5,-200 502.5,-236"/>
<text text-anchor="middle" x="416" y="-214.3" font-family="RocknRoll One" font-size="14.00">「ブロック」を選択する</text>
</g>
<!-- view -->
<g id="node2" class="node">
<title>view</title>
<polygon fill="none" stroke="black" points="416,-163 0,-125 416,-87 832,-125 416,-163"/>
<text text-anchor="middle" x="416" y="-128.8" font-family="RocknRoll One" font-size="14.00">「このユーザーをブロックしますか？</text>
<text text-anchor="middle" x="416" y="-113.8" font-family="RocknRoll One" font-size="14.00">ブロックすると相手の投稿が表示さえなくなります。」を表示</text>
</g>
<!-- select&#45;&gt;view -->
<g id="edge1" class="edge">
<title>select&#45;&gt;view</title>
<path fill="none" stroke="black" d="M416,-199.88C416,-192.25 416,-182.83 416,-173.31"/>
<polygon fill="black" stroke="black" points="419.5,-173.02 416,-163.02 412.5,-173.02 419.5,-173.02"/>
</g>
<!-- yes -->
<g id="node3" class="node">
<title>yes</title>
<polygon fill="none" stroke="black" points="402.5,-36 261.5,-36 261.5,0 402.5,0 402.5,-36"/>
<text text-anchor="middle" x="332" y="-14.3" font-family="RocknRoll One" font-size="14.00">SubmitBlockに移行</text>
</g>
<!-- view&#45;&gt;yes -->
<g id="edge2" class="edge">
<title>view&#45;&gt;yes</title>
<path fill="none" stroke="black" d="M388.26,-89.33C376.47,-74.59 362.97,-57.72 352.16,-44.2"/>
<polygon fill="black" stroke="black" points="354.79,-41.88 345.81,-36.26 349.32,-46.25 354.79,-41.88"/>
<text text-anchor="middle" x="382.5" y="-57.8" font-family="RocknRoll One" font-size="14.00">OK</text>
</g>
<!-- no -->
<g id="node4" class="node">
<title>no</title>
<polygon fill="none" stroke="black" points="579.5,-36 420.5,-36 420.5,0 579.5,0 579.5,-36"/>
<text text-anchor="middle" x="500" y="-14.3" font-family="RocknRoll One" font-size="14.00">DisplayPostListに移行</text>
</g>
<!-- view&#45;&gt;no -->
<g id="edge3" class="edge">
<title>view&#45;&gt;no</title>
<path fill="none" stroke="black" d="M443.74,-89.33C455.53,-74.59 469.03,-57.72 479.84,-44.2"/>
<polygon fill="black" stroke="black" points="482.68,-46.25 486.19,-36.26 477.21,-41.88 482.68,-46.25"/>
<text text-anchor="middle" x="506" y="-57.8" font-family="RocknRoll One" font-size="14.00">キャンセル</text>
</g>
</g>
</svg>
