<?xml version="1.0" encoding="UTF-8" standalone="no"?>
<!DOCTYPE svg PUBLIC "-//W3C//DTD SVG 1.1//EN"
 "http://www.w3.org/Graphics/SVG/1.1/DTD/svg11.dtd">
<!-- Generated by graphviz version 2.43.0 (0)
 -->
<!-- Title: G Pages: 1 -->
<svg width="1017pt" height="349pt"
 viewBox="14.40 14.40 1002.40 334.40" xmlns="http://www.w3.org/2000/svg" xmlns:xlink="http://www.w3.org/1999/xlink">
<g id="graph0" class="graph" transform="scale(1 1) rotate(0) translate(50.4 298.4)">
<title>G</title>
<!-- select -->
<g id="node1" class="node">
<title>select</title>
<polygon fill="none" stroke="black" points="565.5,-248 350.5,-248 350.5,-212 565.5,-212 565.5,-248"/>
<text text-anchor="middle" x="458" y="-226.3" font-family="RocknRoll One" font-size="14.00">「ブロック」を選択する</text>
</g>
<!-- view -->
<g id="node2" class="node">
<title>view</title>
<polygon fill="none" stroke="black" points="458,-175 0,-131 458,-87 916,-131 458,-175"/>
<text text-anchor="middle" x="458" y="-134.8" font-family="RocknRoll One" font-size="14.00">「このユーザーをブロックしますか？</text>
<text text-anchor="middle" x="458" y="-119.8" font-family="RocknRoll One" font-size="14.00">ブロックすると相手の投稿が表示さえなくなります。」を表示</text>
</g>
<!-- select&#45;&gt;view -->
<g id="edge1" class="edge">
<title>select&#45;&gt;view</title>
<path fill="none" stroke="black" d="M458,-211.66C458,-204.05 458,-194.68 458,-185.06"/>
<polygon fill="black" stroke="black" points="461.5,-185.02 458,-175.02 454.5,-185.02 461.5,-185.02"/>
</g>
<!-- yes -->
<g id="node3" class="node">
<title>yes</title>
<polygon fill="none" stroke="black" points="444.5,-36 261.5,-36 261.5,0 444.5,0 444.5,-36"/>
<text text-anchor="middle" x="353" y="-14.3" font-family="RocknRoll One" font-size="14.00">SubmitBlockに移行</text>
</g>
<!-- view&#45;&gt;yes -->
<g id="edge2" class="edge">
<title>view&#45;&gt;yes</title>
<path fill="none" stroke="black" d="M420.69,-90.55C405.9,-74.93 389.36,-57.44 376.33,-43.67"/>
<polygon fill="black" stroke="black" points="378.52,-40.89 369.11,-36.03 373.44,-45.7 378.52,-40.89"/>
<text text-anchor="middle" x="410.5" y="-57.8" font-family="RocknRoll One" font-size="14.00">OK</text>
</g>
<!-- no -->
<g id="node4" class="node">
<title>no</title>
<polygon fill="none" stroke="black" points="663.5,-36 462.5,-36 462.5,0 663.5,0 663.5,-36"/>
<text text-anchor="middle" x="563" y="-14.3" font-family="RocknRoll One" font-size="14.00">DisplayPostListに移行</text>
</g>
<!-- view&#45;&gt;no -->
<g id="edge3" class="edge">
<title>view&#45;&gt;no</title>
<path fill="none" stroke="black" d="M495.31,-90.55C510.1,-74.93 526.64,-57.44 539.67,-43.67"/>
<polygon fill="black" stroke="black" points="542.56,-45.7 546.89,-36.03 537.48,-40.89 542.56,-45.7"/>
<text text-anchor="middle" x="565" y="-57.8" font-family="RocknRoll One" font-size="14.00">キャンセル</text>
</g>
</g>
</svg>
