<?xml version="1.0" encoding="UTF-8" standalone="no"?>
<!DOCTYPE svg PUBLIC "-//W3C//DTD SVG 1.1//EN"
 "http://www.w3.org/Graphics/SVG/1.1/DTD/svg11.dtd">
<!-- Generated by graphviz version 2.43.0 (0)
 -->
<!-- Title: G Pages: 1 -->
<svg width="595pt" height="319pt"
 viewBox="14.40 14.40 580.40 304.40" xmlns="http://www.w3.org/2000/svg" xmlns:xlink="http://www.w3.org/1999/xlink">
<g id="graph0" class="graph" transform="scale(1 1) rotate(0) translate(50.4 268.4)">
<title>G</title>
<!-- select -->
<g id="node1" class="node">
<title>select</title>
<polygon fill="none" stroke="black" points="338,-218 151,-218 151,-182 338,-182 338,-218"/>
<text text-anchor="middle" x="244.5" y="-196.3" font-family="RocknRoll One" font-size="14.00">ゴミ箱マークを選択</text>
</g>
<!-- delete -->
<g id="node2" class="node">
<title>delete</title>
<polygon fill="none" stroke="black" points="244.5,-145 57.5,-116 244.5,-87 431.5,-116 244.5,-145"/>
<text text-anchor="middle" x="244.5" y="-112.3" font-family="RocknRoll One" font-size="14.00">削除確認画面を表示</text>
</g>
<!-- select&#45;&gt;delete -->
<g id="edge1" class="edge">
<title>select&#45;&gt;delete</title>
<path fill="none" stroke="black" d="M244.5,-181.61C244.5,-173.89 244.5,-164.48 244.5,-155.25"/>
<polygon fill="black" stroke="black" points="248,-155.01 244.5,-145.01 241,-155.01 248,-155.01"/>
</g>
<!-- no -->
<g id="node3" class="node">
<title>no</title>
<polygon fill="none" stroke="black" points="233,-36 0,-36 0,0 233,0 233,-36"/>
<text text-anchor="middle" x="116.5" y="-14.3" font-family="RocknRoll One" font-size="14.00">UserDisplayMyPageに移行</text>
</g>
<!-- delete&#45;&gt;no -->
<g id="edge2" class="edge">
<title>delete&#45;&gt;no</title>
<path fill="none" stroke="black" d="M213.51,-91.76C193.45,-76.71 167.41,-57.18 147.37,-42.15"/>
<polygon fill="black" stroke="black" points="149.28,-39.21 139.18,-36.01 145.08,-44.81 149.28,-39.21"/>
<text text-anchor="middle" x="216.5" y="-57.8" font-family="RocknRoll One" font-size="14.00">キャンセル</text>
</g>
<!-- yes -->
<g id="node4" class="node">
<title>yes</title>
<polygon fill="none" stroke="black" points="494,-36 251,-36 251,0 494,0 494,-36"/>
<text text-anchor="middle" x="372.5" y="-14.3" font-family="RocknRoll One" font-size="14.00">AnonymizePostDetailに移行</text>
</g>
<!-- delete&#45;&gt;yes -->
<g id="edge3" class="edge">
<title>delete&#45;&gt;yes</title>
<path fill="none" stroke="black" d="M275.49,-91.76C295.55,-76.71 321.59,-57.18 341.63,-42.15"/>
<polygon fill="black" stroke="black" points="343.92,-44.81 349.82,-36.01 339.72,-39.21 343.92,-44.81"/>
<text text-anchor="middle" x="334" y="-57.8" font-family="RocknRoll One" font-size="14.00">OK</text>
</g>
</g>
</svg>
