<?xml version="1.0" encoding="UTF-8" standalone="no"?>
<!DOCTYPE svg PUBLIC "-//W3C//DTD SVG 1.1//EN"
 "http://www.w3.org/Graphics/SVG/1.1/DTD/svg11.dtd">
<!-- Generated by graphviz version 2.43.0 (0)
 -->
<!-- Title: G Pages: 1 -->
<svg width="933pt" height="1083pt"
 viewBox="0.00 0.00 224.00 260.00" xmlns="http://www.w3.org/2000/svg" xmlns:xlink="http://www.w3.org/1999/xlink">
<g id="graph0" class="graph" transform="scale(4.17 4.17) rotate(0) translate(4 256)">
<title>G</title>
<!-- serect -->
<g id="node1" class="node">
<title>serect</title>
<polygon fill="none" stroke="black" points="209,-252 7,-252 7,-216 209,-216 209,-252"/>
<text text-anchor="middle" x="108" y="-230.3" font-family="RocknRoll One" font-size="14.00">並び替えの「新着順」を選択</text>
</g>
<!-- db -->
<g id="node2" class="node">
<title>db</title>
<polygon fill="none" stroke="black" points="161.5,-180 54.5,-180 54.5,-144 161.5,-144 161.5,-180"/>
<text text-anchor="middle" x="108" y="-158.3" font-family="RocknRoll One" font-size="14.00">DBにアクセス</text>
</g>
<!-- serect&#45;&gt;db -->
<g id="edge1" class="edge">
<title>serect&#45;&gt;db</title>
<path fill="none" stroke="black" d="M108,-215.7C108,-207.98 108,-198.71 108,-190.11"/>
<polygon fill="black" stroke="black" points="111.5,-190.1 108,-180.1 104.5,-190.1 111.5,-190.1"/>
</g>
<!-- get -->
<g id="node3" class="node">
<title>get</title>
<polygon fill="none" stroke="black" points="166,-108 50,-108 50,-72 166,-72 166,-108"/>
<text text-anchor="middle" x="108" y="-86.3" font-family="RocknRoll One" font-size="14.00">投稿内容を取得</text>
</g>
<!-- db&#45;&gt;get -->
<g id="edge2" class="edge">
<title>db&#45;&gt;get</title>
<path fill="none" stroke="black" d="M108,-143.7C108,-135.98 108,-126.71 108,-118.11"/>
<polygon fill="black" stroke="black" points="111.5,-118.1 108,-108.1 104.5,-118.1 111.5,-118.1"/>
</g>
<!-- output -->
<g id="node4" class="node">
<title>output</title>
<polygon fill="none" stroke="black" points="216,-36 0,-36 0,0 216,0 216,-36"/>
<text text-anchor="middle" x="108" y="-14.3" font-family="RocknRoll One" font-size="14.00">投稿内容を新着順に並び替える</text>
</g>
<!-- get&#45;&gt;output -->
<g id="edge3" class="edge">
<title>get&#45;&gt;output</title>
<path fill="none" stroke="black" d="M108,-71.7C108,-63.98 108,-54.71 108,-46.11"/>
<polygon fill="black" stroke="black" points="111.5,-46.1 108,-36.1 104.5,-46.1 111.5,-46.1"/>
</g>
</g>
</svg>
