<?xml version="1.0" encoding="UTF-8" standalone="no"?>
<!DOCTYPE svg PUBLIC "-//W3C//DTD SVG 1.1//EN"
 "http://www.w3.org/Graphics/SVG/1.1/DTD/svg11.dtd">
<!-- Generated by graphviz version 2.43.0 (0)
 -->
<!-- Title: G Pages: 1 -->
<svg width="281pt" height="260pt"
 viewBox="0.00 0.00 281.00 260.00" xmlns="http://www.w3.org/2000/svg" xmlns:xlink="http://www.w3.org/1999/xlink">
<g id="graph0" class="graph" transform="scale(1 1) rotate(0) translate(4 256)">
<title>G</title>
<!-- serect -->
<g id="node1" class="node">
<title>serect</title>
<polygon fill="none" stroke="black" points="266,-252 7,-252 7,-216 266,-216 266,-252"/>
<text text-anchor="middle" x="136.5" y="-230.3" font-family="RocknRoll One" font-size="14.00">並び替えの「リアクション順」を選択</text>
</g>
<!-- db -->
<g id="node2" class="node">
<title>db</title>
<polygon fill="none" stroke="black" points="190,-180 83,-180 83,-144 190,-144 190,-180"/>
<text text-anchor="middle" x="136.5" y="-158.3" font-family="RocknRoll One" font-size="14.00">DBにアクセス</text>
</g>
<!-- serect&#45;&gt;db -->
<g id="edge1" class="edge">
<title>serect&#45;&gt;db</title>
<path fill="none" stroke="black" d="M136.5,-215.7C136.5,-207.98 136.5,-198.71 136.5,-190.11"/>
<polygon fill="black" stroke="black" points="140,-190.1 136.5,-180.1 133,-190.1 140,-190.1"/>
</g>
<!-- get -->
<g id="node3" class="node">
<title>get</title>
<polygon fill="none" stroke="black" points="194.5,-108 78.5,-108 78.5,-72 194.5,-72 194.5,-108"/>
<text text-anchor="middle" x="136.5" y="-86.3" font-family="RocknRoll One" font-size="14.00">投稿内容を取得</text>
</g>
<!-- db&#45;&gt;get -->
<g id="edge2" class="edge">
<title>db&#45;&gt;get</title>
<path fill="none" stroke="black" d="M136.5,-143.7C136.5,-135.98 136.5,-126.71 136.5,-118.11"/>
<polygon fill="black" stroke="black" points="140,-118.1 136.5,-108.1 133,-118.1 140,-118.1"/>
</g>
<!-- output -->
<g id="node4" class="node">
<title>output</title>
<polygon fill="none" stroke="black" points="273,-36 0,-36 0,0 273,0 273,-36"/>
<text text-anchor="middle" x="136.5" y="-14.3" font-family="RocknRoll One" font-size="14.00">投稿内容をリアクション順に並び替える</text>
</g>
<!-- get&#45;&gt;output -->
<g id="edge3" class="edge">
<title>get&#45;&gt;output</title>
<path fill="none" stroke="black" d="M136.5,-71.7C136.5,-63.98 136.5,-54.71 136.5,-46.11"/>
<polygon fill="black" stroke="black" points="140,-46.1 136.5,-36.1 133,-46.1 140,-46.1"/>
</g>
</g>
</svg>
