<?xml version="1.0" encoding="UTF-8" standalone="no"?>
<!DOCTYPE svg PUBLIC "-//W3C//DTD SVG 1.1//EN"
 "http://www.w3.org/Graphics/SVG/1.1/DTD/svg11.dtd">
<!-- Generated by graphviz version 2.43.0 (0)
 -->
<!-- Title: G Pages: 1 -->
<svg width="359pt" height="353pt"
 viewBox="14.40 14.40 344.40 338.40" xmlns="http://www.w3.org/2000/svg" xmlns:xlink="http://www.w3.org/1999/xlink">
<g id="graph0" class="graph" transform="scale(1 1) rotate(0) translate(50.4 302.4)">
<title>G</title>
<!-- serect -->
<g id="node1" class="node">
<title>serect</title>
<polygon fill="none" stroke="black" points="251,-252 7,-252 7,-216 251,-216 251,-252"/>
<text text-anchor="middle" x="129" y="-230.3" font-family="RocknRoll One" font-size="14.00">並び替えの「新着順」を選択</text>
</g>
<!-- db -->
<g id="node2" class="node">
<title>db</title>
<polygon fill="none" stroke="black" points="203.5,-180 54.5,-180 54.5,-144 203.5,-144 203.5,-180"/>
<text text-anchor="middle" x="129" y="-158.3" font-family="RocknRoll One" font-size="14.00">DBにアクセス</text>
</g>
<!-- serect&#45;&gt;db -->
<g id="edge1" class="edge">
<title>serect&#45;&gt;db</title>
<path fill="none" stroke="black" d="M129,-215.7C129,-207.98 129,-198.71 129,-190.11"/>
<polygon fill="black" stroke="black" points="132.5,-190.1 129,-180.1 125.5,-190.1 132.5,-190.1"/>
</g>
<!-- get -->
<g id="node3" class="node">
<title>get</title>
<polygon fill="none" stroke="black" points="208,-108 50,-108 50,-72 208,-72 208,-108"/>
<text text-anchor="middle" x="129" y="-86.3" font-family="RocknRoll One" font-size="14.00">投稿内容を取得</text>
</g>
<!-- db&#45;&gt;get -->
<g id="edge2" class="edge">
<title>db&#45;&gt;get</title>
<path fill="none" stroke="black" d="M129,-143.7C129,-135.98 129,-126.71 129,-118.11"/>
<polygon fill="black" stroke="black" points="132.5,-118.1 129,-108.1 125.5,-118.1 132.5,-118.1"/>
</g>
<!-- output -->
<g id="node4" class="node">
<title>output</title>
<polygon fill="none" stroke="black" points="258,-36 0,-36 0,0 258,0 258,-36"/>
<text text-anchor="middle" x="129" y="-14.3" font-family="RocknRoll One" font-size="14.00">投稿内容を新着順に並び替える</text>
</g>
<!-- get&#45;&gt;output -->
<g id="edge3" class="edge">
<title>get&#45;&gt;output</title>
<path fill="none" stroke="black" d="M129,-71.7C129,-63.98 129,-54.71 129,-46.11"/>
<polygon fill="black" stroke="black" points="132.5,-46.1 129,-36.1 125.5,-46.1 132.5,-46.1"/>
</g>
</g>
</svg>
