<?xml version="1.0" encoding="UTF-8" standalone="no"?>
<!DOCTYPE svg PUBLIC "-//W3C//DTD SVG 1.1//EN"
 "http://www.w3.org/Graphics/SVG/1.1/DTD/svg11.dtd">
<!-- Generated by graphviz version 2.43.0 (0)
 -->
<!-- Title: G Pages: 1 -->
<svg width="2259pt" height="2242pt"
 viewBox="0.00 0.00 542.15 538.00" xmlns="http://www.w3.org/2000/svg" xmlns:xlink="http://www.w3.org/1999/xlink">
<g id="graph0" class="graph" transform="scale(4.17 4.17) rotate(0) translate(4 534)">
<title>G</title>
<!-- input -->
<g id="node1" class="node">
<title>input</title>
<polygon fill="none" stroke="black" points="395.15,-530 279.15,-530 279.15,-494 395.15,-494 395.15,-530"/>
<text text-anchor="middle" x="337.15" y="-508.3" font-family="RocknRoll One" font-size="14.00">投稿内容を入力</text>
</g>
<!-- title -->
<g id="node2" class="node">
<title>title</title>
<polygon fill="none" stroke="black" points="337.15,-457 164.54,-439 337.15,-421 509.75,-439 337.15,-457"/>
<text text-anchor="middle" x="337.15" y="-435.3" font-family="RocknRoll One" font-size="14.00">タイトルが入力されている</text>
</g>
<!-- input&#45;&gt;title -->
<g id="edge1" class="edge">
<title>input&#45;&gt;title</title>
<path fill="none" stroke="black" d="M337.15,-493.81C337.15,-485.79 337.15,-476.05 337.15,-467.07"/>
<polygon fill="black" stroke="black" points="340.65,-467.03 337.15,-457.03 333.65,-467.03 340.65,-467.03"/>
</g>
<!-- content -->
<g id="node3" class="node">
<title>content</title>
<polygon fill="none" stroke="black" points="250.15,-370 103.85,-352 250.15,-334 396.44,-352 250.15,-370"/>
<text text-anchor="middle" x="250.15" y="-348.3" font-family="RocknRoll One" font-size="14.00">説明が入力されている</text>
</g>
<!-- title&#45;&gt;content -->
<g id="edge2" class="edge">
<title>title&#45;&gt;content</title>
<path fill="none" stroke="black" d="M321.19,-422.41C307.74,-409.27 288.32,-390.29 273.18,-375.5"/>
<polygon fill="black" stroke="black" points="275.31,-372.69 265.71,-368.21 270.42,-377.7 275.31,-372.69"/>
<text text-anchor="middle" x="310.15" y="-391.8" font-family="RocknRoll One" font-size="14.00">YES</text>
</g>
<!-- no -->
<g id="node6" class="node">
<title>no</title>
<polygon fill="none" stroke="black" points="534.15,-109 218.15,-109 218.15,-73 534.15,-73 534.15,-109"/>
<text text-anchor="middle" x="376.15" y="-87.3" font-family="RocknRoll One" font-size="14.00">「このフィールドを入力してください」と表示</text>
</g>
<!-- title&#45;&gt;no -->
<g id="edge3" class="edge">
<title>title&#45;&gt;no</title>
<path fill="none" stroke="black" d="M367.09,-424.03C392.25,-409.99 424.15,-385.73 424.15,-353 424.15,-353 424.15,-353 424.15,-177 424.15,-154.78 411.55,-133.01 399.26,-117.08"/>
<polygon fill="black" stroke="black" points="401.96,-114.85 392.93,-109.3 396.53,-119.26 401.96,-114.85"/>
<text text-anchor="middle" x="435.15" y="-261.3" font-family="RocknRoll One" font-size="14.00">NO</text>
</g>
<!-- latitude -->
<g id="node4" class="node">
<title>latitude</title>
<polygon fill="none" stroke="black" points="204.15,-283 57.85,-265 204.15,-247 350.44,-265 204.15,-283"/>
<text text-anchor="middle" x="204.15" y="-261.3" font-family="RocknRoll One" font-size="14.00">緯度が入力されている</text>
</g>
<!-- content&#45;&gt;latitude -->
<g id="edge4" class="edge">
<title>content&#45;&gt;latitude</title>
<path fill="none" stroke="black" d="M241.49,-335.01C234.79,-322.63 225.38,-305.23 217.68,-291.01"/>
<polygon fill="black" stroke="black" points="220.75,-289.33 212.92,-282.21 214.6,-292.67 220.75,-289.33"/>
<text text-anchor="middle" x="241.15" y="-304.8" font-family="RocknRoll One" font-size="14.00">YES</text>
</g>
<!-- content&#45;&gt;no -->
<g id="edge5" class="edge">
<title>content&#45;&gt;no</title>
<path fill="none" stroke="black" d="M286.41,-338.38C311.29,-327.7 342.68,-309.8 359.15,-283 390.45,-232.05 386.19,-158.57 380.87,-119.26"/>
<polygon fill="black" stroke="black" points="384.29,-118.5 379.37,-109.12 377.37,-119.53 384.29,-118.5"/>
<text text-anchor="middle" x="392.15" y="-217.8" font-family="RocknRoll One" font-size="14.00">NO</text>
</g>
<!-- longitude -->
<g id="node5" class="node">
<title>longitude</title>
<polygon fill="none" stroke="black" points="146.15,-196 -0.15,-178 146.15,-160 292.44,-178 146.15,-196"/>
<text text-anchor="middle" x="146.15" y="-174.3" font-family="RocknRoll One" font-size="14.00">経度が入力されている</text>
</g>
<!-- latitude&#45;&gt;longitude -->
<g id="edge6" class="edge">
<title>latitude&#45;&gt;longitude</title>
<path fill="none" stroke="black" d="M193.24,-248.01C184.65,-235.43 172.54,-217.68 162.75,-203.33"/>
<polygon fill="black" stroke="black" points="165.53,-201.2 157.01,-194.92 159.75,-205.15 165.53,-201.2"/>
<text text-anchor="middle" x="190.15" y="-217.8" font-family="RocknRoll One" font-size="14.00">YES</text>
</g>
<!-- latitude&#45;&gt;no -->
<g id="edge7" class="edge">
<title>latitude&#45;&gt;no</title>
<path fill="none" stroke="black" d="M228.97,-249.82C249.66,-237.29 279.19,-217.67 301.15,-196 325.24,-172.23 347.17,-140 361.01,-117.76"/>
<polygon fill="black" stroke="black" points="364.02,-119.54 366.25,-109.18 358.05,-115.89 364.02,-119.54"/>
<text text-anchor="middle" x="342.15" y="-174.3" font-family="RocknRoll One" font-size="14.00">NO</text>
</g>
<!-- longitude&#45;&gt;no -->
<g id="edge8" class="edge">
<title>longitude&#45;&gt;no</title>
<path fill="none" stroke="black" d="M181.08,-164.09C218,-150.45 276.77,-128.73 320.17,-112.69"/>
<polygon fill="black" stroke="black" points="321.57,-115.9 329.73,-109.15 319.14,-109.34 321.57,-115.9"/>
<text text-anchor="middle" x="285.15" y="-130.8" font-family="RocknRoll One" font-size="14.00">NO</text>
</g>
<!-- db -->
<g id="node7" class="node">
<title>db</title>
<polygon fill="none" stroke="black" points="199.65,-109 92.65,-109 92.65,-73 199.65,-73 199.65,-109"/>
<text text-anchor="middle" x="146.15" y="-87.3" font-family="RocknRoll One" font-size="14.00">DBにアクセス</text>
</g>
<!-- longitude&#45;&gt;db -->
<g id="edge9" class="edge">
<title>longitude&#45;&gt;db</title>
<path fill="none" stroke="black" d="M146.15,-159.8C146.15,-148.16 146.15,-132.55 146.15,-119.24"/>
<polygon fill="black" stroke="black" points="149.65,-119.18 146.15,-109.18 142.65,-119.18 149.65,-119.18"/>
<text text-anchor="middle" x="158.15" y="-130.8" font-family="RocknRoll One" font-size="14.00">YES</text>
</g>
<!-- store -->
<g id="node8" class="node">
<title>store</title>
<polygon fill="none" stroke="black" points="204.15,-36 88.15,-36 88.15,0 204.15,0 204.15,-36"/>
<text text-anchor="middle" x="146.15" y="-14.3" font-family="RocknRoll One" font-size="14.00">投稿内容を格納</text>
</g>
<!-- db&#45;&gt;store -->
<g id="edge10" class="edge">
<title>db&#45;&gt;store</title>
<path fill="none" stroke="black" d="M146.15,-72.81C146.15,-64.79 146.15,-55.05 146.15,-46.07"/>
<polygon fill="black" stroke="black" points="149.65,-46.03 146.15,-36.03 142.65,-46.03 149.65,-46.03"/>
</g>
</g>
</svg>
