<?xml version="1.0" encoding="UTF-8" standalone="no"?>
<!DOCTYPE svg PUBLIC "-//W3C//DTD SVG 1.1//EN"
 "http://www.w3.org/Graphics/SVG/1.1/DTD/svg11.dtd">
<!-- Generated by graphviz version 2.43.0 (0)
 -->
<!-- Title: G Pages: 1 -->
<svg width="376pt" height="423pt"
 viewBox="0.00 0.00 376.00 423.00" xmlns="http://www.w3.org/2000/svg" xmlns:xlink="http://www.w3.org/1999/xlink">
<g id="graph0" class="graph" transform="scale(1 1) rotate(0) translate(4 419)">
<title>G</title>
<!-- trash -->
<g id="node1" class="node">
<title>trash</title>
<polygon fill="none" stroke="black" points="188.5,-415 43.5,-415 43.5,-379 188.5,-379 188.5,-415"/>
<text text-anchor="middle" x="116" y="-393.3" font-family="RocknRoll One" font-size="14.00">ゴミ箱マークを選択</text>
</g>
<!-- trash_display -->
<g id="node2" class="node">
<title>trash_display</title>
<polygon fill="none" stroke="black" points="188.5,-342 43.5,-342 43.5,-306 188.5,-306 188.5,-342"/>
<text text-anchor="middle" x="116" y="-320.3" font-family="RocknRoll One" font-size="14.00">削除確認画面を表示</text>
</g>
<!-- trash&#45;&gt;trash_display -->
<g id="edge1" class="edge">
<title>trash&#45;&gt;trash_display</title>
<path fill="none" stroke="black" d="M116,-378.81C116,-370.79 116,-361.05 116,-352.07"/>
<polygon fill="black" stroke="black" points="119.5,-352.03 116,-342.03 112.5,-352.03 119.5,-352.03"/>
</g>
<!-- ok -->
<g id="node3" class="node">
<title>ok</title>
<polygon fill="none" stroke="black" points="116,-269 16.96,-251 116,-233 215.04,-251 116,-269"/>
<text text-anchor="middle" x="116" y="-247.3" font-family="RocknRoll One" font-size="14.00">「OK」を選択</text>
</g>
<!-- trash_display&#45;&gt;ok -->
<g id="edge2" class="edge">
<title>trash_display&#45;&gt;ok</title>
<path fill="none" stroke="black" d="M116,-305.81C116,-297.79 116,-288.05 116,-279.07"/>
<polygon fill="black" stroke="black" points="119.5,-279.03 116,-269.03 112.5,-279.03 119.5,-279.03"/>
</g>
<!-- no -->
<g id="node4" class="node">
<title>no</title>
<polygon fill="none" stroke="black" points="188,-182 0,-182 0,-146 188,-146 188,-182"/>
<text text-anchor="middle" x="94" y="-160.3" font-family="RocknRoll One" font-size="14.00">UserMyPageScreenに移行</text>
</g>
<!-- ok&#45;&gt;no -->
<g id="edge3" class="edge">
<title>ok&#45;&gt;no</title>
<path fill="none" stroke="black" d="M111.76,-233.61C108.71,-221.85 104.54,-205.73 101.01,-192.07"/>
<polygon fill="black" stroke="black" points="104.35,-191.02 98.46,-182.21 97.57,-192.77 104.35,-191.02"/>
<text text-anchor="middle" x="118" y="-203.8" font-family="RocknRoll One" font-size="14.00">NO</text>
</g>
<!-- db -->
<g id="node5" class="node">
<title>db</title>
<polygon fill="none" stroke="black" points="313.5,-182 206.5,-182 206.5,-146 313.5,-146 313.5,-182"/>
<text text-anchor="middle" x="260" y="-160.3" font-family="RocknRoll One" font-size="14.00">DBにアクセス</text>
</g>
<!-- ok&#45;&gt;db -->
<g id="edge4" class="edge">
<title>ok&#45;&gt;db</title>
<path fill="none" stroke="black" d="M138.18,-236.91C160.58,-223.68 195.6,-203.02 222.35,-187.23"/>
<polygon fill="black" stroke="black" points="224.24,-190.17 231.07,-182.07 220.68,-184.14 224.24,-190.17"/>
<text text-anchor="middle" x="208" y="-203.8" font-family="RocknRoll One" font-size="14.00">YES</text>
</g>
<!-- delete -->
<g id="node6" class="node">
<title>delete</title>
<polygon fill="none" stroke="black" points="318,-109 202,-109 202,-73 318,-73 318,-109"/>
<text text-anchor="middle" x="260" y="-87.3" font-family="RocknRoll One" font-size="14.00">投稿内容を削除</text>
</g>
<!-- db&#45;&gt;delete -->
<g id="edge5" class="edge">
<title>db&#45;&gt;delete</title>
<path fill="none" stroke="black" d="M260,-145.81C260,-137.79 260,-128.05 260,-119.07"/>
<polygon fill="black" stroke="black" points="263.5,-119.03 260,-109.03 256.5,-119.03 263.5,-119.03"/>
</g>
<!-- delete_display -->
<g id="node7" class="node">
<title>delete_display</title>
<polygon fill="none" stroke="black" points="368,-36 152,-36 152,0 368,0 368,-36"/>
<text text-anchor="middle" x="260" y="-14.3" font-family="RocknRoll One" font-size="14.00">「投稿を削除しました」と表示</text>
</g>
<!-- delete&#45;&gt;delete_display -->
<g id="edge6" class="edge">
<title>delete&#45;&gt;delete_display</title>
<path fill="none" stroke="black" d="M260,-72.81C260,-64.79 260,-55.05 260,-46.07"/>
<polygon fill="black" stroke="black" points="263.5,-46.03 260,-36.03 256.5,-46.03 263.5,-46.03"/>
</g>
</g>
</svg>
