<?xml version="1.0" encoding="UTF-8" standalone="no"?>
<!DOCTYPE svg PUBLIC "-//W3C//DTD SVG 1.1//EN"
 "http://www.w3.org/Graphics/SVG/1.1/DTD/svg11.dtd">
<!-- Generated by graphviz version 2.43.0 (0)
 -->
<!-- Title: G Pages: 1 -->
<svg width="2272pt" height="1212pt"
 viewBox="0.00 0.00 545.17 291.00" xmlns="http://www.w3.org/2000/svg" xmlns:xlink="http://www.w3.org/1999/xlink">
<g id="graph0" class="graph" transform="scale(4.17 4.17) rotate(0) translate(4 287)">
<title>G</title>
<!-- inquiry -->
<g id="node1" class="node">
<title>inquiry</title>
<polygon fill="none" stroke="black" points="454.67,-283 138.67,-283 138.67,-247 454.67,-247 454.67,-283"/>
<text text-anchor="middle" x="296.67" y="-261.3" font-family="RocknRoll One" font-size="14.00">件名・メッセージ入力し，「送信する」を選択</text>
</g>
<!-- subject -->
<g id="node2" class="node">
<title>subject</title>
<polygon fill="none" stroke="black" points="296.67,-210 150.38,-192 296.67,-174 442.96,-192 296.67,-210"/>
<text text-anchor="middle" x="296.67" y="-188.3" font-family="RocknRoll One" font-size="14.00">件名が入力されている</text>
</g>
<!-- inquiry&#45;&gt;subject -->
<g id="edge1" class="edge">
<title>inquiry&#45;&gt;subject</title>
<path fill="none" stroke="black" d="M296.67,-246.81C296.67,-238.79 296.67,-229.05 296.67,-220.07"/>
<polygon fill="black" stroke="black" points="300.17,-220.03 296.67,-210.03 293.17,-220.03 300.17,-220.03"/>
</g>
<!-- message -->
<g id="node3" class="node">
<title>message</title>
<polygon fill="none" stroke="black" points="185.67,-123 -0.17,-105 185.67,-87 371.51,-105 185.67,-123"/>
<text text-anchor="middle" x="185.67" y="-101.3" font-family="RocknRoll One" font-size="14.00">メッセージが入力されている</text>
</g>
<!-- subject&#45;&gt;message -->
<g id="edge2" class="edge">
<title>subject&#45;&gt;message</title>
<path fill="none" stroke="black" d="M277.34,-176.19C259.73,-162.71 233.51,-142.64 213.62,-127.41"/>
<polygon fill="black" stroke="black" points="215.6,-124.51 205.53,-121.21 211.34,-130.07 215.6,-124.51"/>
<text text-anchor="middle" x="259.67" y="-144.8" font-family="RocknRoll One" font-size="14.00">YES</text>
</g>
<!-- no -->
<g id="node4" class="node">
<title>no</title>
<polygon fill="none" stroke="black" points="537.17,-36 278.17,-36 278.17,0 537.17,0 537.17,-36"/>
<text text-anchor="middle" x="407.67" y="-14.3" font-family="RocknRoll One" font-size="14.00">必須入力が入力されていない旨を表示</text>
</g>
<!-- subject&#45;&gt;no -->
<g id="edge3" class="edge">
<title>subject&#45;&gt;no</title>
<path fill="none" stroke="black" d="M321.65,-176.88C340.6,-164.91 365.84,-146.03 380.67,-123 395.69,-99.68 402.37,-68.37 405.33,-46.22"/>
<polygon fill="black" stroke="black" points="408.82,-46.49 406.51,-36.15 401.87,-45.68 408.82,-46.49"/>
<text text-anchor="middle" x="406.67" y="-101.3" font-family="RocknRoll One" font-size="14.00">NO</text>
</g>
<!-- message&#45;&gt;no -->
<g id="edge5" class="edge">
<title>message&#45;&gt;no</title>
<path fill="none" stroke="black" d="M221.34,-90.34C256.97,-76.7 312.2,-55.55 353.3,-39.82"/>
<polygon fill="black" stroke="black" points="354.8,-42.99 362.89,-36.15 352.3,-36.45 354.8,-42.99"/>
<text text-anchor="middle" x="320.67" y="-57.8" font-family="RocknRoll One" font-size="14.00">NO</text>
</g>
<!-- db -->
<g id="node5" class="node">
<title>db</title>
<polygon fill="none" stroke="black" points="260.17,-36 53.17,-36 53.17,0 260.17,0 260.17,-36"/>
<text text-anchor="middle" x="156.67" y="-14.3" font-family="RocknRoll One" font-size="14.00">DBに件名・メッセージを格納</text>
</g>
<!-- message&#45;&gt;db -->
<g id="edge4" class="edge">
<title>message&#45;&gt;db</title>
<path fill="none" stroke="black" d="M179.94,-87.21C175.92,-75.41 170.45,-59.38 165.82,-45.82"/>
<polygon fill="black" stroke="black" points="169.03,-44.38 162.49,-36.05 162.4,-46.64 169.03,-44.38"/>
<text text-anchor="middle" x="185.67" y="-57.8" font-family="RocknRoll One" font-size="14.00">YES</text>
</g>
</g>
</svg>
