<?xml version="1.0" encoding="UTF-8" standalone="no"?>
<!DOCTYPE svg PUBLIC "-//W3C//DTD SVG 1.1//EN"
 "http://www.w3.org/Graphics/SVG/1.1/DTD/svg11.dtd">
<!-- Generated by graphviz version 2.43.0 (0)
 -->
<!-- Title: G Pages: 1 -->
<svg width="2238pt" height="1762pt"
 viewBox="0.00 0.00 537.17 423.00" xmlns="http://www.w3.org/2000/svg" xmlns:xlink="http://www.w3.org/1999/xlink">
<g id="graph0" class="graph" transform="scale(4.17 4.17) rotate(0) translate(4 419)">
<title>G</title>
<!-- input -->
<g id="node1" class="node">
<title>input</title>
<polygon fill="none" stroke="black" points="410.67,-415 294.67,-415 294.67,-379 410.67,-379 410.67,-415"/>
<text text-anchor="middle" x="352.67" y="-393.3" font-family="RocknRoll One" font-size="14.00">投稿内容を入力</text>
</g>
<!-- serect -->
<g id="node2" class="node">
<title>serect</title>
<polygon fill="none" stroke="black" points="482.17,-342 223.17,-342 223.17,-306 482.17,-306 482.17,-342"/>
<text text-anchor="middle" x="352.67" y="-320.3" font-family="RocknRoll One" font-size="14.00">「事業者名検索」をに事業者名を入力</text>
</g>
<!-- input&#45;&gt;serect -->
<g id="edge1" class="edge">
<title>input&#45;&gt;serect</title>
<path fill="none" stroke="black" d="M352.67,-378.81C352.67,-370.79 352.67,-361.05 352.67,-352.07"/>
<polygon fill="black" stroke="black" points="356.17,-352.03 352.67,-342.03 349.17,-352.03 356.17,-352.03"/>
</g>
<!-- serch -->
<g id="node3" class="node">
<title>serch</title>
<polygon fill="none" stroke="black" points="359.17,-269 228.17,-269 228.17,-233 359.17,-233 359.17,-269"/>
<text text-anchor="middle" x="293.67" y="-247.3" font-family="RocknRoll One" font-size="14.00">事業者情報を検索</text>
</g>
<!-- serect&#45;&gt;serch -->
<g id="edge2" class="edge">
<title>serect&#45;&gt;serch</title>
<path fill="none" stroke="black" d="M338.39,-305.81C331.14,-297.09 322.21,-286.34 314.23,-276.75"/>
<polygon fill="black" stroke="black" points="316.9,-274.48 307.82,-269.03 311.52,-278.96 316.9,-274.48"/>
</g>
<!-- check -->
<g id="node4" class="node">
<title>check</title>
<polygon fill="none" stroke="black" points="353.67,-196 123.67,-196 123.67,-160 353.67,-160 353.67,-196"/>
<text text-anchor="middle" x="238.67" y="-174.3" font-family="RocknRoll One" font-size="14.00">入力された事業者名の有無を確認</text>
</g>
<!-- serch&#45;&gt;check -->
<g id="edge3" class="edge">
<title>serch&#45;&gt;check</title>
<path fill="none" stroke="black" d="M280.36,-232.81C273.67,-224.18 265.44,-213.56 258.06,-204.03"/>
<polygon fill="black" stroke="black" points="260.75,-201.79 251.86,-196.03 255.22,-206.08 260.75,-201.79"/>
</g>
<!-- existence -->
<g id="node5" class="node">
<title>existence</title>
<polygon fill="none" stroke="black" points="185.67,-123 -0.17,-105 185.67,-87 371.51,-105 185.67,-123"/>
<text text-anchor="middle" x="185.67" y="-101.3" font-family="RocknRoll One" font-size="14.00">検索した事業者名が存在する</text>
</g>
<!-- check&#45;&gt;existence -->
<g id="edge4" class="edge">
<title>check&#45;&gt;existence</title>
<path fill="none" stroke="black" d="M225.84,-159.81C219.21,-150.93 211,-139.93 203.73,-130.2"/>
<polygon fill="black" stroke="black" points="206.44,-127.98 197.65,-122.06 200.83,-132.16 206.44,-127.98"/>
</g>
<!-- no -->
<g id="node6" class="node">
<title>no</title>
<polygon fill="none" stroke="black" points="529.17,-36 270.17,-36 270.17,0 529.17,0 529.17,-36"/>
<text text-anchor="middle" x="399.67" y="-14.3" font-family="RocknRoll One" font-size="14.00">「その事業者は存在しません」と表示</text>
</g>
<!-- existence&#45;&gt;no -->
<g id="edge5" class="edge">
<title>existence&#45;&gt;no</title>
<path fill="none" stroke="black" d="M220.53,-90.15C254.81,-76.54 307.59,-55.57 346.99,-39.92"/>
<polygon fill="black" stroke="black" points="348.7,-43.01 356.7,-36.07 346.12,-36.5 348.7,-43.01"/>
<text text-anchor="middle" x="315.67" y="-57.8" font-family="RocknRoll One" font-size="14.00">NO</text>
</g>
<!-- yes -->
<g id="node7" class="node">
<title>yes</title>
<polygon fill="none" stroke="black" points="252.17,-36 79.17,-36 79.17,0 252.17,0 252.17,-36"/>
<text text-anchor="middle" x="165.67" y="-14.3" font-family="RocknRoll One" font-size="14.00">緯度と経度の項目を入力</text>
</g>
<!-- existence&#45;&gt;yes -->
<g id="edge7" class="edge">
<title>existence&#45;&gt;yes</title>
<path fill="none" stroke="black" d="M181.72,-87.21C178.94,-75.41 175.17,-59.38 171.98,-45.82"/>
<polygon fill="black" stroke="black" points="175.38,-44.98 169.68,-36.05 168.56,-46.59 175.38,-44.98"/>
<text text-anchor="middle" x="189.67" y="-57.8" font-family="RocknRoll One" font-size="14.00">YES</text>
</g>
<!-- no&#45;&gt;serect -->
<g id="edge6" class="edge">
<title>no&#45;&gt;serect</title>
<path fill="none" stroke="black" d="M399.67,-36.26C399.67,-53.43 399.67,-80.54 399.67,-104 399.67,-252 399.67,-252 399.67,-252 399.67,-269.22 389.94,-285.47 379.33,-298.06"/>
<polygon fill="black" stroke="black" points="376.45,-296.03 372.33,-305.79 381.64,-300.73 376.45,-296.03"/>
</g>
</g>
</svg>
