<?xml version="1.0" encoding="UTF-8" standalone="no"?>
<!DOCTYPE svg PUBLIC "-//W3C//DTD SVG 1.1//EN"
 "http://www.w3.org/Graphics/SVG/1.1/DTD/svg11.dtd">
<!-- Generated by graphviz version 2.43.0 (0)
 -->
<!-- Title: G Pages: 1 -->
<svg width="516pt" height="277pt"
 viewBox="0.00 0.00 516.00 277.00" xmlns="http://www.w3.org/2000/svg" xmlns:xlink="http://www.w3.org/1999/xlink">
<g id="graph0" class="graph" transform="scale(1 1) rotate(0) translate(4 273)">
<title>G</title>
<!-- db -->
<g id="node1" class="node">
<title>db</title>
<polygon fill="none" stroke="black" points="308,-269 201,-269 201,-233 308,-233 308,-269"/>
<text text-anchor="middle" x="254.5" y="-247.3" font-family="RocknRoll One" font-size="14.00">DBにアクセス</text>
</g>
<!-- post -->
<g id="node2" class="node">
<title>post</title>
<polygon fill="none" stroke="black" points="419.5,-196 89.5,-196 89.5,-160 419.5,-160 419.5,-196"/>
<text text-anchor="middle" x="254.5" y="-174.3" font-family="RocknRoll One" font-size="14.00">リアクションされた投稿のリアクション数を取得</text>
</g>
<!-- db&#45;&gt;post -->
<g id="edge1" class="edge">
<title>db&#45;&gt;post</title>
<path fill="none" stroke="black" d="M254.5,-232.81C254.5,-224.79 254.5,-215.05 254.5,-206.07"/>
<polygon fill="black" stroke="black" points="258,-206.03 254.5,-196.03 251,-206.03 258,-206.03"/>
</g>
<!-- judge -->
<g id="node3" class="node">
<title>judge</title>
<polygon fill="none" stroke="black" points="254.5,-123 29.11,-105 254.5,-87 479.89,-105 254.5,-123"/>
<text text-anchor="middle" x="254.5" y="-101.3" font-family="RocknRoll One" font-size="14.00">すでにリアクションをしている場合</text>
</g>
<!-- post&#45;&gt;judge -->
<g id="edge2" class="edge">
<title>post&#45;&gt;judge</title>
<path fill="none" stroke="black" d="M254.5,-159.81C254.5,-151.79 254.5,-142.05 254.5,-133.07"/>
<polygon fill="black" stroke="black" points="258,-133.03 254.5,-123.03 251,-133.03 258,-133.03"/>
</g>
<!-- add -->
<g id="node4" class="node">
<title>add</title>
<polygon fill="none" stroke="black" points="247,-36 0,-36 0,0 247,0 247,-36"/>
<text text-anchor="middle" x="123.5" y="-14.3" font-family="RocknRoll One" font-size="14.00">リアクション数に+1をし，再び格納</text>
</g>
<!-- judge&#45;&gt;add -->
<g id="edge3" class="edge">
<title>judge&#45;&gt;add</title>
<path fill="none" stroke="black" d="M231.08,-88.8C210.85,-75.68 181.33,-56.53 158.33,-41.6"/>
<polygon fill="black" stroke="black" points="160.16,-38.62 149.87,-36.11 156.35,-44.49 160.16,-38.62"/>
<text text-anchor="middle" x="208.5" y="-57.8" font-family="RocknRoll One" font-size="14.00">NO</text>
</g>
<!-- diff -->
<g id="node5" class="node">
<title>diff</title>
<polygon fill="none" stroke="black" points="508,-36 265,-36 265,0 508,0 508,-36"/>
<text text-anchor="middle" x="386.5" y="-14.3" font-family="RocknRoll One" font-size="14.00">リアクション数に&#45;1をし，再び格納</text>
</g>
<!-- judge&#45;&gt;diff -->
<g id="edge4" class="edge">
<title>judge&#45;&gt;diff</title>
<path fill="none" stroke="black" d="M278.1,-88.8C298.48,-75.68 328.23,-56.53 351.4,-41.6"/>
<polygon fill="black" stroke="black" points="353.42,-44.47 359.93,-36.11 349.63,-38.58 353.42,-44.47"/>
<text text-anchor="middle" x="340.5" y="-57.8" font-family="RocknRoll One" font-size="14.00">YES</text>
</g>
</g>
</svg>
