<?xml version="1.0" encoding="UTF-8" standalone="no"?>
<!DOCTYPE svg PUBLIC "-//W3C//DTD SVG 1.1//EN"
 "http://www.w3.org/Graphics/SVG/1.1/DTD/svg11.dtd">
<!-- Generated by graphviz version 2.43.0 (0)
 -->
<!-- Title: G Pages: 1 -->
<svg width="754pt" height="1083pt"
 viewBox="0.00 0.00 181.00 260.00" xmlns="http://www.w3.org/2000/svg" xmlns:xlink="http://www.w3.org/1999/xlink">
<g id="graph0" class="graph" transform="scale(4.17 4.17) rotate(0) translate(4 256)">
<title>G</title>
<!-- input -->
<g id="node1" class="node">
<title>input</title>
<polygon fill="none" stroke="black" points="144.5,-252 28.5,-252 28.5,-216 144.5,-216 144.5,-252"/>
<text text-anchor="middle" x="86.5" y="-230.3" font-family="RocknRoll One" font-size="14.00">投稿内容を入力</text>
</g>
<!-- serect -->
<g id="node2" class="node">
<title>serect</title>
<polygon fill="none" stroke="black" points="173,-180 0,-180 0,-144 173,-144 173,-180"/>
<text text-anchor="middle" x="86.5" y="-158.3" font-family="RocknRoll One" font-size="14.00">「事業者名検索」を選択</text>
</g>
<!-- input&#45;&gt;serect -->
<g id="edge1" class="edge">
<title>input&#45;&gt;serect</title>
<path fill="none" stroke="black" d="M86.5,-215.7C86.5,-207.98 86.5,-198.71 86.5,-190.11"/>
<polygon fill="black" stroke="black" points="90,-190.1 86.5,-180.1 83,-190.1 90,-190.1"/>
</g>
<!-- position -->
<g id="node3" class="node">
<title>position</title>
<polygon fill="none" stroke="black" points="154.5,-108 18.5,-108 18.5,-72 154.5,-72 154.5,-108"/>
<text text-anchor="middle" x="86.5" y="-86.3" font-family="RocknRoll One" font-size="14.00">DBから位置を取得</text>
</g>
<!-- serect&#45;&gt;position -->
<g id="edge2" class="edge">
<title>serect&#45;&gt;position</title>
<path fill="none" stroke="black" d="M86.5,-143.7C86.5,-135.98 86.5,-126.71 86.5,-118.11"/>
<polygon fill="black" stroke="black" points="90,-118.1 86.5,-108.1 83,-118.1 90,-118.1"/>
</g>
<!-- position_input -->
<g id="node4" class="node">
<title>position_input</title>
<polygon fill="none" stroke="black" points="173,-36 0,-36 0,0 173,0 173,-36"/>
<text text-anchor="middle" x="86.5" y="-14.3" font-family="RocknRoll One" font-size="14.00">緯度と経度の項目を入力</text>
</g>
<!-- position&#45;&gt;position_input -->
<g id="edge3" class="edge">
<title>position&#45;&gt;position_input</title>
<path fill="none" stroke="black" d="M86.5,-71.7C86.5,-63.98 86.5,-54.71 86.5,-46.11"/>
<polygon fill="black" stroke="black" points="90,-46.1 86.5,-36.1 83,-46.1 90,-46.1"/>
</g>
</g>
</svg>
