<?xml version="1.0" encoding="UTF-8" standalone="no"?>
<!DOCTYPE svg PUBLIC "-//W3C//DTD SVG 1.1//EN"
 "http://www.w3.org/Graphics/SVG/1.1/DTD/svg11.dtd">
<!-- Generated by graphviz version 2.43.0 (0)
 -->
<!-- Title: G Pages: 1 -->
<svg width="553pt" height="423pt"
 viewBox="0.00 0.00 553.00 423.00" xmlns="http://www.w3.org/2000/svg" xmlns:xlink="http://www.w3.org/1999/xlink">
<g id="graph0" class="graph" transform="scale(1 1) rotate(0) translate(4 419)">
<title>G</title>
<!-- input -->
<g id="node1" class="node">
<title>input</title>
<polygon fill="none" stroke="black" points="415.5,-415 299.5,-415 299.5,-379 415.5,-379 415.5,-415"/>
<text text-anchor="middle" x="357.5" y="-393.3" font-family="RocknRoll One" font-size="14.00">通報理由を入力</text>
</g>
<!-- serect -->
<g id="node2" class="node">
<title>serect</title>
<polygon fill="none" stroke="black" points="355,-342 210,-342 210,-306 355,-306 355,-342"/>
<text text-anchor="middle" x="282.5" y="-320.3" font-family="RocknRoll One" font-size="14.00">「通報する」を選択</text>
</g>
<!-- input&#45;&gt;serect -->
<g id="edge1" class="edge">
<title>input&#45;&gt;serect</title>
<path fill="none" stroke="black" d="M339.34,-378.81C329.95,-369.92 318.32,-358.91 308.03,-349.17"/>
<polygon fill="black" stroke="black" points="310.16,-346.36 300.49,-342.03 305.34,-351.45 310.16,-346.36"/>
</g>
<!-- check -->
<g id="node3" class="node">
<title>check</title>
<polygon fill="none" stroke="black" points="207.5,-269 34.9,-251 207.5,-233 380.1,-251 207.5,-269"/>
<text text-anchor="middle" x="207.5" y="-247.3" font-family="RocknRoll One" font-size="14.00">通報理由が入力されている</text>
</g>
<!-- serect&#45;&gt;check -->
<g id="edge2" class="edge">
<title>serect&#45;&gt;check</title>
<path fill="none" stroke="black" d="M264.34,-305.81C254.37,-296.37 241.87,-284.54 231.14,-274.38"/>
<polygon fill="black" stroke="black" points="233.37,-271.67 223.7,-267.34 228.56,-276.75 233.37,-271.67"/>
</g>
<!-- no -->
<g id="node4" class="node">
<title>no</title>
<polygon fill="none" stroke="black" points="545,-182 272,-182 272,-146 545,-146 545,-182"/>
<text text-anchor="middle" x="408.5" y="-160.3" font-family="RocknRoll One" font-size="14.00">「通報理由を入力してください」と表示</text>
</g>
<!-- check&#45;&gt;no -->
<g id="edge3" class="edge">
<title>check&#45;&gt;no</title>
<path fill="none" stroke="black" d="M239.79,-236.34C271.78,-222.82 321.22,-201.91 358.33,-186.22"/>
<polygon fill="black" stroke="black" points="360.11,-189.26 367.96,-182.15 357.38,-182.82 360.11,-189.26"/>
<text text-anchor="middle" x="330.5" y="-203.8" font-family="RocknRoll One" font-size="14.00">NO</text>
</g>
<!-- db -->
<g id="node5" class="node">
<title>db</title>
<polygon fill="none" stroke="black" points="254,-182 147,-182 147,-146 254,-146 254,-182"/>
<text text-anchor="middle" x="200.5" y="-160.3" font-family="RocknRoll One" font-size="14.00">DBにアクセス</text>
</g>
<!-- check&#45;&gt;db -->
<g id="edge5" class="edge">
<title>check&#45;&gt;db</title>
<path fill="none" stroke="black" d="M206.08,-232.8C205.13,-221.16 203.84,-205.55 202.74,-192.24"/>
<polygon fill="black" stroke="black" points="206.22,-191.85 201.91,-182.18 199.25,-192.43 206.22,-191.85"/>
<text text-anchor="middle" x="216.5" y="-203.8" font-family="RocknRoll One" font-size="14.00">YES</text>
</g>
<!-- no&#45;&gt;input -->
<g id="edge4" class="edge">
<title>no&#45;&gt;input</title>
<path fill="none" stroke="black" d="M405.75,-182C402.33,-202.65 396.12,-238.51 389.5,-269 381.95,-303.76 371.68,-343.47 364.83,-369.09"/>
<polygon fill="black" stroke="black" points="361.43,-368.26 362.21,-378.83 368.19,-370.08 361.43,-368.26"/>
</g>
<!-- store -->
<g id="node6" class="node">
<title>store</title>
<polygon fill="none" stroke="black" points="258.5,-109 142.5,-109 142.5,-73 258.5,-73 258.5,-109"/>
<text text-anchor="middle" x="200.5" y="-87.3" font-family="RocknRoll One" font-size="14.00">通報内容を格納</text>
</g>
<!-- db&#45;&gt;store -->
<g id="edge6" class="edge">
<title>db&#45;&gt;store</title>
<path fill="none" stroke="black" d="M200.5,-145.81C200.5,-137.79 200.5,-128.05 200.5,-119.07"/>
<polygon fill="black" stroke="black" points="204,-119.03 200.5,-109.03 197,-119.03 204,-119.03"/>
</g>
<!-- display -->
<g id="node7" class="node">
<title>display</title>
<polygon fill="none" stroke="black" points="401,-36 0,-36 0,0 401,0 401,-36"/>
<text text-anchor="middle" x="200.5" y="-14.3" font-family="RocknRoll One" font-size="14.00">「通報を受け付けました。運営が確認いたします。」を表示</text>
</g>
<!-- store&#45;&gt;display -->
<g id="edge7" class="edge">
<title>store&#45;&gt;display</title>
<path fill="none" stroke="black" d="M200.5,-72.81C200.5,-64.79 200.5,-55.05 200.5,-46.07"/>
<polygon fill="black" stroke="black" points="204,-46.03 200.5,-36.03 197,-46.03 204,-46.03"/>
</g>
</g>
</svg>
