<?xml version="1.0" encoding="UTF-8" standalone="no"?>
<!DOCTYPE svg PUBLIC "-//W3C//DTD SVG 1.1//EN"
 "http://www.w3.org/Graphics/SVG/1.1/DTD/svg11.dtd">
<!-- Generated by graphviz version 2.43.0 (0)
 -->
<!-- Title: G Pages: 1 -->
<svg width="937pt" height="783pt"
 viewBox="0.00 0.00 225.00 188.00" xmlns="http://www.w3.org/2000/svg" xmlns:xlink="http://www.w3.org/1999/xlink">
<g id="graph0" class="graph" transform="scale(4.17 4.17) rotate(0) translate(4 184)">
<title>G</title>
<!-- serect -->
<g id="node1" class="node">
<title>serect</title>
<polygon fill="none" stroke="black" points="209.5,-180 7.5,-180 7.5,-144 209.5,-144 209.5,-180"/>
<text text-anchor="middle" x="108.5" y="-158.3" font-family="RocknRoll One" font-size="14.00">「ブロック解除」を選択する</text>
</g>
<!-- db -->
<g id="node2" class="node">
<title>db</title>
<polygon fill="none" stroke="black" points="176.5,-108 40.5,-108 40.5,-72 176.5,-72 176.5,-108"/>
<text text-anchor="middle" x="108.5" y="-86.3" font-family="RocknRoll One" font-size="14.00">DBにアクセスする</text>
</g>
<!-- serect&#45;&gt;db -->
<g id="edge1" class="edge">
<title>serect&#45;&gt;db</title>
<path fill="none" stroke="black" d="M108.5,-143.7C108.5,-135.98 108.5,-126.71 108.5,-118.11"/>
<polygon fill="black" stroke="black" points="112,-118.1 108.5,-108.1 105,-118.1 112,-118.1"/>
</g>
<!-- delete -->
<g id="node3" class="node">
<title>delete</title>
<polygon fill="none" stroke="black" points="217,-36 0,-36 0,0 217,0 217,-36"/>
<text text-anchor="middle" x="108.5" y="-14.3" font-family="RocknRoll One" font-size="14.00">選択したユーザーIDを削除する</text>
</g>
<!-- db&#45;&gt;delete -->
<g id="edge2" class="edge">
<title>db&#45;&gt;delete</title>
<path fill="none" stroke="black" d="M108.5,-71.7C108.5,-63.98 108.5,-54.71 108.5,-46.11"/>
<polygon fill="black" stroke="black" points="112,-46.1 108.5,-36.1 105,-46.1 112,-46.1"/>
</g>
</g>
</svg>
