<?xml version="1.0" encoding="UTF-8" standalone="no"?>
<!DOCTYPE svg PUBLIC "-//W3C//DTD SVG 1.1//EN"
 "http://www.w3.org/Graphics/SVG/1.1/DTD/svg11.dtd">
<!-- Generated by graphviz version 2.43.0 (0)
 -->
<!-- Title: G Pages: 1 -->
<svg width="647pt" height="538pt"
 viewBox="14.40 14.40 632.40 523.40" xmlns="http://www.w3.org/2000/svg" xmlns:xlink="http://www.w3.org/1999/xlink">
<g id="graph0" class="graph" transform="scale(1 1) rotate(0) translate(50.4 487.4)">
<title>G</title>
<!-- auth -->
<g id="node1" class="node">
<title>auth</title>
<polygon fill="none" stroke="black" points="397.5,-437 191.5,-437 191.5,-401 397.5,-401 397.5,-437"/>
<text text-anchor="middle" x="294.5" y="-415.3" font-family="RocknRoll One" font-size="14.00">Google認証にアクセス</text>
</g>
<!-- info -->
<g id="node2" class="node">
<title>info</title>
<polygon fill="none" stroke="black" points="418.5,-364 170.5,-364 170.5,-328 418.5,-328 418.5,-364"/>
<text text-anchor="middle" x="294.5" y="-342.3" font-family="RocknRoll One" font-size="14.00">Googelから利用者情報を取得</text>
</g>
<!-- auth&#45;&gt;info -->
<g id="edge1" class="edge">
<title>auth&#45;&gt;info</title>
<path fill="none" stroke="black" d="M294.5,-400.81C294.5,-392.79 294.5,-383.05 294.5,-374.07"/>
<polygon fill="black" stroke="black" points="298,-374.03 294.5,-364.03 291,-374.03 298,-374.03"/>
</g>
<!-- login -->
<g id="node3" class="node">
<title>login</title>
<polygon fill="none" stroke="black" points="388.5,-291 200.5,-291 200.5,-255 388.5,-255 388.5,-291"/>
<text text-anchor="middle" x="294.5" y="-269.3" font-family="RocknRoll One" font-size="14.00">セッションIDを発行</text>
</g>
<!-- info&#45;&gt;login -->
<g id="edge2" class="edge">
<title>info&#45;&gt;login</title>
<path fill="none" stroke="black" d="M294.5,-327.81C294.5,-319.79 294.5,-310.05 294.5,-301.07"/>
<polygon fill="black" stroke="black" points="298,-301.03 294.5,-291.03 291,-301.03 298,-301.03"/>
</g>
<!-- exist -->
<g id="node4" class="node">
<title>exist</title>
<polygon fill="none" stroke="black" points="294.5,-218 59.5,-189 294.5,-160 529.5,-189 294.5,-218"/>
<text text-anchor="middle" x="294.5" y="-185.3" font-family="RocknRoll One" font-size="14.00">DBにユーザーが存在するか</text>
</g>
<!-- login&#45;&gt;exist -->
<g id="edge3" class="edge">
<title>login&#45;&gt;exist</title>
<path fill="none" stroke="black" d="M294.5,-254.61C294.5,-246.89 294.5,-237.48 294.5,-228.25"/>
<polygon fill="black" stroke="black" points="298,-228.01 294.5,-218.01 291,-228.01 298,-228.01"/>
</g>
<!-- new_save -->
<g id="node5" class="node">
<title>new_save</title>
<polygon fill="none" stroke="black" points="307,-109 0,-109 0,-73 307,-73 307,-109"/>
<text text-anchor="middle" x="153.5" y="-87.3" font-family="RocknRoll One" font-size="14.00">DBに利用者情報とセッションIDを格納</text>
</g>
<!-- exist&#45;&gt;new_save -->
<g id="edge5" class="edge">
<title>exist&#45;&gt;new_save</title>
<path fill="none" stroke="black" d="M259.65,-164.27C237.47,-149.17 208.91,-129.73 187,-114.81"/>
<polygon fill="black" stroke="black" points="188.9,-111.87 178.66,-109.13 184.96,-117.65 188.9,-111.87"/>
<text text-anchor="middle" x="234" y="-130.8" font-family="RocknRoll One" font-size="14.00">No</text>
</g>
<!-- save -->
<g id="node6" class="node">
<title>save</title>
<polygon fill="none" stroke="black" points="546,-109 325,-109 325,-73 546,-73 546,-109"/>
<text text-anchor="middle" x="435.5" y="-87.3" font-family="RocknRoll One" font-size="14.00">DBにセッションIDを格納</text>
</g>
<!-- exist&#45;&gt;save -->
<g id="edge4" class="edge">
<title>exist&#45;&gt;save</title>
<path fill="none" stroke="black" d="M329.35,-164.27C351.53,-149.17 380.09,-129.73 402,-114.81"/>
<polygon fill="black" stroke="black" points="404.04,-117.65 410.34,-109.13 400.1,-111.87 404.04,-117.65"/>
<text text-anchor="middle" x="393" y="-130.8" font-family="RocknRoll One" font-size="14.00">Yes</text>
</g>
<!-- result -->
<g id="node7" class="node">
<title>result</title>
<polygon fill="none" stroke="black" points="412,-36 175,-36 175,0 412,0 412,-36"/>
<text text-anchor="middle" x="293.5" y="-14.3" font-family="RocknRoll One" font-size="14.00">UserMapViewScreenに移行</text>
</g>
<!-- new_save&#45;&gt;result -->
<g id="edge7" class="edge">
<title>new_save&#45;&gt;result</title>
<path fill="none" stroke="black" d="M187.03,-72.99C206.11,-63.32 230.21,-51.1 250.65,-40.73"/>
<polygon fill="black" stroke="black" points="252.42,-43.76 259.75,-36.11 249.25,-37.52 252.42,-43.76"/>
</g>
<!-- save&#45;&gt;result -->
<g id="edge6" class="edge">
<title>save&#45;&gt;result</title>
<path fill="none" stroke="black" d="M401.49,-72.99C382.05,-63.27 357.47,-50.99 336.68,-40.59"/>
<polygon fill="black" stroke="black" points="338.24,-37.46 327.73,-36.11 335.11,-43.72 338.24,-37.46"/>
</g>
</g>
</svg>
