<?xml version="1.0" encoding="UTF-8" standalone="no"?>
<!DOCTYPE svg PUBLIC "-//W3C//DTD SVG 1.1//EN"
 "http://www.w3.org/Graphics/SVG/1.1/DTD/svg11.dtd">
<!-- Generated by graphviz version 2.43.0 (0)
 -->
<!-- Title: G Pages: 1 -->
<svg width="1512pt" height="1458pt"
 viewBox="0.00 0.00 362.79 350.00" xmlns="http://www.w3.org/2000/svg" xmlns:xlink="http://www.w3.org/1999/xlink">
<g id="graph0" class="graph" transform="scale(4.17 4.17) rotate(0) translate(4 346)">
<title>G</title>
<!-- auth -->
<g id="node1" class="node">
<title>auth</title>
<polygon fill="none" stroke="black" points="259.4,-342 95.4,-342 95.4,-306 259.4,-306 259.4,-342"/>
<text text-anchor="middle" x="177.4" y="-320.3" font-family="RocknRoll One" font-size="14.00">Google認証にアクセス</text>
</g>
<!-- info -->
<g id="node2" class="node">
<title>info</title>
<polygon fill="none" stroke="black" points="280.4,-269 74.4,-269 74.4,-233 280.4,-233 280.4,-269"/>
<text text-anchor="middle" x="177.4" y="-247.3" font-family="RocknRoll One" font-size="14.00">Googelから利用者情報を取得</text>
</g>
<!-- auth&#45;&gt;info -->
<g id="edge1" class="edge">
<title>auth&#45;&gt;info</title>
<path fill="none" stroke="black" d="M177.4,-305.81C177.4,-297.79 177.4,-288.05 177.4,-279.07"/>
<polygon fill="black" stroke="black" points="180.9,-279.03 177.4,-269.03 173.9,-279.03 180.9,-279.03"/>
</g>
<!-- exist -->
<g id="node3" class="node">
<title>exist</title>
<polygon fill="none" stroke="black" points="177.4,-196 0.1,-178 177.4,-160 354.69,-178 177.4,-196"/>
<text text-anchor="middle" x="177.4" y="-174.3" font-family="RocknRoll One" font-size="14.00">DBにユーザーが存在するか</text>
</g>
<!-- info&#45;&gt;exist -->
<g id="edge2" class="edge">
<title>info&#45;&gt;exist</title>
<path fill="none" stroke="black" d="M177.4,-232.81C177.4,-224.79 177.4,-215.05 177.4,-206.07"/>
<polygon fill="black" stroke="black" points="180.9,-206.03 177.4,-196.03 173.9,-206.03 180.9,-206.03"/>
</g>
<!-- login -->
<g id="node4" class="node">
<title>login</title>
<polygon fill="none" stroke="black" points="153.4,-109 51.4,-109 51.4,-73 153.4,-73 153.4,-109"/>
<text text-anchor="middle" x="102.4" y="-87.3" font-family="RocknRoll One" font-size="14.00">ログイン処理</text>
</g>
<!-- exist&#45;&gt;login -->
<g id="edge3" class="edge">
<title>exist&#45;&gt;login</title>
<path fill="none" stroke="black" d="M163.29,-161.01C152.26,-148.51 136.74,-130.92 124.13,-116.63"/>
<polygon fill="black" stroke="black" points="126.71,-114.27 117.47,-109.08 121.46,-118.9 126.71,-114.27"/>
<text text-anchor="middle" x="155.9" y="-130.8" font-family="RocknRoll One" font-size="14.00">Yes</text>
</g>
<!-- save -->
<g id="node5" class="node">
<title>save</title>
<polygon fill="none" stroke="black" points="335.4,-109 171.4,-109 171.4,-73 335.4,-73 335.4,-109"/>
<text text-anchor="middle" x="253.4" y="-87.3" font-family="RocknRoll One" font-size="14.00">DBに利用者情報を格納</text>
</g>
<!-- exist&#45;&gt;save -->
<g id="edge4" class="edge">
<title>exist&#45;&gt;save</title>
<path fill="none" stroke="black" d="M191.34,-161.41C202.47,-148.95 218.29,-131.26 231.17,-116.86"/>
<polygon fill="black" stroke="black" points="233.92,-119.03 237.98,-109.25 228.7,-114.37 233.92,-119.03"/>
<text text-anchor="middle" x="228.9" y="-130.8" font-family="RocknRoll One" font-size="14.00">No</text>
</g>
<!-- result -->
<g id="node6" class="node">
<title>result</title>
<polygon fill="none" stroke="black" points="274.9,-36 79.9,-36 79.9,0 274.9,0 274.9,-36"/>
<text text-anchor="middle" x="177.4" y="-14.3" font-family="RocknRoll One" font-size="14.00">UserMapViewScreenに移行</text>
</g>
<!-- login&#45;&gt;result -->
<g id="edge5" class="edge">
<title>login&#45;&gt;result</title>
<path fill="none" stroke="black" d="M120.55,-72.81C129.95,-63.92 141.58,-52.91 151.86,-43.17"/>
<polygon fill="black" stroke="black" points="154.55,-45.45 159.41,-36.03 149.74,-40.36 154.55,-45.45"/>
</g>
<!-- save&#45;&gt;result -->
<g id="edge6" class="edge">
<title>save&#45;&gt;result</title>
<path fill="none" stroke="black" d="M235,-72.81C225.38,-63.83 213.46,-52.69 202.97,-42.89"/>
<polygon fill="black" stroke="black" points="205.32,-40.3 195.63,-36.03 200.54,-45.41 205.32,-40.3"/>
</g>
</g>
</svg>
