<?xml version="1.0" encoding="UTF-8" standalone="no"?>
<!DOCTYPE svg PUBLIC "-//W3C//DTD SVG 1.1//EN"
 "http://www.w3.org/Graphics/SVG/1.1/DTD/svg11.dtd">
<!-- Generated by graphviz version 2.43.0 (0)
 -->
<!-- Title: G Pages: 1 -->
<svg width="820pt" height="305pt"
 viewBox="0.00 0.00 820.01 305.00" xmlns="http://www.w3.org/2000/svg" xmlns:xlink="http://www.w3.org/1999/xlink">
<g id="graph0" class="graph" transform="scale(1 1) rotate(0) translate(4 301)">
<title>G</title>
<!-- store -->
<g id="node1" class="node">
<title>store</title>
<polygon fill="none" stroke="black" points="159.01,-297 -0.01,-279 159.01,-261 318.04,-279 159.01,-297"/>
<text text-anchor="middle" x="159.01" y="-275.3" font-family="RocknRoll One" font-size="14.00">店舗名が入力されている</text>
</g>
<!-- nostore -->
<g id="node2" class="node">
<title>nostore</title>
<polygon fill="none" stroke="black" points="202.51,-210 71.51,-210 71.51,-174 202.51,-174 202.51,-210"/>
<text text-anchor="middle" x="137.01" y="-188.3" font-family="RocknRoll One" font-size="14.00">エラー画面を表示</text>
</g>
<!-- store&#45;&gt;nostore -->
<g id="edge1" class="edge">
<title>store&#45;&gt;nostore</title>
<path fill="none" stroke="black" d="M154.67,-261.21C151.61,-249.41 147.47,-233.38 143.96,-219.82"/>
<polygon fill="black" stroke="black" points="147.32,-218.85 141.43,-210.05 140.54,-220.61 147.32,-218.85"/>
<text text-anchor="middle" x="161.01" y="-231.8" font-family="RocknRoll One" font-size="14.00">NO</text>
</g>
<!-- phone -->
<g id="node3" class="node">
<title>phone</title>
<polygon fill="none" stroke="black" points="393.01,-210 220.41,-192 393.01,-174 565.62,-192 393.01,-210"/>
<text text-anchor="middle" x="393.01" y="-188.3" font-family="RocknRoll One" font-size="14.00">電話番号が入力されている</text>
</g>
<!-- store&#45;&gt;phone -->
<g id="edge2" class="edge">
<title>store&#45;&gt;phone</title>
<path fill="none" stroke="black" d="M194.81,-265C235.6,-250.18 302.38,-225.92 347.01,-209.71"/>
<polygon fill="black" stroke="black" points="348.25,-212.98 356.45,-206.28 345.86,-206.41 348.25,-212.98"/>
<text text-anchor="middle" x="303.01" y="-231.8" font-family="RocknRoll One" font-size="14.00">YES</text>
</g>
<!-- nophone -->
<g id="node4" class="node">
<title>nophone</title>
<polygon fill="none" stroke="black" points="389.51,-123 258.51,-123 258.51,-87 389.51,-87 389.51,-123"/>
<text text-anchor="middle" x="324.01" y="-101.3" font-family="RocknRoll One" font-size="14.00">エラー画面を表示</text>
</g>
<!-- phone&#45;&gt;nophone -->
<g id="edge3" class="edge">
<title>phone&#45;&gt;nophone</title>
<path fill="none" stroke="black" d="M380.04,-175.01C369.98,-162.63 355.88,-145.25 344.33,-131.03"/>
<polygon fill="black" stroke="black" points="346.9,-128.64 337.88,-123.08 341.47,-133.05 346.9,-128.64"/>
<text text-anchor="middle" x="374.01" y="-144.8" font-family="RocknRoll One" font-size="14.00">NO</text>
</g>
<!-- address -->
<g id="node5" class="node">
<title>address</title>
<polygon fill="none" stroke="black" points="554.01,-123 407.72,-105 554.01,-87 700.31,-105 554.01,-123"/>
<text text-anchor="middle" x="554.01" y="-101.3" font-family="RocknRoll One" font-size="14.00">住所が入力されている</text>
</g>
<!-- phone&#45;&gt;address -->
<g id="edge4" class="edge">
<title>phone&#45;&gt;address</title>
<path fill="none" stroke="black" d="M419.96,-176.77C447.02,-162.49 488.86,-140.4 518.59,-124.7"/>
<polygon fill="black" stroke="black" points="520.57,-127.61 527.78,-119.85 517.3,-121.42 520.57,-127.61"/>
<text text-anchor="middle" x="496.01" y="-144.8" font-family="RocknRoll One" font-size="14.00">YES</text>
</g>
<!-- noaddress -->
<g id="node6" class="node">
<title>noaddress</title>
<polygon fill="none" stroke="black" points="505.51,-36 374.51,-36 374.51,0 505.51,0 505.51,-36"/>
<text text-anchor="middle" x="440.01" y="-14.3" font-family="RocknRoll One" font-size="14.00">エラー画面を表示</text>
</g>
<!-- address&#45;&gt;noaddress -->
<g id="edge5" class="edge">
<title>address&#45;&gt;noaddress</title>
<path fill="none" stroke="black" d="M534.42,-89.39C517.04,-76.43 491.35,-57.28 471.16,-42.22"/>
<polygon fill="black" stroke="black" points="472.99,-39.22 462.88,-36.05 468.81,-44.83 472.99,-39.22"/>
<text text-anchor="middle" x="515.01" y="-57.8" font-family="RocknRoll One" font-size="14.00">NO</text>
</g>
<!-- move -->
<g id="node7" class="node">
<title>move</title>
<polygon fill="none" stroke="black" points="812.01,-36 524.01,-36 524.01,0 812.01,0 812.01,-36"/>
<text text-anchor="middle" x="668.01" y="-14.3" font-family="RocknRoll One" font-size="14.00">InputBusinessRequestInformationに移行</text>
</g>
<!-- address&#45;&gt;move -->
<g id="edge6" class="edge">
<title>address&#45;&gt;move</title>
<path fill="none" stroke="black" d="M573.61,-89.39C590.99,-76.43 616.68,-57.28 636.87,-42.22"/>
<polygon fill="black" stroke="black" points="639.22,-44.83 645.15,-36.05 635.04,-39.22 639.22,-44.83"/>
<text text-anchor="middle" x="630.01" y="-57.8" font-family="RocknRoll One" font-size="14.00">YES</text>
</g>
</g>
</svg>
