<?xml version="1.0" encoding="UTF-8" standalone="no"?>
<!DOCTYPE svg PUBLIC "-//W3C//DTD SVG 1.1//EN"
 "http://www.w3.org/Graphics/SVG/1.1/DTD/svg11.dtd">
<!-- Generated by graphviz version 2.43.0 (0)
 -->
<!-- Title: G Pages: 1 -->
<svg width="470pt" height="423pt"
 viewBox="0.00 0.00 470.00 423.00" xmlns="http://www.w3.org/2000/svg" xmlns:xlink="http://www.w3.org/1999/xlink">
<g id="graph0" class="graph" transform="scale(1 1) rotate(0) translate(4 419)">
<title>G</title>
<!-- auth -->
<g id="node1" class="node">
<title>auth</title>
<polygon fill="none" stroke="black" points="333.5,-415 169.5,-415 169.5,-379 333.5,-379 333.5,-415"/>
<text text-anchor="middle" x="251.5" y="-393.3" font-family="RocknRoll One" font-size="14.00">Google認証にアクセス</text>
</g>
<!-- info -->
<g id="node2" class="node">
<title>info</title>
<polygon fill="none" stroke="black" points="354.5,-342 148.5,-342 148.5,-306 354.5,-306 354.5,-342"/>
<text text-anchor="middle" x="251.5" y="-320.3" font-family="RocknRoll One" font-size="14.00">Googelから利用者情報を取得</text>
</g>
<!-- auth&#45;&gt;info -->
<g id="edge1" class="edge">
<title>auth&#45;&gt;info</title>
<path fill="none" stroke="black" d="M251.5,-378.81C251.5,-370.79 251.5,-361.05 251.5,-352.07"/>
<polygon fill="black" stroke="black" points="255,-352.03 251.5,-342.03 248,-352.03 255,-352.03"/>
</g>
<!-- login -->
<g id="node3" class="node">
<title>login</title>
<polygon fill="none" stroke="black" points="324.5,-269 178.5,-269 178.5,-233 324.5,-233 324.5,-269"/>
<text text-anchor="middle" x="251.5" y="-247.3" font-family="RocknRoll One" font-size="14.00">セッションIDを発行</text>
</g>
<!-- info&#45;&gt;login -->
<g id="edge2" class="edge">
<title>info&#45;&gt;login</title>
<path fill="none" stroke="black" d="M251.5,-305.81C251.5,-297.79 251.5,-288.05 251.5,-279.07"/>
<polygon fill="black" stroke="black" points="255,-279.03 251.5,-269.03 248,-279.03 255,-279.03"/>
</g>
<!-- exist -->
<g id="node4" class="node">
<title>exist</title>
<polygon fill="none" stroke="black" points="251.5,-196 74.21,-178 251.5,-160 428.79,-178 251.5,-196"/>
<text text-anchor="middle" x="251.5" y="-174.3" font-family="RocknRoll One" font-size="14.00">DBにユーザーが存在するか</text>
</g>
<!-- login&#45;&gt;exist -->
<g id="edge3" class="edge">
<title>login&#45;&gt;exist</title>
<path fill="none" stroke="black" d="M251.5,-232.81C251.5,-224.79 251.5,-215.05 251.5,-206.07"/>
<polygon fill="black" stroke="black" points="255,-206.03 251.5,-196.03 248,-206.03 255,-206.03"/>
</g>
<!-- new_save -->
<g id="node5" class="node">
<title>new_save</title>
<polygon fill="none" stroke="black" points="265,-109 0,-109 0,-73 265,-73 265,-109"/>
<text text-anchor="middle" x="132.5" y="-87.3" font-family="RocknRoll One" font-size="14.00">DBに利用者情報とセッションIDを格納</text>
</g>
<!-- exist&#45;&gt;new_save -->
<g id="edge5" class="edge">
<title>exist&#45;&gt;new_save</title>
<path fill="none" stroke="black" d="M230.5,-162C212.32,-149.01 185.74,-130.03 164.84,-115.1"/>
<polygon fill="black" stroke="black" points="166.74,-112.15 156.57,-109.19 162.67,-117.85 166.74,-112.15"/>
<text text-anchor="middle" x="209" y="-130.8" font-family="RocknRoll One" font-size="14.00">No</text>
</g>
<!-- save -->
<g id="node6" class="node">
<title>save</title>
<polygon fill="none" stroke="black" points="462,-109 283,-109 283,-73 462,-73 462,-109"/>
<text text-anchor="middle" x="372.5" y="-87.3" font-family="RocknRoll One" font-size="14.00">DBにセッションIDを格納</text>
</g>
<!-- exist&#45;&gt;save -->
<g id="edge4" class="edge">
<title>exist&#45;&gt;save</title>
<path fill="none" stroke="black" d="M272.85,-162C291.34,-149.01 318.37,-130.03 339.61,-115.1"/>
<polygon fill="black" stroke="black" points="341.86,-117.8 348.03,-109.19 337.83,-112.07 341.86,-117.8"/>
<text text-anchor="middle" x="330" y="-130.8" font-family="RocknRoll One" font-size="14.00">Yes</text>
</g>
<!-- result -->
<g id="node7" class="node">
<title>result</title>
<polygon fill="none" stroke="black" points="349,-36 154,-36 154,0 349,0 349,-36"/>
<text text-anchor="middle" x="251.5" y="-14.3" font-family="RocknRoll One" font-size="14.00">UserMapViewScreenに移行</text>
</g>
<!-- new_save&#45;&gt;result -->
<g id="edge7" class="edge">
<title>new_save&#45;&gt;result</title>
<path fill="none" stroke="black" d="M161,-72.99C176.93,-63.49 196.97,-51.54 214.14,-41.29"/>
<polygon fill="black" stroke="black" points="216.02,-44.24 222.82,-36.11 212.44,-38.23 216.02,-44.24"/>
</g>
<!-- save&#45;&gt;result -->
<g id="edge6" class="edge">
<title>save&#45;&gt;result</title>
<path fill="none" stroke="black" d="M343.52,-72.99C327.32,-63.49 306.95,-51.54 289.49,-41.29"/>
<polygon fill="black" stroke="black" points="291.06,-38.16 280.67,-36.11 287.52,-44.19 291.06,-38.16"/>
</g>
</g>
</svg>
