<?xml version="1.0" encoding="UTF-8" standalone="no"?>
<!DOCTYPE svg PUBLIC "-//W3C//DTD SVG 1.1//EN"
 "http://www.w3.org/Graphics/SVG/1.1/DTD/svg11.dtd">
<!-- Generated by graphviz version 2.43.0 (0)
 -->
<!-- Title: G Pages: 1 -->
<svg width="829pt" height="496pt"
 viewBox="0.00 0.00 829.00 496.00" xmlns="http://www.w3.org/2000/svg" xmlns:xlink="http://www.w3.org/1999/xlink">
<g id="graph0" class="graph" transform="scale(1 1) rotate(0) translate(4 492)">
<title>G</title>
<!-- serect -->
<g id="node1" class="node">
<title>serect</title>
<polygon fill="none" stroke="black" points="497,-488 324,-488 324,-452 497,-452 497,-488"/>
<text text-anchor="middle" x="410.5" y="-466.3" font-family="RocknRoll One" font-size="14.00">「ブロック」を選択する</text>
</g>
<!-- display -->
<g id="node2" class="node">
<title>display</title>
<polygon fill="none" stroke="black" points="821,-415 0,-415 0,-379 821,-379 821,-415"/>
<text text-anchor="middle" x="410.5" y="-393.3" font-family="RocknRoll One" font-size="14.00">「このユーザーをブロックしますか？ブロックすると相手の投稿が表示されなくなります。」・「OK」「キャンセル」を表示</text>
</g>
<!-- serect&#45;&gt;display -->
<g id="edge1" class="edge">
<title>serect&#45;&gt;display</title>
<path fill="none" stroke="black" d="M410.5,-451.81C410.5,-443.79 410.5,-434.05 410.5,-425.07"/>
<polygon fill="black" stroke="black" points="414,-425.03 410.5,-415.03 407,-425.03 414,-425.03"/>
</g>
<!-- ok -->
<g id="node3" class="node">
<title>ok</title>
<polygon fill="none" stroke="black" points="410.5,-342 284.65,-324 410.5,-306 536.35,-324 410.5,-342"/>
<text text-anchor="middle" x="410.5" y="-320.3" font-family="RocknRoll One" font-size="14.00">「OK」を選択する</text>
</g>
<!-- display&#45;&gt;ok -->
<g id="edge2" class="edge">
<title>display&#45;&gt;ok</title>
<path fill="none" stroke="black" d="M410.5,-378.81C410.5,-370.79 410.5,-361.05 410.5,-352.07"/>
<polygon fill="black" stroke="black" points="414,-352.03 410.5,-342.03 407,-352.03 414,-352.03"/>
</g>
<!-- db -->
<g id="node4" class="node">
<title>db</title>
<polygon fill="none" stroke="black" points="379,-255 272,-255 272,-219 379,-219 379,-255"/>
<text text-anchor="middle" x="325.5" y="-233.3" font-family="RocknRoll One" font-size="14.00">DBにアクセス</text>
</g>
<!-- ok&#45;&gt;db -->
<g id="edge3" class="edge">
<title>ok&#45;&gt;db</title>
<path fill="none" stroke="black" d="M395.3,-307.8C382.7,-295.2 364.53,-277.03 349.9,-262.4"/>
<polygon fill="black" stroke="black" points="352.16,-259.71 342.61,-255.11 347.21,-264.66 352.16,-259.71"/>
<text text-anchor="middle" x="385.5" y="-276.8" font-family="RocknRoll One" font-size="14.00">YES</text>
</g>
<!-- view -->
<g id="node8" class="node">
<title>view</title>
<polygon fill="none" stroke="black" points="593.5,-255 397.5,-255 397.5,-219 593.5,-219 593.5,-255"/>
<text text-anchor="middle" x="495.5" y="-233.3" font-family="RocknRoll One" font-size="14.00">UserPinDetailScreenに移行</text>
</g>
<!-- ok&#45;&gt;view -->
<g id="edge4" class="edge">
<title>ok&#45;&gt;view</title>
<path fill="none" stroke="black" d="M425.7,-307.8C438.3,-295.2 456.47,-277.03 471.1,-262.4"/>
<polygon fill="black" stroke="black" points="473.79,-264.66 478.39,-255.11 468.84,-259.71 473.79,-264.66"/>
<text text-anchor="middle" x="468.5" y="-276.8" font-family="RocknRoll One" font-size="14.00">NO</text>
</g>
<!-- store -->
<g id="node5" class="node">
<title>store</title>
<polygon fill="none" stroke="black" points="398,-182 253,-182 253,-146 398,-146 398,-182"/>
<text text-anchor="middle" x="325.5" y="-160.3" font-family="RocknRoll One" font-size="14.00">ブロック情報の格納</text>
</g>
<!-- db&#45;&gt;store -->
<g id="edge5" class="edge">
<title>db&#45;&gt;store</title>
<path fill="none" stroke="black" d="M325.5,-218.81C325.5,-210.79 325.5,-201.05 325.5,-192.07"/>
<polygon fill="black" stroke="black" points="329,-192.03 325.5,-182.03 322,-192.03 329,-192.03"/>
</g>
<!-- output -->
<g id="node6" class="node">
<title>output</title>
<polygon fill="none" stroke="black" points="462,-109 189,-109 189,-73 462,-73 462,-109"/>
<text text-anchor="middle" x="325.5" y="-87.3" font-family="RocknRoll One" font-size="14.00">「ユーザーをブロックしました」の表示</text>
</g>
<!-- store&#45;&gt;output -->
<g id="edge6" class="edge">
<title>store&#45;&gt;output</title>
<path fill="none" stroke="black" d="M325.5,-145.81C325.5,-137.79 325.5,-128.05 325.5,-119.07"/>
<polygon fill="black" stroke="black" points="329,-119.03 325.5,-109.03 322,-119.03 329,-119.03"/>
</g>
<!-- map -->
<g id="node7" class="node">
<title>map</title>
<polygon fill="none" stroke="black" points="423,-36 228,-36 228,0 423,0 423,-36"/>
<text text-anchor="middle" x="325.5" y="-14.3" font-family="RocknRoll One" font-size="14.00">UserMapViewScreenに移行</text>
</g>
<!-- output&#45;&gt;map -->
<g id="edge7" class="edge">
<title>output&#45;&gt;map</title>
<path fill="none" stroke="black" d="M325.5,-72.81C325.5,-64.79 325.5,-55.05 325.5,-46.07"/>
<polygon fill="black" stroke="black" points="329,-46.03 325.5,-36.03 322,-46.03 329,-46.03"/>
</g>
</g>
</svg>
