<?xml version="1.0" encoding="UTF-8" standalone="no"?>
<!DOCTYPE svg PUBLIC "-//W3C//DTD SVG 1.1//EN"
 "http://www.w3.org/Graphics/SVG/1.1/DTD/svg11.dtd">
<!-- Generated by graphviz version 2.43.0 (0)
 -->
<!-- Title: G Pages: 1 -->
<svg width="1567pt" height="2979pt"
 viewBox="0.00 0.00 376.00 715.00" xmlns="http://www.w3.org/2000/svg" xmlns:xlink="http://www.w3.org/1999/xlink">
<g id="graph0" class="graph" transform="scale(4.17 4.17) rotate(0) translate(4 711)">
<title>G</title>
<!-- serect -->
<g id="node1" class="node">
<title>serect</title>
<polygon fill="none" stroke="black" points="188.5,-707 43.5,-707 43.5,-671 188.5,-671 188.5,-707"/>
<text text-anchor="middle" x="116" y="-685.3" font-family="RocknRoll One" font-size="14.00">「投稿履歴」を選択</text>
</g>
<!-- db1 -->
<g id="node2" class="node">
<title>db1</title>
<polygon fill="none" stroke="black" points="169.5,-634 62.5,-634 62.5,-598 169.5,-598 169.5,-634"/>
<text text-anchor="middle" x="116" y="-612.3" font-family="RocknRoll One" font-size="14.00">DBにアクセス</text>
</g>
<!-- serect&#45;&gt;db1 -->
<g id="edge1" class="edge">
<title>serect&#45;&gt;db1</title>
<path fill="none" stroke="black" d="M116,-670.81C116,-662.79 116,-653.05 116,-644.07"/>
<polygon fill="black" stroke="black" points="119.5,-644.03 116,-634.03 112.5,-644.03 119.5,-644.03"/>
</g>
<!-- get -->
<g id="node3" class="node">
<title>get</title>
<polygon fill="none" stroke="black" points="174,-561 58,-561 58,-525 174,-525 174,-561"/>
<text text-anchor="middle" x="116" y="-539.3" font-family="RocknRoll One" font-size="14.00">投稿内容を取得</text>
</g>
<!-- db1&#45;&gt;get -->
<g id="edge2" class="edge">
<title>db1&#45;&gt;get</title>
<path fill="none" stroke="black" d="M116,-597.81C116,-589.79 116,-580.05 116,-571.07"/>
<polygon fill="black" stroke="black" points="119.5,-571.03 116,-561.03 112.5,-571.03 119.5,-571.03"/>
</g>
<!-- display -->
<g id="node4" class="node">
<title>display</title>
<polygon fill="none" stroke="black" points="174,-488 58,-488 58,-452 174,-452 174,-488"/>
<text text-anchor="middle" x="116" y="-466.3" font-family="RocknRoll One" font-size="14.00">投稿履歴を表示</text>
</g>
<!-- get&#45;&gt;display -->
<g id="edge3" class="edge">
<title>get&#45;&gt;display</title>
<path fill="none" stroke="black" d="M116,-524.81C116,-516.79 116,-507.05 116,-498.07"/>
<polygon fill="black" stroke="black" points="119.5,-498.03 116,-488.03 112.5,-498.03 119.5,-498.03"/>
</g>
<!-- trash -->
<g id="node5" class="node">
<title>trash</title>
<polygon fill="none" stroke="black" points="188.5,-415 43.5,-415 43.5,-379 188.5,-379 188.5,-415"/>
<text text-anchor="middle" x="116" y="-393.3" font-family="RocknRoll One" font-size="14.00">ゴミ箱マークを選択</text>
</g>
<!-- display&#45;&gt;trash -->
<g id="edge4" class="edge">
<title>display&#45;&gt;trash</title>
<path fill="none" stroke="black" d="M116,-451.81C116,-443.79 116,-434.05 116,-425.07"/>
<polygon fill="black" stroke="black" points="119.5,-425.03 116,-415.03 112.5,-425.03 119.5,-425.03"/>
</g>
<!-- trash_display -->
<g id="node6" class="node">
<title>trash_display</title>
<polygon fill="none" stroke="black" points="188.5,-342 43.5,-342 43.5,-306 188.5,-306 188.5,-342"/>
<text text-anchor="middle" x="116" y="-320.3" font-family="RocknRoll One" font-size="14.00">削除確認画面を表示</text>
</g>
<!-- trash&#45;&gt;trash_display -->
<g id="edge5" class="edge">
<title>trash&#45;&gt;trash_display</title>
<path fill="none" stroke="black" d="M116,-378.81C116,-370.79 116,-361.05 116,-352.07"/>
<polygon fill="black" stroke="black" points="119.5,-352.03 116,-342.03 112.5,-352.03 119.5,-352.03"/>
</g>
<!-- ok -->
<g id="node7" class="node">
<title>ok</title>
<polygon fill="none" stroke="black" points="116,-269 16.96,-251 116,-233 215.04,-251 116,-269"/>
<text text-anchor="middle" x="116" y="-247.3" font-family="RocknRoll One" font-size="14.00">「OK」を選択</text>
</g>
<!-- trash_display&#45;&gt;ok -->
<g id="edge6" class="edge">
<title>trash_display&#45;&gt;ok</title>
<path fill="none" stroke="black" d="M116,-305.81C116,-297.79 116,-288.05 116,-279.07"/>
<polygon fill="black" stroke="black" points="119.5,-279.03 116,-269.03 112.5,-279.03 119.5,-279.03"/>
</g>
<!-- no -->
<g id="node8" class="node">
<title>no</title>
<polygon fill="none" stroke="black" points="188,-182 0,-182 0,-146 188,-146 188,-182"/>
<text text-anchor="middle" x="94" y="-160.3" font-family="RocknRoll One" font-size="14.00">UserMyPageScreenに移行</text>
</g>
<!-- ok&#45;&gt;no -->
<g id="edge7" class="edge">
<title>ok&#45;&gt;no</title>
<path fill="none" stroke="black" d="M111.76,-233.61C108.71,-221.85 104.54,-205.73 101.01,-192.07"/>
<polygon fill="black" stroke="black" points="104.35,-191.02 98.46,-182.21 97.57,-192.77 104.35,-191.02"/>
<text text-anchor="middle" x="118" y="-203.8" font-family="RocknRoll One" font-size="14.00">NO</text>
</g>
<!-- db2 -->
<g id="node9" class="node">
<title>db2</title>
<polygon fill="none" stroke="black" points="313.5,-182 206.5,-182 206.5,-146 313.5,-146 313.5,-182"/>
<text text-anchor="middle" x="260" y="-160.3" font-family="RocknRoll One" font-size="14.00">DBにアクセス</text>
</g>
<!-- ok&#45;&gt;db2 -->
<g id="edge8" class="edge">
<title>ok&#45;&gt;db2</title>
<path fill="none" stroke="black" d="M138.18,-236.91C160.58,-223.68 195.6,-203.02 222.35,-187.23"/>
<polygon fill="black" stroke="black" points="224.24,-190.17 231.07,-182.07 220.68,-184.14 224.24,-190.17"/>
<text text-anchor="middle" x="208" y="-203.8" font-family="RocknRoll One" font-size="14.00">YES</text>
</g>
<!-- delete -->
<g id="node10" class="node">
<title>delete</title>
<polygon fill="none" stroke="black" points="318,-109 202,-109 202,-73 318,-73 318,-109"/>
<text text-anchor="middle" x="260" y="-87.3" font-family="RocknRoll One" font-size="14.00">投稿内容を削除</text>
</g>
<!-- db2&#45;&gt;delete -->
<g id="edge9" class="edge">
<title>db2&#45;&gt;delete</title>
<path fill="none" stroke="black" d="M260,-145.81C260,-137.79 260,-128.05 260,-119.07"/>
<polygon fill="black" stroke="black" points="263.5,-119.03 260,-109.03 256.5,-119.03 263.5,-119.03"/>
</g>
<!-- delete_display -->
<g id="node11" class="node">
<title>delete_display</title>
<polygon fill="none" stroke="black" points="368,-36 152,-36 152,0 368,0 368,-36"/>
<text text-anchor="middle" x="260" y="-14.3" font-family="RocknRoll One" font-size="14.00">「投稿を削除しました」と表示</text>
</g>
<!-- delete&#45;&gt;delete_display -->
<g id="edge10" class="edge">
<title>delete&#45;&gt;delete_display</title>
<path fill="none" stroke="black" d="M260,-72.81C260,-64.79 260,-55.05 260,-46.07"/>
<polygon fill="black" stroke="black" points="263.5,-46.03 260,-36.03 256.5,-46.03 263.5,-46.03"/>
</g>
</g>
</svg>
