<?xml version="1.0" encoding="UTF-8" standalone="no"?>
<!DOCTYPE svg PUBLIC "-//W3C//DTD SVG 1.1//EN"
 "http://www.w3.org/Graphics/SVG/1.1/DTD/svg11.dtd">
<!-- Generated by graphviz version 2.43.0 (0)
 -->
<!-- Title: G Pages: 1 -->
<svg width="726pt" height="204pt"
 viewBox="0.00 0.00 726.30 204.00" xmlns="http://www.w3.org/2000/svg" xmlns:xlink="http://www.w3.org/1999/xlink">
<g id="graph0" class="graph" transform="scale(1 1) rotate(0) translate(4 200)">
<title>G</title>
<!-- branch -->
<g id="node1" class="node">
<title>branch</title>
<polygon fill="none" stroke="black" points="431.3,-196 300.3,-196 300.3,-160 431.3,-160 431.3,-196"/>
<text text-anchor="middle" x="365.8" y="-174.3" font-family="RocknRoll One" font-size="14.00">ログアウトを選択</text>
</g>
<!-- no -->
<g id="node2" class="node">
<title>no</title>
<polygon fill="none" stroke="black" points="263.8,-109 0.2,-91 263.8,-73 527.39,-91 263.8,-109"/>
<text text-anchor="middle" x="263.8" y="-87.3" font-family="RocknRoll One" font-size="14.00">ログアウト画面へ遷移する前の画面へ遷移</text>
</g>
<!-- branch&#45;&gt;no -->
<g id="edge1" class="edge">
<title>branch&#45;&gt;no</title>
<path fill="none" stroke="black" d="M345.16,-159.8C329.45,-146.71 307.7,-128.58 290.64,-114.37"/>
<polygon fill="black" stroke="black" points="292.61,-111.46 282.69,-107.74 288.13,-116.83 292.61,-111.46"/>
<text text-anchor="middle" x="330.3" y="-130.8" font-family="RocknRoll One" font-size="14.00">No</text>
</g>
<!-- yes -->
<g id="node3" class="node">
<title>yes</title>
<polygon fill="none" stroke="black" points="718.3,-109 545.3,-109 545.3,-73 718.3,-73 718.3,-109"/>
<text text-anchor="middle" x="631.8" y="-87.3" font-family="RocknRoll One" font-size="14.00">セッション情報の無効化</text>
</g>
<!-- branch&#45;&gt;yes -->
<g id="edge2" class="edge">
<title>branch&#45;&gt;yes</title>
<path fill="none" stroke="black" d="M419.31,-159.9C462.42,-146.13 523.12,-126.73 568.62,-112.19"/>
<polygon fill="black" stroke="black" points="569.91,-115.45 578.37,-109.07 567.78,-108.78 569.91,-115.45"/>
<text text-anchor="middle" x="525.3" y="-130.8" font-family="RocknRoll One" font-size="14.00">Yes</text>
</g>
<!-- login -->
<g id="node4" class="node">
<title>login</title>
<polygon fill="none" stroke="black" points="718.3,-36 545.3,-36 545.3,0 718.3,0 718.3,-36"/>
<text text-anchor="middle" x="631.8" y="-14.3" font-family="RocknRoll One" font-size="14.00">UserLoginScreenに移行</text>
</g>
<!-- yes&#45;&gt;login -->
<g id="edge3" class="edge">
<title>yes&#45;&gt;login</title>
<path fill="none" stroke="black" d="M631.8,-72.81C631.8,-64.79 631.8,-55.05 631.8,-46.07"/>
<polygon fill="black" stroke="black" points="635.3,-46.03 631.8,-36.03 628.3,-46.03 635.3,-46.03"/>
</g>
</g>
</svg>
