<?xml version="1.0" encoding="UTF-8" standalone="no"?>
<!DOCTYPE svg PUBLIC "-//W3C//DTD SVG 1.1//EN"
 "http://www.w3.org/Graphics/SVG/1.1/DTD/svg11.dtd">
<!-- Generated by graphviz version 2.43.0 (0)
 -->
<!-- Title: G Pages: 1 -->
<svg width="1147pt" height="464pt"
 viewBox="14.40 14.40 1132.40 449.40" xmlns="http://www.w3.org/2000/svg" xmlns:xlink="http://www.w3.org/1999/xlink">
<g id="graph0" class="graph" transform="scale(1 1) rotate(0) translate(50.4 413.4)">
<title>G</title>
<!-- store -->
<g id="node1" class="node">
<title>store</title>
<polygon fill="none" stroke="black" points="215,-363 0,-334 215,-305 430,-334 215,-363"/>
<text text-anchor="middle" x="215" y="-330.3" font-family="RocknRoll One" font-size="14.00">店舗名が入力されている</text>
</g>
<!-- nostore -->
<g id="node2" class="node">
<title>nostore</title>
<polygon fill="none" stroke="black" points="279.5,-243 106.5,-243 106.5,-207 279.5,-207 279.5,-243"/>
<text text-anchor="middle" x="193" y="-221.3" font-family="RocknRoll One" font-size="14.00">メッセージを表示</text>
</g>
<!-- store&#45;&gt;nostore -->
<g id="edge1" class="edge">
<title>store&#45;&gt;nostore</title>
<path fill="none" stroke="black" d="M209.39,-305.72C206.07,-289.57 201.88,-269.18 198.57,-253.07"/>
<polygon fill="black" stroke="black" points="201.98,-252.27 196.53,-243.18 195.12,-253.68 201.98,-252.27"/>
<text text-anchor="middle" x="217" y="-275.8" font-family="RocknRoll One" font-size="14.00">NO</text>
</g>
<!-- phone -->
<g id="node3" class="node">
<title>phone</title>
<polygon fill="none" stroke="black" points="528,-254 298,-225 528,-196 758,-225 528,-254"/>
<text text-anchor="middle" x="528" y="-221.3" font-family="RocknRoll One" font-size="14.00">電話番号が入力されている</text>
</g>
<!-- store&#45;&gt;phone -->
<g id="edge2" class="edge">
<title>store&#45;&gt;phone</title>
<path fill="none" stroke="black" d="M273.87,-312.87C326.25,-294.97 402.9,-268.76 458.32,-249.82"/>
<polygon fill="black" stroke="black" points="459.73,-253.04 468.06,-246.49 457.47,-246.41 459.73,-253.04"/>
<text text-anchor="middle" x="403" y="-275.8" font-family="RocknRoll One" font-size="14.00">YES</text>
</g>
<!-- nophone -->
<g id="node4" class="node">
<title>nophone</title>
<polygon fill="none" stroke="black" points="526.5,-134 353.5,-134 353.5,-98 526.5,-98 526.5,-134"/>
<text text-anchor="middle" x="440" y="-112.3" font-family="RocknRoll One" font-size="14.00">メッセージを表示</text>
</g>
<!-- phone&#45;&gt;nophone -->
<g id="edge3" class="edge">
<title>phone&#45;&gt;nophone</title>
<path fill="none" stroke="black" d="M506.92,-198.37C492.85,-181.26 474.44,-158.88 460.49,-141.92"/>
<polygon fill="black" stroke="black" points="463.1,-139.58 454.04,-134.08 457.69,-144.02 463.1,-139.58"/>
<text text-anchor="middle" x="501" y="-166.8" font-family="RocknRoll One" font-size="14.00">NO</text>
</g>
<!-- address -->
<g id="node5" class="node">
<title>address</title>
<polygon fill="none" stroke="black" points="746,-145 545,-116 746,-87 947,-116 746,-145"/>
<text text-anchor="middle" x="746" y="-112.3" font-family="RocknRoll One" font-size="14.00">住所が入力されている</text>
</g>
<!-- phone&#45;&gt;address -->
<g id="edge4" class="edge">
<title>phone&#45;&gt;address</title>
<path fill="none" stroke="black" d="M573.43,-201.7C608.18,-184.65 656.16,-161.1 692.71,-143.16"/>
<polygon fill="black" stroke="black" points="694.31,-146.27 701.74,-138.72 691.22,-139.99 694.31,-146.27"/>
<text text-anchor="middle" x="663" y="-166.8" font-family="RocknRoll One" font-size="14.00">YES</text>
</g>
<!-- noaddress -->
<g id="node6" class="node">
<title>noaddress</title>
<polygon fill="none" stroke="black" points="697.5,-36 524.5,-36 524.5,0 697.5,0 697.5,-36"/>
<text text-anchor="middle" x="611" y="-14.3" font-family="RocknRoll One" font-size="14.00">メッセージを表示</text>
</g>
<!-- address&#45;&gt;noaddress -->
<g id="edge5" class="edge">
<title>address&#45;&gt;noaddress</title>
<path fill="none" stroke="black" d="M712.98,-91.52C691.84,-76.49 664.55,-57.08 643.52,-42.13"/>
<polygon fill="black" stroke="black" points="645.39,-39.16 635.22,-36.22 641.34,-44.87 645.39,-39.16"/>
<text text-anchor="middle" x="690" y="-57.8" font-family="RocknRoll One" font-size="14.00">NO</text>
</g>
<!-- move -->
<g id="node7" class="node">
<title>move</title>
<polygon fill="none" stroke="black" points="1046,-36 716,-36 716,0 1046,0 1046,-36"/>
<text text-anchor="middle" x="881" y="-14.3" font-family="RocknRoll One" font-size="14.00">InputBusinessRequestInformationに移行</text>
</g>
<!-- address&#45;&gt;move -->
<g id="edge6" class="edge">
<title>address&#45;&gt;move</title>
<path fill="none" stroke="black" d="M779.02,-91.52C800.16,-76.49 827.45,-57.08 848.48,-42.13"/>
<polygon fill="black" stroke="black" points="850.66,-44.87 856.78,-36.22 846.61,-39.16 850.66,-44.87"/>
<text text-anchor="middle" x="842" y="-57.8" font-family="RocknRoll One" font-size="14.00">YES</text>
</g>
</g>
</svg>
