<?xml version="1.0" encoding="UTF-8" standalone="no"?>
<!DOCTYPE svg PUBLIC "-//W3C//DTD SVG 1.1//EN"
 "http://www.w3.org/Graphics/SVG/1.1/DTD/svg11.dtd">
<!-- Generated by graphviz version 2.43.0 (0)
 -->
<!-- Title: G Pages: 1 -->
<svg width="358pt" height="277pt"
 viewBox="0.00 0.00 358.00 277.00" xmlns="http://www.w3.org/2000/svg" xmlns:xlink="http://www.w3.org/1999/xlink">
<g id="graph0" class="graph" transform="scale(1 1) rotate(0) translate(4 273)">
<title>G</title>
<!-- db -->
<g id="node1" class="node">
<title>db</title>
<polygon fill="none" stroke="black" points="232,-269 125,-269 125,-233 232,-233 232,-269"/>
<text text-anchor="middle" x="178.5" y="-247.3" font-family="RocknRoll One" font-size="14.00">DBにアクセス</text>
</g>
<!-- get -->
<g id="node2" class="node">
<title>get</title>
<polygon fill="none" stroke="black" points="265,-196 92,-196 92,-160 265,-160 265,-196"/>
<text text-anchor="middle" x="178.5" y="-174.3" font-family="RocknRoll One" font-size="14.00">マップ上の投稿数を取得</text>
</g>
<!-- db&#45;&gt;get -->
<g id="edge1" class="edge">
<title>db&#45;&gt;get</title>
<path fill="none" stroke="black" d="M178.5,-232.81C178.5,-224.79 178.5,-215.05 178.5,-206.07"/>
<polygon fill="black" stroke="black" points="182,-206.03 178.5,-196.03 175,-206.03 182,-206.03"/>
</g>
<!-- judge -->
<g id="node3" class="node">
<title>judge</title>
<polygon fill="none" stroke="black" points="178.5,-123 69.24,-105 178.5,-87 287.76,-105 178.5,-123"/>
<text text-anchor="middle" x="178.5" y="-101.3" font-family="RocknRoll One" font-size="14.00">投稿数が50以上</text>
</g>
<!-- get&#45;&gt;judge -->
<g id="edge2" class="edge">
<title>get&#45;&gt;judge</title>
<path fill="none" stroke="black" d="M178.5,-159.81C178.5,-151.79 178.5,-142.05 178.5,-133.07"/>
<polygon fill="black" stroke="black" points="182,-133.03 178.5,-123.03 175,-133.03 182,-133.03"/>
</g>
<!-- no -->
<g id="node4" class="node">
<title>no</title>
<polygon fill="none" stroke="black" points="173,-36 0,-36 0,0 173,0 173,-36"/>
<text text-anchor="middle" x="86.5" y="-14.3" font-family="RocknRoll One" font-size="14.00">通常サイズでピンを表示</text>
</g>
<!-- judge&#45;&gt;no -->
<g id="edge3" class="edge">
<title>judge&#45;&gt;no</title>
<path fill="none" stroke="black" d="M162.47,-89.19C148.76,-76.52 128.75,-58.03 112.71,-43.21"/>
<polygon fill="black" stroke="black" points="114.91,-40.49 105.19,-36.27 110.16,-45.63 114.91,-40.49"/>
<text text-anchor="middle" x="149.5" y="-57.8" font-family="RocknRoll One" font-size="14.00">NO</text>
</g>
<!-- yes -->
<g id="node5" class="node">
<title>yes</title>
<polygon fill="none" stroke="black" points="350,-36 191,-36 191,0 350,0 350,-36"/>
<text text-anchor="middle" x="270.5" y="-14.3" font-family="RocknRoll One" font-size="14.00">ピンを大きくして表示</text>
</g>
<!-- judge&#45;&gt;yes -->
<g id="edge4" class="edge">
<title>judge&#45;&gt;yes</title>
<path fill="none" stroke="black" d="M194.53,-89.19C208.24,-76.52 228.25,-58.03 244.29,-43.21"/>
<polygon fill="black" stroke="black" points="246.84,-45.63 251.81,-36.27 242.09,-40.49 246.84,-45.63"/>
<text text-anchor="middle" x="241.5" y="-57.8" font-family="RocknRoll One" font-size="14.00">YES</text>
</g>
</g>
</svg>
