<?xml version="1.0" encoding="UTF-8" standalone="no"?>
<!DOCTYPE svg PUBLIC "-//W3C//DTD SVG 1.1//EN"
 "http://www.w3.org/Graphics/SVG/1.1/DTD/svg11.dtd">
<!-- Generated by graphviz version 2.43.0 (0)
 -->
<!-- Title: G Pages: 1 -->
<svg width="1212pt" height="364pt"
 viewBox="0.00 0.00 1211.78 364.00" xmlns="http://www.w3.org/2000/svg" xmlns:xlink="http://www.w3.org/1999/xlink">
<g id="graph0" class="graph" transform="scale(1 1) rotate(0) translate(4 360)">
<title>G</title>
<!-- input -->
<g id="node1" class="node">
<title>input</title>
<polygon fill="none" stroke="black" points="521.16,-356 -0.16,-338 521.16,-320 1042.49,-338 521.16,-356"/>
<text text-anchor="middle" x="521.16" y="-334.3" font-family="RocknRoll One" font-size="14.00">退会理由(任意)を記入，削除確認項目にすべてチェック，アカウントを削除するを選択</text>
</g>
<!-- withdrawal_no -->
<g id="node2" class="node">
<title>withdrawal_no</title>
<polygon fill="none" stroke="black" points="593.16,-269 405.16,-269 405.16,-233 593.16,-233 593.16,-269"/>
<text text-anchor="middle" x="499.16" y="-247.3" font-family="RocknRoll One" font-size="14.00">UserMyPageScreenに移行</text>
</g>
<!-- input&#45;&gt;withdrawal_no -->
<g id="edge1" class="edge">
<title>input&#45;&gt;withdrawal_no</title>
<path fill="none" stroke="black" d="M516.71,-319.8C513.7,-308.16 509.66,-292.55 506.21,-279.24"/>
<polygon fill="black" stroke="black" points="509.5,-277.98 503.61,-269.18 502.72,-279.73 509.5,-277.98"/>
<text text-anchor="middle" x="523.16" y="-290.8" font-family="RocknRoll One" font-size="14.00">NO</text>
</g>
<!-- withdrawal_yes -->
<g id="node3" class="node">
<title>withdrawal_yes</title>
<polygon fill="none" stroke="black" points="1197.66,-269 610.66,-269 610.66,-233 1197.66,-233 1197.66,-269"/>
<text text-anchor="middle" x="904.16" y="-247.3" font-family="RocknRoll One" font-size="14.00">「本当にアカウントを削除してもよろしいですか？この操作は取り消せません。」を表示</text>
</g>
<!-- input&#45;&gt;withdrawal_yes -->
<g id="edge2" class="edge">
<title>input&#45;&gt;withdrawal_yes</title>
<path fill="none" stroke="black" d="M587.88,-322.19C651.51,-308.07 747.7,-286.72 817.29,-271.28"/>
<polygon fill="black" stroke="black" points="818.35,-274.63 827.35,-269.05 816.83,-267.8 818.35,-274.63"/>
<text text-anchor="middle" x="748.16" y="-290.8" font-family="RocknRoll One" font-size="14.00">YES</text>
</g>
<!-- ok -->
<g id="node4" class="node">
<title>ok</title>
<polygon fill="none" stroke="black" points="972.66,-196 835.66,-196 835.66,-160 972.66,-160 972.66,-196"/>
<text text-anchor="middle" x="904.16" y="-174.3" font-family="RocknRoll One" font-size="14.00">「OK」をクリック</text>
</g>
<!-- withdrawal_yes&#45;&gt;ok -->
<g id="edge3" class="edge">
<title>withdrawal_yes&#45;&gt;ok</title>
<path fill="none" stroke="black" d="M904.16,-232.81C904.16,-224.79 904.16,-215.05 904.16,-206.07"/>
<polygon fill="black" stroke="black" points="907.66,-206.03 904.16,-196.03 900.66,-206.03 907.66,-206.03"/>
</g>
<!-- confirmation_no -->
<g id="node5" class="node">
<title>confirmation_no</title>
<polygon fill="none" stroke="black" points="972.16,-109 792.16,-109 792.16,-73 972.16,-73 972.16,-109"/>
<text text-anchor="middle" x="882.16" y="-87.3" font-family="RocknRoll One" font-size="14.00">UserDeleteScreenに移行</text>
</g>
<!-- ok&#45;&gt;confirmation_no -->
<g id="edge4" class="edge">
<title>ok&#45;&gt;confirmation_no</title>
<path fill="none" stroke="black" d="M899.71,-159.8C896.7,-148.16 892.66,-132.55 889.21,-119.24"/>
<polygon fill="black" stroke="black" points="892.5,-117.98 886.61,-109.18 885.72,-119.73 892.5,-117.98"/>
<text text-anchor="middle" x="906.16" y="-130.8" font-family="RocknRoll One" font-size="14.00">NO</text>
</g>
<!-- confirmation_yes -->
<g id="node6" class="node">
<title>confirmation_yes</title>
<polygon fill="none" stroke="black" points="1097.16,-109 990.42,-91 1097.16,-73 1203.91,-91 1097.16,-109"/>
<text text-anchor="middle" x="1097.16" y="-87.3" font-family="RocknRoll One" font-size="14.00">会員情報を削除</text>
</g>
<!-- ok&#45;&gt;confirmation_yes -->
<g id="edge5" class="edge">
<title>ok&#45;&gt;confirmation_yes</title>
<path fill="none" stroke="black" d="M943.22,-159.8C977.2,-144.83 1026.13,-123.28 1059.65,-108.52"/>
<polygon fill="black" stroke="black" points="1061.36,-111.59 1069.1,-104.36 1058.54,-105.19 1061.36,-111.59"/>
<text text-anchor="middle" x="1024.16" y="-130.8" font-family="RocknRoll One" font-size="14.00">YES</text>
</g>
<!-- login -->
<g id="node7" class="node">
<title>login</title>
<polygon fill="none" stroke="black" points="1183.66,-36 1010.66,-36 1010.66,0 1183.66,0 1183.66,-36"/>
<text text-anchor="middle" x="1097.16" y="-14.3" font-family="RocknRoll One" font-size="14.00">UserLoginScreenに移行</text>
</g>
<!-- confirmation_yes&#45;&gt;login -->
<g id="edge6" class="edge">
<title>confirmation_yes&#45;&gt;login</title>
<path fill="none" stroke="black" d="M1097.16,-72.81C1097.16,-64.79 1097.16,-55.05 1097.16,-46.07"/>
<polygon fill="black" stroke="black" points="1100.66,-46.03 1097.16,-36.03 1093.66,-46.03 1100.66,-46.03"/>
</g>
</g>
</svg>
