<?xml version="1.0" encoding="UTF-8" standalone="no"?>
<!DOCTYPE svg PUBLIC "-//W3C//DTD SVG 1.1//EN"
 "http://www.w3.org/Graphics/SVG/1.1/DTD/svg11.dtd">
<!-- Generated by graphviz version 2.43.0 (0)
 -->
<!-- Title: G Pages: 1 -->
<svg width="363pt" height="458pt"
 viewBox="0.00 0.00 362.79 458.00" xmlns="http://www.w3.org/2000/svg" xmlns:xlink="http://www.w3.org/1999/xlink">
<g id="graph0" class="graph" transform="scale(1 1) rotate(0) translate(4 454)">
<title>G</title>
<!-- auth -->
<g id="node1" class="node">
<title>auth</title>
<polygon fill="none" stroke="black" points="259.4,-450 95.4,-450 95.4,-414 259.4,-414 259.4,-450"/>
<text text-anchor="middle" x="177.4" y="-428.3" font-family="RocknRoll One" font-size="14.00">Google認証にアクセス</text>
</g>
<!-- info -->
<g id="node2" class="node">
<title>info</title>
<polygon fill="none" stroke="black" points="280.4,-377 74.4,-377 74.4,-341 280.4,-341 280.4,-377"/>
<text text-anchor="middle" x="177.4" y="-355.3" font-family="RocknRoll One" font-size="14.00">Googelから利用者情報を取得</text>
</g>
<!-- auth&#45;&gt;info -->
<g id="edge1" class="edge">
<title>auth&#45;&gt;info</title>
<path fill="none" stroke="black" d="M177.4,-413.81C177.4,-405.79 177.4,-396.05 177.4,-387.07"/>
<polygon fill="black" stroke="black" points="180.9,-387.03 177.4,-377.03 173.9,-387.03 180.9,-387.03"/>
</g>
<!-- exist -->
<g id="node3" class="node">
<title>exist</title>
<polygon fill="none" stroke="black" points="177.4,-304 0.1,-286 177.4,-268 354.69,-286 177.4,-304"/>
<text text-anchor="middle" x="177.4" y="-282.3" font-family="RocknRoll One" font-size="14.00">DBにユーザーが存在するか</text>
</g>
<!-- info&#45;&gt;exist -->
<g id="edge2" class="edge">
<title>info&#45;&gt;exist</title>
<path fill="none" stroke="black" d="M177.4,-340.81C177.4,-332.79 177.4,-323.05 177.4,-314.07"/>
<polygon fill="black" stroke="black" points="180.9,-314.03 177.4,-304.03 173.9,-314.03 180.9,-314.03"/>
</g>
<!-- login -->
<g id="node4" class="node">
<title>login</title>
<polygon fill="none" stroke="black" points="202.4,-163 100.4,-163 100.4,-127 202.4,-127 202.4,-163"/>
<text text-anchor="middle" x="151.4" y="-141.3" font-family="RocknRoll One" font-size="14.00">ログイン処理</text>
</g>
<!-- exist&#45;&gt;login -->
<g id="edge3" class="edge">
<title>exist&#45;&gt;login</title>
<path fill="none" stroke="black" d="M174.26,-268.23C169.85,-244.67 161.78,-201.49 156.5,-173.27"/>
<polygon fill="black" stroke="black" points="159.91,-172.45 154.63,-163.26 153.02,-173.74 159.91,-172.45"/>
<text text-anchor="middle" x="182.9" y="-238.8" font-family="RocknRoll One" font-size="14.00">Yes</text>
</g>
<!-- db -->
<g id="node5" class="node">
<title>db</title>
<polygon fill="none" stroke="black" points="290.9,-217 183.9,-217 183.9,-181 290.9,-181 290.9,-217"/>
<text text-anchor="middle" x="237.4" y="-195.3" font-family="RocknRoll One" font-size="14.00">DBにアクセス</text>
</g>
<!-- exist&#45;&gt;db -->
<g id="edge4" class="edge">
<title>exist&#45;&gt;db</title>
<path fill="none" stroke="black" d="M188.68,-269.01C197.34,-256.75 209.46,-239.57 219.45,-225.43"/>
<polygon fill="black" stroke="black" points="222.43,-227.27 225.34,-217.08 216.71,-223.23 222.43,-227.27"/>
<text text-anchor="middle" x="220.9" y="-238.8" font-family="RocknRoll One" font-size="14.00">No</text>
</g>
<!-- result -->
<g id="node7" class="node">
<title>result</title>
<polygon fill="none" stroke="black" points="254.9,-36 59.9,-36 59.9,0 254.9,0 254.9,-36"/>
<text text-anchor="middle" x="157.4" y="-14.3" font-family="RocknRoll One" font-size="14.00">UserMapViewScreenに移行</text>
</g>
<!-- login&#45;&gt;result -->
<g id="edge6" class="edge">
<title>login&#45;&gt;result</title>
<path fill="none" stroke="black" d="M152.22,-126.88C153.21,-106.15 154.9,-70.95 156.08,-46.42"/>
<polygon fill="black" stroke="black" points="159.58,-46.47 156.57,-36.31 152.59,-46.13 159.58,-46.47"/>
</g>
<!-- save -->
<g id="node6" class="node">
<title>save</title>
<polygon fill="none" stroke="black" points="304.9,-109 173.9,-109 173.9,-73 304.9,-73 304.9,-109"/>
<text text-anchor="middle" x="239.4" y="-87.3" font-family="RocknRoll One" font-size="14.00">利用者情報を格納</text>
</g>
<!-- db&#45;&gt;save -->
<g id="edge5" class="edge">
<title>db&#45;&gt;save</title>
<path fill="none" stroke="black" d="M237.72,-180.97C238.03,-164.38 238.51,-138.88 238.88,-119.43"/>
<polygon fill="black" stroke="black" points="242.38,-119.4 239.07,-109.34 235.38,-119.27 242.38,-119.4"/>
</g>
<!-- save&#45;&gt;result -->
<g id="edge7" class="edge">
<title>save&#45;&gt;result</title>
<path fill="none" stroke="black" d="M219.55,-72.81C209.07,-63.74 196.06,-52.48 184.65,-42.6"/>
<polygon fill="black" stroke="black" points="186.92,-39.93 177.06,-36.03 182.33,-45.22 186.92,-39.93"/>
</g>
</g>
</svg>
