<?xml version="1.0" encoding="UTF-8" standalone="no"?>
<!DOCTYPE svg PUBLIC "-//W3C//DTD SVG 1.1//EN"
 "http://www.w3.org/Graphics/SVG/1.1/DTD/svg11.dtd">
<!-- Generated by graphviz version 2.43.0 (0)
 -->
<!-- Title: G Pages: 1 -->
<svg width="829pt" height="583pt"
 viewBox="0.00 0.00 829.00 583.00" xmlns="http://www.w3.org/2000/svg" xmlns:xlink="http://www.w3.org/1999/xlink">
<g id="graph0" class="graph" transform="scale(1 1) rotate(0) translate(4 579)">
<title>G</title>
<!-- serect -->
<g id="node1" class="node">
<title>serect</title>
<polygon fill="none" stroke="black" points="497,-575 324,-575 324,-539 497,-539 497,-575"/>
<text text-anchor="middle" x="410.5" y="-553.3" font-family="RocknRoll One" font-size="14.00">「ブロック」を選択する</text>
</g>
<!-- display -->
<g id="node2" class="node">
<title>display</title>
<polygon fill="none" stroke="black" points="821,-502 0,-502 0,-466 821,-466 821,-502"/>
<text text-anchor="middle" x="410.5" y="-480.3" font-family="RocknRoll One" font-size="14.00">「このユーザーをブロックしますか？ブロックすると相手の投稿が表示されなくなります。」・「OK」「キャンセル」を表示</text>
</g>
<!-- serect&#45;&gt;display -->
<g id="edge1" class="edge">
<title>serect&#45;&gt;display</title>
<path fill="none" stroke="black" d="M410.5,-538.81C410.5,-530.79 410.5,-521.05 410.5,-512.07"/>
<polygon fill="black" stroke="black" points="414,-512.03 410.5,-502.03 407,-512.03 414,-512.03"/>
</g>
<!-- ok -->
<g id="node3" class="node">
<title>ok</title>
<polygon fill="none" stroke="black" points="410.5,-429 284.65,-411 410.5,-393 536.35,-411 410.5,-429"/>
<text text-anchor="middle" x="410.5" y="-407.3" font-family="RocknRoll One" font-size="14.00">「OK」を選択する</text>
</g>
<!-- display&#45;&gt;ok -->
<g id="edge2" class="edge">
<title>display&#45;&gt;ok</title>
<path fill="none" stroke="black" d="M410.5,-465.81C410.5,-457.79 410.5,-448.05 410.5,-439.07"/>
<polygon fill="black" stroke="black" points="414,-439.03 410.5,-429.03 407,-439.03 414,-439.03"/>
</g>
<!-- db -->
<g id="node4" class="node">
<title>db</title>
<polygon fill="none" stroke="black" points="418,-342 311,-342 311,-306 418,-306 418,-342"/>
<text text-anchor="middle" x="364.5" y="-320.3" font-family="RocknRoll One" font-size="14.00">DBにアクセス</text>
</g>
<!-- ok&#45;&gt;db -->
<g id="edge3" class="edge">
<title>ok&#45;&gt;db</title>
<path fill="none" stroke="black" d="M401.85,-394.01C395.33,-381.98 386.27,-365.22 378.7,-351.23"/>
<polygon fill="black" stroke="black" points="381.58,-349.21 373.74,-342.08 375.43,-352.54 381.58,-349.21"/>
<text text-anchor="middle" x="402.5" y="-363.8" font-family="RocknRoll One" font-size="14.00">YES</text>
</g>
<!-- view -->
<g id="node8" class="node">
<title>view</title>
<polygon fill="none" stroke="black" points="481.5,-36 285.5,-36 285.5,0 481.5,0 481.5,-36"/>
<text text-anchor="middle" x="383.5" y="-14.3" font-family="RocknRoll One" font-size="14.00">UserPinDetailScreenに移行</text>
</g>
<!-- ok&#45;&gt;view -->
<g id="edge4" class="edge">
<title>ok&#45;&gt;view</title>
<path fill="none" stroke="black" d="M423.02,-394.77C435.08,-378.53 451.5,-351.54 451.5,-325 451.5,-325 451.5,-325 451.5,-90 451.5,-70.56 438.04,-54.36 423.09,-42.37"/>
<polygon fill="black" stroke="black" points="424.83,-39.3 414.71,-36.15 420.66,-44.92 424.83,-39.3"/>
<text text-anchor="middle" x="462.5" y="-203.8" font-family="RocknRoll One" font-size="14.00">NO</text>
</g>
<!-- store -->
<g id="node5" class="node">
<title>store</title>
<polygon fill="none" stroke="black" points="407,-269 262,-269 262,-233 407,-233 407,-269"/>
<text text-anchor="middle" x="334.5" y="-247.3" font-family="RocknRoll One" font-size="14.00">ブロック情報の格納</text>
</g>
<!-- db&#45;&gt;store -->
<g id="edge5" class="edge">
<title>db&#45;&gt;store</title>
<path fill="none" stroke="black" d="M357.24,-305.81C353.77,-297.62 349.55,-287.62 345.69,-278.48"/>
<polygon fill="black" stroke="black" points="348.81,-276.88 341.7,-269.03 342.36,-279.6 348.81,-276.88"/>
</g>
<!-- output -->
<g id="node6" class="node">
<title>output</title>
<polygon fill="none" stroke="black" points="423,-182 150,-182 150,-146 423,-146 423,-182"/>
<text text-anchor="middle" x="286.5" y="-160.3" font-family="RocknRoll One" font-size="14.00">「ユーザーをブロックしました」の表示</text>
</g>
<!-- store&#45;&gt;output -->
<g id="edge6" class="edge">
<title>store&#45;&gt;output</title>
<path fill="none" stroke="black" d="M324.79,-232.8C318.02,-220.82 308.87,-204.62 301.21,-191.06"/>
<polygon fill="black" stroke="black" points="304.16,-189.16 296.2,-182.18 298.07,-192.6 304.16,-189.16"/>
</g>
<!-- map -->
<g id="node7" class="node">
<title>map</title>
<polygon fill="none" stroke="black" points="414,-109 219,-109 219,-73 414,-73 414,-109"/>
<text text-anchor="middle" x="316.5" y="-87.3" font-family="RocknRoll One" font-size="14.00">UserMapViewScreenに移行</text>
</g>
<!-- output&#45;&gt;map -->
<g id="edge7" class="edge">
<title>output&#45;&gt;map</title>
<path fill="none" stroke="black" d="M293.76,-145.81C297.23,-137.62 301.45,-127.62 305.31,-118.48"/>
<polygon fill="black" stroke="black" points="308.64,-119.6 309.3,-109.03 302.19,-116.88 308.64,-119.6"/>
</g>
<!-- map&#45;&gt;view -->
<g id="edge8" class="edge">
<title>map&#45;&gt;view</title>
<path fill="none" stroke="black" d="M332.72,-72.81C341.03,-64 351.3,-53.13 360.42,-43.46"/>
<polygon fill="black" stroke="black" points="363.11,-45.7 367.43,-36.03 358.02,-40.9 363.11,-45.7"/>
</g>
</g>
</svg>
