<?xml version="1.0" encoding="UTF-8" standalone="no"?>
<!DOCTYPE svg PUBLIC "-//W3C//DTD SVG 1.1//EN"
 "http://www.w3.org/Graphics/SVG/1.1/DTD/svg11.dtd">
<!-- Generated by graphviz version 2.43.0 (0)
 -->
<!-- Title: G Pages: 1 -->
<svg width="6170pt" height="1212pt"
 viewBox="0.00 0.00 1480.78 291.00" xmlns="http://www.w3.org/2000/svg" xmlns:xlink="http://www.w3.org/1999/xlink">
<g id="graph0" class="graph" transform="scale(4.17 4.17) rotate(0) translate(4 287)">
<title>G</title>
<!-- input -->
<g id="node1" class="node">
<title>input</title>
<polygon fill="none" stroke="black" points="521.16,-283 -0.16,-265 521.16,-247 1042.49,-265 521.16,-283"/>
<text text-anchor="middle" x="521.16" y="-261.3" font-family="RocknRoll One" font-size="14.00">退会理由(任意)を記入，削除確認項目にすべてチェック，アカウントを削除するを選択</text>
</g>
<!-- withdrawal_no -->
<g id="node2" class="node">
<title>withdrawal_no</title>
<polygon fill="none" stroke="black" points="368.16,-196 180.16,-196 180.16,-160 368.16,-160 368.16,-196"/>
<text text-anchor="middle" x="274.16" y="-174.3" font-family="RocknRoll One" font-size="14.00">UserMyPageScreenに移行</text>
</g>
<!-- input&#45;&gt;withdrawal_no -->
<g id="edge1" class="edge">
<title>input&#45;&gt;withdrawal_no</title>
<path fill="none" stroke="black" d="M476.15,-248.51C436.17,-234.75 377.47,-214.55 333.64,-199.47"/>
<polygon fill="black" stroke="black" points="334.56,-196.08 323.96,-196.14 332.28,-202.7 334.56,-196.08"/>
<text text-anchor="middle" x="424.16" y="-217.8" font-family="RocknRoll One" font-size="14.00">NO</text>
</g>
<!-- withdrawal_yes -->
<g id="node3" class="node">
<title>withdrawal_yes</title>
<polygon fill="none" stroke="black" points="972.66,-196 385.66,-196 385.66,-160 972.66,-160 972.66,-196"/>
<text text-anchor="middle" x="679.16" y="-174.3" font-family="RocknRoll One" font-size="14.00">「本当にアカウントを削除してもよろしいですか？この操作は取り消せません。」を表示</text>
</g>
<!-- input&#45;&gt;withdrawal_yes -->
<g id="edge2" class="edge">
<title>input&#45;&gt;withdrawal_yes</title>
<path fill="none" stroke="black" d="M550.88,-248.01C575.62,-234.7 611.09,-215.62 638.46,-200.9"/>
<polygon fill="black" stroke="black" points="640.26,-203.9 647.41,-196.08 636.94,-197.74 640.26,-203.9"/>
<text text-anchor="middle" x="622.16" y="-217.8" font-family="RocknRoll One" font-size="14.00">YES</text>
</g>
<!-- ok -->
<g id="node4" class="node">
<title>ok</title>
<polygon fill="none" stroke="black" points="1284.66,-196 1147.66,-196 1147.66,-160 1284.66,-160 1284.66,-196"/>
<text text-anchor="middle" x="1216.16" y="-174.3" font-family="RocknRoll One" font-size="14.00">「OK」をクリック</text>
</g>
<!-- confirmation_no -->
<g id="node5" class="node">
<title>confirmation_no</title>
<polygon fill="none" stroke="black" points="1241.16,-109 1061.16,-109 1061.16,-73 1241.16,-73 1241.16,-109"/>
<text text-anchor="middle" x="1151.16" y="-87.3" font-family="RocknRoll One" font-size="14.00">UserDeleteScreenに移行</text>
</g>
<!-- ok&#45;&gt;confirmation_no -->
<g id="edge4" class="edge">
<title>ok&#45;&gt;confirmation_no</title>
<path fill="none" stroke="black" d="M1203.01,-159.8C1193.67,-147.59 1180.98,-130.99 1170.49,-117.28"/>
<polygon fill="black" stroke="black" points="1173.15,-114.99 1164.3,-109.18 1167.59,-119.25 1173.15,-114.99"/>
<text text-anchor="middle" x="1199.16" y="-130.8" font-family="RocknRoll One" font-size="14.00">NO</text>
</g>
<!-- confirmation_yes -->
<g id="node6" class="node">
<title>confirmation_yes</title>
<polygon fill="none" stroke="black" points="1366.16,-109 1259.42,-91 1366.16,-73 1472.91,-91 1366.16,-109"/>
<text text-anchor="middle" x="1366.16" y="-87.3" font-family="RocknRoll One" font-size="14.00">会員情報を削除</text>
</g>
<!-- ok&#45;&gt;confirmation_yes -->
<g id="edge5" class="edge">
<title>ok&#45;&gt;confirmation_yes</title>
<path fill="none" stroke="black" d="M1246.52,-159.8C1271.94,-145.39 1308.13,-124.89 1334.03,-110.21"/>
<polygon fill="black" stroke="black" points="1335.76,-113.25 1342.73,-105.28 1332.31,-107.16 1335.76,-113.25"/>
<text text-anchor="middle" x="1311.16" y="-130.8" font-family="RocknRoll One" font-size="14.00">YES</text>
</g>
<!-- login -->
<g id="node7" class="node">
<title>login</title>
<polygon fill="none" stroke="black" points="1452.66,-36 1279.66,-36 1279.66,0 1452.66,0 1452.66,-36"/>
<text text-anchor="middle" x="1366.16" y="-14.3" font-family="RocknRoll One" font-size="14.00">UserLoginScreenに移行</text>
</g>
<!-- confirmation_yes&#45;&gt;login -->
<g id="edge6" class="edge">
<title>confirmation_yes&#45;&gt;login</title>
<path fill="none" stroke="black" d="M1366.16,-72.81C1366.16,-64.79 1366.16,-55.05 1366.16,-46.07"/>
<polygon fill="black" stroke="black" points="1369.66,-46.03 1366.16,-36.03 1362.66,-46.03 1369.66,-46.03"/>
</g>
<!-- withdrawal_yes　 -->
<g id="node8" class="node">
<title>withdrawal_yes　</title>
<polygon fill="none" stroke="black" points="1282.16,-283 1150.16,-283 1150.16,-247 1282.16,-247 1282.16,-283"/>
<text text-anchor="middle" x="1216.16" y="-261.3" font-family="RocknRoll One" font-size="14.00">withdrawal_yes　</text>
</g>
<!-- withdrawal_yes　&#45;&gt;ok -->
<g id="edge3" class="edge">
<title>withdrawal_yes　&#45;&gt;ok</title>
<path fill="none" stroke="black" d="M1216.16,-246.8C1216.16,-235.16 1216.16,-219.55 1216.16,-206.24"/>
<polygon fill="black" stroke="black" points="1219.66,-206.18 1216.16,-196.18 1212.66,-206.18 1219.66,-206.18"/>
</g>
</g>
</svg>
