<?xml version="1.0" encoding="UTF-8" standalone="no"?>
<!DOCTYPE svg PUBLIC "-//W3C//DTD SVG 1.1//EN"
 "http://www.w3.org/Graphics/SVG/1.1/DTD/svg11.dtd">
<!-- Generated by graphviz version 2.43.0 (0)
 -->
<!-- Title: G Pages: 1 -->
<svg width="2230pt" height="1517pt"
 viewBox="0.00 0.00 535.17 364.00" xmlns="http://www.w3.org/2000/svg" xmlns:xlink="http://www.w3.org/1999/xlink">
<g id="graph0" class="graph" transform="scale(4.17 4.17) rotate(0) translate(4 360)">
<title>G</title>
<!-- inquiry -->
<g id="node1" class="node">
<title>inquiry</title>
<polygon fill="none" stroke="black" points="454.67,-356 138.67,-356 138.67,-320 454.67,-320 454.67,-356"/>
<text text-anchor="middle" x="296.67" y="-334.3" font-family="RocknRoll One" font-size="14.00">件名・メッセージ入力し，「送信する」を選択</text>
</g>
<!-- subject -->
<g id="node2" class="node">
<title>subject</title>
<polygon fill="none" stroke="black" points="296.67,-283 150.38,-265 296.67,-247 442.96,-265 296.67,-283"/>
<text text-anchor="middle" x="296.67" y="-261.3" font-family="RocknRoll One" font-size="14.00">件名が入力されている</text>
</g>
<!-- inquiry&#45;&gt;subject -->
<g id="edge1" class="edge">
<title>inquiry&#45;&gt;subject</title>
<path fill="none" stroke="black" d="M296.67,-319.81C296.67,-311.79 296.67,-302.05 296.67,-293.07"/>
<polygon fill="black" stroke="black" points="300.17,-293.03 296.67,-283.03 293.17,-293.03 300.17,-293.03"/>
</g>
<!-- message -->
<g id="node3" class="node">
<title>message</title>
<polygon fill="none" stroke="black" points="185.67,-196 -0.17,-178 185.67,-160 371.51,-178 185.67,-196"/>
<text text-anchor="middle" x="185.67" y="-174.3" font-family="RocknRoll One" font-size="14.00">メッセージが入力されている</text>
</g>
<!-- subject&#45;&gt;message -->
<g id="edge2" class="edge">
<title>subject&#45;&gt;message</title>
<path fill="none" stroke="black" d="M277.34,-249.19C259.73,-235.71 233.51,-215.64 213.62,-200.41"/>
<polygon fill="black" stroke="black" points="215.6,-197.51 205.53,-194.21 211.34,-203.07 215.6,-197.51"/>
<text text-anchor="middle" x="259.67" y="-217.8" font-family="RocknRoll One" font-size="14.00">YES</text>
</g>
<!-- no -->
<g id="node4" class="node">
<title>no</title>
<polygon fill="none" stroke="black" points="527.17,-109 268.17,-109 268.17,-73 527.17,-73 527.17,-109"/>
<text text-anchor="middle" x="397.67" y="-87.3" font-family="RocknRoll One" font-size="14.00">必須入力が入力されていない旨を表示</text>
</g>
<!-- subject&#45;&gt;no -->
<g id="edge3" class="edge">
<title>subject&#45;&gt;no</title>
<path fill="none" stroke="black" d="M322.65,-250C341.87,-238.22 367.01,-219.53 380.67,-196 394.33,-172.48 397.86,-141.2 398.41,-119.11"/>
<polygon fill="black" stroke="black" points="401.91,-119.1 398.48,-109.08 394.91,-119.05 401.91,-119.1"/>
<text text-anchor="middle" x="404.67" y="-174.3" font-family="RocknRoll One" font-size="14.00">NO</text>
</g>
<!-- message&#45;&gt;no -->
<g id="edge6" class="edge">
<title>message&#45;&gt;no</title>
<path fill="none" stroke="black" d="M220.2,-163.15C254.17,-149.54 306.45,-128.57 345.49,-112.92"/>
<polygon fill="black" stroke="black" points="347.13,-116.04 355.11,-109.07 344.52,-109.54 347.13,-116.04"/>
<text text-anchor="middle" x="314.67" y="-130.8" font-family="RocknRoll One" font-size="14.00">NO</text>
</g>
<!-- db -->
<g id="node5" class="node">
<title>db</title>
<polygon fill="none" stroke="black" points="239.17,-109 132.17,-109 132.17,-73 239.17,-73 239.17,-109"/>
<text text-anchor="middle" x="185.67" y="-87.3" font-family="RocknRoll One" font-size="14.00">DBにアクセス</text>
</g>
<!-- message&#45;&gt;db -->
<g id="edge4" class="edge">
<title>message&#45;&gt;db</title>
<path fill="none" stroke="black" d="M185.67,-159.8C185.67,-148.16 185.67,-132.55 185.67,-119.24"/>
<polygon fill="black" stroke="black" points="189.17,-119.18 185.67,-109.18 182.17,-119.18 189.17,-119.18"/>
<text text-anchor="middle" x="197.67" y="-130.8" font-family="RocknRoll One" font-size="14.00">YES</text>
</g>
<!-- input -->
<g id="node6" class="node">
<title>input</title>
<polygon fill="none" stroke="black" points="272.17,-36 99.17,-36 99.17,0 272.17,0 272.17,-36"/>
<text text-anchor="middle" x="185.67" y="-14.3" font-family="RocknRoll One" font-size="14.00">件名・メッセージを格納</text>
</g>
<!-- db&#45;&gt;input -->
<g id="edge5" class="edge">
<title>db&#45;&gt;input</title>
<path fill="none" stroke="black" d="M185.67,-72.81C185.67,-64.79 185.67,-55.05 185.67,-46.07"/>
<polygon fill="black" stroke="black" points="189.17,-46.03 185.67,-36.03 182.17,-46.03 189.17,-46.03"/>
</g>
</g>
</svg>
