<?xml version="1.0" encoding="UTF-8" standalone="no"?>
<!DOCTYPE svg PUBLIC "-//W3C//DTD SVG 1.1//EN"
 "http://www.w3.org/Graphics/SVG/1.1/DTD/svg11.dtd">
<!-- Generated by graphviz version 2.43.0 (0)
 -->
<!-- Title: G Pages: 1 -->
<svg width="634pt" height="524pt"
 viewBox="0.00 0.00 634.15 524.00" xmlns="http://www.w3.org/2000/svg" xmlns:xlink="http://www.w3.org/1999/xlink">
<g id="graph0" class="graph" transform="scale(1 1) rotate(0) translate(4 520)">
<title>G</title>
<!-- input -->
<g id="node1" class="node">
<title>input</title>
<polygon fill="none" stroke="black" points="464.15,-516 348.15,-516 348.15,-480 464.15,-480 464.15,-516"/>
<text text-anchor="middle" x="406.15" y="-494.3" font-family="RocknRoll One" font-size="14.00">投稿内容を入力</text>
</g>
<!-- title -->
<g id="node2" class="node">
<title>title</title>
<polygon fill="none" stroke="black" points="406.15,-443 233.54,-425 406.15,-407 578.75,-425 406.15,-443"/>
<text text-anchor="middle" x="406.15" y="-421.3" font-family="RocknRoll One" font-size="14.00">タイトルが入力されている</text>
</g>
<!-- input&#45;&gt;title -->
<g id="edge1" class="edge">
<title>input&#45;&gt;title</title>
<path fill="none" stroke="black" d="M406.15,-479.81C406.15,-471.79 406.15,-462.05 406.15,-453.07"/>
<polygon fill="black" stroke="black" points="409.65,-453.03 406.15,-443.03 402.65,-453.03 409.65,-453.03"/>
</g>
<!-- content -->
<g id="node3" class="node">
<title>content</title>
<polygon fill="none" stroke="black" points="319.15,-356 172.85,-338 319.15,-320 465.44,-338 319.15,-356"/>
<text text-anchor="middle" x="319.15" y="-334.3" font-family="RocknRoll One" font-size="14.00">説明が入力されている</text>
</g>
<!-- title&#45;&gt;content -->
<g id="edge2" class="edge">
<title>title&#45;&gt;content</title>
<path fill="none" stroke="black" d="M390.19,-408.41C376.74,-395.27 357.32,-376.29 342.18,-361.5"/>
<polygon fill="black" stroke="black" points="344.31,-358.69 334.71,-354.21 339.42,-363.7 344.31,-358.69"/>
<text text-anchor="middle" x="380.15" y="-377.8" font-family="RocknRoll One" font-size="14.00">YES</text>
</g>
<!-- no -->
<g id="node6" class="node">
<title>no</title>
<polygon fill="none" stroke="black" points="626.15,-182 310.15,-182 310.15,-146 626.15,-146 626.15,-182"/>
<text text-anchor="middle" x="468.15" y="-160.3" font-family="RocknRoll One" font-size="14.00">「このフィールドを入力してください」と表示</text>
</g>
<!-- title&#45;&gt;no -->
<g id="edge3" class="edge">
<title>title&#45;&gt;no</title>
<path fill="none" stroke="black" d="M428.52,-409.1C444.58,-396.95 464.95,-378.21 474.15,-356 496.78,-301.37 484.98,-230.22 475.73,-192.04"/>
<polygon fill="black" stroke="black" points="479.08,-191.01 473.22,-182.18 472.3,-192.74 479.08,-191.01"/>
<text text-anchor="middle" x="497.15" y="-290.8" font-family="RocknRoll One" font-size="14.00">NO</text>
</g>
<!-- latitude -->
<g id="node4" class="node">
<title>latitude</title>
<polygon fill="none" stroke="black" points="261.15,-269 114.85,-251 261.15,-233 407.44,-251 261.15,-269"/>
<text text-anchor="middle" x="261.15" y="-247.3" font-family="RocknRoll One" font-size="14.00">緯度が入力されている</text>
</g>
<!-- content&#45;&gt;latitude -->
<g id="edge4" class="edge">
<title>content&#45;&gt;latitude</title>
<path fill="none" stroke="black" d="M308.24,-321.01C299.65,-308.43 287.54,-290.68 277.75,-276.33"/>
<polygon fill="black" stroke="black" points="280.53,-274.2 272.01,-267.92 274.75,-278.15 280.53,-274.2"/>
<text text-anchor="middle" x="306.15" y="-290.8" font-family="RocknRoll One" font-size="14.00">YES</text>
</g>
<!-- content&#45;&gt;no -->
<g id="edge5" class="edge">
<title>content&#45;&gt;no</title>
<path fill="none" stroke="black" d="M345.76,-323.21C366.96,-311.18 396.27,-292.05 416.15,-269 435.92,-246.06 450.38,-214.29 458.96,-191.92"/>
<polygon fill="black" stroke="black" points="462.3,-192.96 462.48,-182.37 455.74,-190.54 462.3,-192.96"/>
<text text-anchor="middle" x="450.15" y="-247.3" font-family="RocknRoll One" font-size="14.00">NO</text>
</g>
<!-- longitude -->
<g id="node5" class="node">
<title>longitude</title>
<polygon fill="none" stroke="black" points="146.15,-182 -0.15,-164 146.15,-146 292.44,-164 146.15,-182"/>
<text text-anchor="middle" x="146.15" y="-160.3" font-family="RocknRoll One" font-size="14.00">経度が入力されている</text>
</g>
<!-- latitude&#45;&gt;longitude -->
<g id="edge6" class="edge">
<title>latitude&#45;&gt;longitude</title>
<path fill="none" stroke="black" d="M241.38,-235.39C222.86,-221.7 195.01,-201.12 174.2,-185.73"/>
<polygon fill="black" stroke="black" points="176.16,-182.84 166.04,-179.71 172,-188.46 176.16,-182.84"/>
<text text-anchor="middle" x="223.15" y="-203.8" font-family="RocknRoll One" font-size="14.00">YES</text>
</g>
<!-- latitude&#45;&gt;no -->
<g id="edge7" class="edge">
<title>latitude&#45;&gt;no</title>
<path fill="none" stroke="black" d="M293.04,-236.91C326.07,-223.34 378.2,-201.93 417.01,-186"/>
<polygon fill="black" stroke="black" points="418.64,-189.11 426.56,-182.07 415.98,-182.64 418.64,-189.11"/>
<text text-anchor="middle" x="388.15" y="-203.8" font-family="RocknRoll One" font-size="14.00">NO</text>
</g>
<!-- db -->
<g id="node7" class="node">
<title>db</title>
<polygon fill="none" stroke="black" points="199.65,-109 92.65,-109 92.65,-73 199.65,-73 199.65,-109"/>
<text text-anchor="middle" x="146.15" y="-87.3" font-family="RocknRoll One" font-size="14.00">DBにアクセス</text>
</g>
<!-- longitude&#45;&gt;db -->
<g id="edge8" class="edge">
<title>longitude&#45;&gt;db</title>
<path fill="none" stroke="black" d="M146.15,-145.81C146.15,-137.79 146.15,-128.05 146.15,-119.07"/>
<polygon fill="black" stroke="black" points="149.65,-119.03 146.15,-109.03 142.65,-119.03 149.65,-119.03"/>
</g>
<!-- store -->
<g id="node8" class="node">
<title>store</title>
<polygon fill="none" stroke="black" points="204.15,-36 88.15,-36 88.15,0 204.15,0 204.15,-36"/>
<text text-anchor="middle" x="146.15" y="-14.3" font-family="RocknRoll One" font-size="14.00">投稿内容を格納</text>
</g>
<!-- db&#45;&gt;store -->
<g id="edge9" class="edge">
<title>db&#45;&gt;store</title>
<path fill="none" stroke="black" d="M146.15,-72.81C146.15,-64.79 146.15,-55.05 146.15,-46.07"/>
<polygon fill="black" stroke="black" points="149.65,-46.03 146.15,-36.03 142.65,-46.03 149.65,-46.03"/>
</g>
</g>
</svg>
