<?xml version="1.0" encoding="UTF-8" standalone="no"?>
<!DOCTYPE svg PUBLIC "-//W3C//DTD SVG 1.1//EN"
 "http://www.w3.org/Graphics/SVG/1.1/DTD/svg11.dtd">
<!-- Generated by graphviz version 2.43.0 (0)
 -->
<!-- Title: G Pages: 1 -->
<svg width="693pt" height="392pt"
 viewBox="14.40 14.40 678.40 377.40" xmlns="http://www.w3.org/2000/svg" xmlns:xlink="http://www.w3.org/1999/xlink">
<g id="graph0" class="graph" transform="scale(1 1) rotate(0) translate(50.4 341.4)">
<title>G</title>
<!-- db -->
<g id="node1" class="node">
<title>db</title>
<polygon fill="none" stroke="black" points="371,-291 222,-291 222,-255 371,-255 371,-291"/>
<text text-anchor="middle" x="296.5" y="-269.3" font-family="RocknRoll One" font-size="14.00">DBにアクセス</text>
</g>
<!-- post -->
<g id="node2" class="node">
<title>post</title>
<polygon fill="none" stroke="black" points="482.5,-218 110.5,-218 110.5,-182 482.5,-182 482.5,-218"/>
<text text-anchor="middle" x="296.5" y="-196.3" font-family="RocknRoll One" font-size="14.00">リアクションされた投稿のリアクション数を取得</text>
</g>
<!-- db&#45;&gt;post -->
<g id="edge1" class="edge">
<title>db&#45;&gt;post</title>
<path fill="none" stroke="black" d="M296.5,-254.81C296.5,-246.79 296.5,-237.05 296.5,-228.07"/>
<polygon fill="black" stroke="black" points="300,-228.03 296.5,-218.03 293,-228.03 300,-228.03"/>
</g>
<!-- judge -->
<g id="node3" class="node">
<title>judge</title>
<polygon fill="none" stroke="black" points="296.5,-145 9.5,-116 296.5,-87 583.5,-116 296.5,-145"/>
<text text-anchor="middle" x="296.5" y="-112.3" font-family="RocknRoll One" font-size="14.00">すでにリアクションをしている場合</text>
</g>
<!-- post&#45;&gt;judge -->
<g id="edge2" class="edge">
<title>post&#45;&gt;judge</title>
<path fill="none" stroke="black" d="M296.5,-181.61C296.5,-173.89 296.5,-164.48 296.5,-155.25"/>
<polygon fill="black" stroke="black" points="300,-155.01 296.5,-145.01 293,-155.01 300,-155.01"/>
</g>
<!-- add -->
<g id="node4" class="node">
<title>add</title>
<polygon fill="none" stroke="black" points="289,-36 0,-36 0,0 289,0 289,-36"/>
<text text-anchor="middle" x="144.5" y="-14.3" font-family="RocknRoll One" font-size="14.00">リアクション数に+1をし，再び格納</text>
</g>
<!-- judge&#45;&gt;add -->
<g id="edge3" class="edge">
<title>judge&#45;&gt;add</title>
<path fill="none" stroke="black" d="M258.14,-90.78C234.28,-75.7 203.79,-56.45 180.4,-41.68"/>
<polygon fill="black" stroke="black" points="182.14,-38.63 171.82,-36.25 178.4,-44.55 182.14,-38.63"/>
<text text-anchor="middle" x="231.5" y="-57.8" font-family="RocknRoll One" font-size="14.00">NO</text>
</g>
<!-- diff -->
<g id="node5" class="node">
<title>diff</title>
<polygon fill="none" stroke="black" points="592,-36 307,-36 307,0 592,0 592,-36"/>
<text text-anchor="middle" x="449.5" y="-14.3" font-family="RocknRoll One" font-size="14.00">リアクション数に&#45;1をし，再び格納</text>
</g>
<!-- judge&#45;&gt;diff -->
<g id="edge4" class="edge">
<title>judge&#45;&gt;diff</title>
<path fill="none" stroke="black" d="M335.11,-90.78C359.13,-75.7 389.82,-56.45 413.36,-41.68"/>
<polygon fill="black" stroke="black" points="415.39,-44.53 422,-36.25 411.67,-38.6 415.39,-44.53"/>
<text text-anchor="middle" x="403.5" y="-57.8" font-family="RocknRoll One" font-size="14.00">YES</text>
</g>
</g>
</svg>
