<?xml version="1.0" encoding="UTF-8" standalone="no"?>
<!DOCTYPE svg PUBLIC "-//W3C//DTD SVG 1.1//EN"
 "http://www.w3.org/Graphics/SVG/1.1/DTD/svg11.dtd">
<!-- Generated by graphviz version 2.43.0 (0)
 -->
<!-- Title: G Pages: 1 -->
<svg width="767pt" height="538pt"
 viewBox="14.40 14.40 752.90 523.40" xmlns="http://www.w3.org/2000/svg" xmlns:xlink="http://www.w3.org/1999/xlink">
<g id="graph0" class="graph" transform="scale(1 1) rotate(0) translate(50.4 487.4)">
<title>G</title>
<!-- input -->
<g id="node1" class="node">
<title>input</title>
<polygon fill="none" stroke="black" points="537,-437 379,-437 379,-401 537,-401 537,-437"/>
<text text-anchor="middle" x="458" y="-415.3" font-family="RocknRoll One" font-size="14.00">投稿内容を入力</text>
</g>
<!-- serect -->
<g id="node2" class="node">
<title>serect</title>
<polygon fill="none" stroke="black" points="608.5,-364 307.5,-364 307.5,-328 608.5,-328 608.5,-364"/>
<text text-anchor="middle" x="458" y="-342.3" font-family="RocknRoll One" font-size="14.00">「事業者名検索」をに事業者名を入力</text>
</g>
<!-- input&#45;&gt;serect -->
<g id="edge1" class="edge">
<title>input&#45;&gt;serect</title>
<path fill="none" stroke="black" d="M458,-400.81C458,-392.79 458,-383.05 458,-374.07"/>
<polygon fill="black" stroke="black" points="461.5,-374.03 458,-364.03 454.5,-374.03 461.5,-374.03"/>
</g>
<!-- serch -->
<g id="node3" class="node">
<title>serch</title>
<polygon fill="none" stroke="black" points="475.5,-291 302.5,-291 302.5,-255 475.5,-255 475.5,-291"/>
<text text-anchor="middle" x="389" y="-269.3" font-family="RocknRoll One" font-size="14.00">事業者情報を検索</text>
</g>
<!-- serect&#45;&gt;serch -->
<g id="edge2" class="edge">
<title>serect&#45;&gt;serch</title>
<path fill="none" stroke="black" d="M441.3,-327.81C432.74,-319 422.16,-308.13 412.77,-298.46"/>
<polygon fill="black" stroke="black" points="415.03,-295.76 405.55,-291.03 410.01,-300.64 415.03,-295.76"/>
</g>
<!-- check -->
<g id="node4" class="node">
<title>check</title>
<polygon fill="none" stroke="black" points="461,-218 189,-218 189,-182 461,-182 461,-218"/>
<text text-anchor="middle" x="325" y="-196.3" font-family="RocknRoll One" font-size="14.00">入力された事業者名の有無を確認</text>
</g>
<!-- serch&#45;&gt;check -->
<g id="edge3" class="edge">
<title>serch&#45;&gt;check</title>
<path fill="none" stroke="black" d="M373.51,-254.81C365.57,-246 355.76,-235.13 347.05,-225.46"/>
<polygon fill="black" stroke="black" points="349.65,-223.11 340.35,-218.03 344.45,-227.8 349.65,-223.11"/>
</g>
<!-- existence -->
<g id="node5" class="node">
<title>existence</title>
<polygon fill="none" stroke="black" points="244,-145 0,-116 244,-87 488,-116 244,-145"/>
<text text-anchor="middle" x="244" y="-112.3" font-family="RocknRoll One" font-size="14.00">検索した事業者名が存在する</text>
</g>
<!-- check&#45;&gt;existence -->
<g id="edge4" class="edge">
<title>check&#45;&gt;existence</title>
<path fill="none" stroke="black" d="M307.82,-181.61C298.62,-172.29 286.97,-160.5 276.15,-149.55"/>
<polygon fill="black" stroke="black" points="278.36,-146.8 268.84,-142.15 273.38,-151.72 278.36,-146.8"/>
</g>
<!-- no -->
<g id="node6" class="node">
<title>no</title>
<polygon fill="none" stroke="black" points="666.5,-36 365.5,-36 365.5,0 666.5,0 666.5,-36"/>
<text text-anchor="middle" x="516" y="-14.3" font-family="RocknRoll One" font-size="14.00">「その事業者は存在しません」と表示</text>
</g>
<!-- existence&#45;&gt;no -->
<g id="edge5" class="edge">
<title>existence&#45;&gt;no</title>
<path fill="none" stroke="black" d="M303.36,-94.05C349.32,-77.83 412.64,-55.48 458.21,-39.4"/>
<polygon fill="black" stroke="black" points="459.39,-42.69 467.65,-36.06 457.06,-36.09 459.39,-42.69"/>
<text text-anchor="middle" x="423" y="-57.8" font-family="RocknRoll One" font-size="14.00">NO</text>
</g>
<!-- yes -->
<g id="node7" class="node">
<title>yes</title>
<polygon fill="none" stroke="black" points="347.5,-36 132.5,-36 132.5,0 347.5,0 347.5,-36"/>
<text text-anchor="middle" x="240" y="-14.3" font-family="RocknRoll One" font-size="14.00">緯度と経度の項目を入力</text>
</g>
<!-- existence&#45;&gt;yes -->
<g id="edge7" class="edge">
<title>existence&#45;&gt;yes</title>
<path fill="none" stroke="black" d="M242.83,-86.97C242.3,-74.09 241.66,-58.87 241.13,-46.1"/>
<polygon fill="black" stroke="black" points="244.62,-45.9 240.71,-36.05 237.63,-46.19 244.62,-45.9"/>
<text text-anchor="middle" x="254" y="-57.8" font-family="RocknRoll One" font-size="14.00">YES</text>
</g>
<!-- no&#45;&gt;serect -->
<g id="edge6" class="edge">
<title>no&#45;&gt;serect</title>
<path fill="none" stroke="black" d="M516,-36.34C516,-55.57 516,-87.5 516,-115 516,-274 516,-274 516,-274 516,-292.49 504.05,-308.83 491,-321.15"/>
<polygon fill="black" stroke="black" points="488.48,-318.7 483.27,-327.93 493.1,-323.97 488.48,-318.7"/>
</g>
</g>
</svg>
