<?xml version="1.0" encoding="UTF-8" standalone="no"?>
<!DOCTYPE svg PUBLIC "-//W3C//DTD SVG 1.1//EN"
 "http://www.w3.org/Graphics/SVG/1.1/DTD/svg11.dtd">
<!-- Generated by graphviz version 2.43.0 (0)
 -->
<!-- Title: G Pages: 1 -->
<svg width="623pt" height="332pt"
 viewBox="0.00 0.00 623.00 332.00" xmlns="http://www.w3.org/2000/svg" xmlns:xlink="http://www.w3.org/1999/xlink">
<g id="graph0" class="graph" transform="scale(1 1) rotate(0) translate(4 328)">
<title>G</title>
<!-- screen -->
<g id="node1" class="node">
<title>screen</title>
<polygon fill="none" stroke="black" points="365.5,-324 249.5,-324 249.5,-288 365.5,-288 365.5,-324"/>
<text text-anchor="middle" x="307.5" y="-302.3" font-family="RocknRoll One" font-size="14.00">退会画面の表示</text>
</g>
<!-- click -->
<g id="node2" class="node">
<title>click</title>
<polygon fill="none" stroke="black" points="427,-252 188,-252 188,-216 427,-216 427,-252"/>
<text text-anchor="middle" x="307.5" y="-230.3" font-family="RocknRoll One" font-size="14.00">チェックボックス3つ全てクリック</text>
</g>
<!-- screen&#45;&gt;click -->
<g id="edge1" class="edge">
<title>screen&#45;&gt;click</title>
<path fill="none" stroke="black" d="M307.5,-287.7C307.5,-279.98 307.5,-270.71 307.5,-262.11"/>
<polygon fill="black" stroke="black" points="311,-262.1 307.5,-252.1 304,-262.1 311,-262.1"/>
</g>
<!-- view -->
<g id="node3" class="node">
<title>view</title>
<polygon fill="none" stroke="black" points="615,-180 0,-180 0,-144 615,-144 615,-180"/>
<text text-anchor="middle" x="307.5" y="-158.3" font-family="RocknRoll One" font-size="14.00">「本当にアカウントを削除してもよろしいですか？この操作は取り消せません。」と表示する</text>
</g>
<!-- click&#45;&gt;view -->
<g id="edge2" class="edge">
<title>click&#45;&gt;view</title>
<path fill="none" stroke="black" d="M307.5,-215.7C307.5,-207.98 307.5,-198.71 307.5,-190.11"/>
<polygon fill="black" stroke="black" points="311,-190.1 307.5,-180.1 304,-190.1 311,-190.1"/>
</g>
<!-- ok -->
<g id="node4" class="node">
<title>ok</title>
<polygon fill="none" stroke="black" points="361.5,-108 253.5,-108 253.5,-72 361.5,-72 361.5,-108"/>
<text text-anchor="middle" x="307.5" y="-86.3" font-family="RocknRoll One" font-size="14.00">「OK」を選択</text>
</g>
<!-- view&#45;&gt;ok -->
<g id="edge3" class="edge">
<title>view&#45;&gt;ok</title>
<path fill="none" stroke="black" d="M307.5,-143.7C307.5,-135.98 307.5,-126.71 307.5,-118.11"/>
<polygon fill="black" stroke="black" points="311,-118.1 307.5,-108.1 304,-118.1 311,-118.1"/>
</g>
<!-- move -->
<g id="node5" class="node">
<title>move</title>
<polygon fill="none" stroke="black" points="374.5,-36 240.5,-36 240.5,0 374.5,0 374.5,-36"/>
<text text-anchor="middle" x="307.5" y="-14.3" font-family="RocknRoll One" font-size="14.00">Withdrawalに移行</text>
</g>
<!-- ok&#45;&gt;move -->
<g id="edge4" class="edge">
<title>ok&#45;&gt;move</title>
<path fill="none" stroke="black" d="M307.5,-71.7C307.5,-63.98 307.5,-54.71 307.5,-46.11"/>
<polygon fill="black" stroke="black" points="311,-46.1 307.5,-36.1 304,-46.1 311,-46.1"/>
</g>
</g>
</svg>
