<?xml version="1.0" encoding="UTF-8" standalone="no"?>
<!DOCTYPE svg PUBLIC "-//W3C//DTD SVG 1.1//EN"
 "http://www.w3.org/Graphics/SVG/1.1/DTD/svg11.dtd">
<!-- Generated by graphviz version 2.43.0 (0)
 -->
<!-- Title: G Pages: 1 -->
<svg width="675pt" height="319pt"
 viewBox="14.40 14.40 660.40 304.40" xmlns="http://www.w3.org/2000/svg" xmlns:xlink="http://www.w3.org/1999/xlink">
<g id="graph0" class="graph" transform="scale(1 1) rotate(0) translate(50.4 268.4)">
<title>G</title>
<!-- ok -->
<g id="node1" class="node">
<title>ok</title>
<polygon fill="none" stroke="black" points="207.5,-218 29.5,-189 207.5,-160 385.5,-189 207.5,-218"/>
<text text-anchor="middle" x="207.5" y="-185.3" font-family="RocknRoll One" font-size="14.00">WithdrawalScreen</text>
</g>
<!-- confirmation_no -->
<g id="node2" class="node">
<title>confirmation_no</title>
<polygon fill="none" stroke="black" points="221,-109 0,-109 0,-73 221,-73 221,-109"/>
<text text-anchor="middle" x="110.5" y="-87.3" font-family="RocknRoll One" font-size="14.00">WithdrawalScreenに移行</text>
</g>
<!-- ok&#45;&gt;confirmation_no -->
<g id="edge1" class="edge">
<title>ok&#45;&gt;confirmation_no</title>
<path fill="none" stroke="black" d="M183.02,-163.78C168.4,-149.3 149.87,-130.97 135.21,-116.45"/>
<polygon fill="black" stroke="black" points="137.5,-113.8 127.93,-109.25 132.58,-118.77 137.5,-113.8"/>
<text text-anchor="middle" x="194.5" y="-130.8" font-family="RocknRoll One" font-size="14.00">キャンセル</text>
</g>
<!-- confirmation_yes -->
<g id="node3" class="node">
<title>confirmation_yes</title>
<polygon fill="none" stroke="black" points="574,-109 239,-109 239,-73 574,-73 574,-109"/>
<text text-anchor="middle" x="406.5" y="-87.3" font-family="RocknRoll One" font-size="14.00">DBに会員情報をデタラメな値で上書きする</text>
</g>
<!-- ok&#45;&gt;confirmation_yes -->
<g id="edge2" class="edge">
<title>ok&#45;&gt;confirmation_yes</title>
<path fill="none" stroke="black" d="M251.17,-166.93C283.97,-151.11 328.74,-129.51 361.79,-113.57"/>
<polygon fill="black" stroke="black" points="363.73,-116.52 371.22,-109.02 360.69,-110.21 363.73,-116.52"/>
<text text-anchor="middle" x="345" y="-130.8" font-family="RocknRoll One" font-size="14.00">退会</text>
</g>
<!-- login -->
<g id="node4" class="node">
<title>login</title>
<polygon fill="none" stroke="black" points="498,-36 315,-36 315,0 498,0 498,-36"/>
<text text-anchor="middle" x="406.5" y="-14.3" font-family="RocknRoll One" font-size="14.00">LoginScreenに移行</text>
</g>
<!-- confirmation_yes&#45;&gt;login -->
<g id="edge3" class="edge">
<title>confirmation_yes&#45;&gt;login</title>
<path fill="none" stroke="black" d="M406.5,-72.81C406.5,-64.79 406.5,-55.05 406.5,-46.07"/>
<polygon fill="black" stroke="black" points="410,-46.03 406.5,-36.03 403,-46.03 410,-46.03"/>
</g>
</g>
</svg>
