<?xml version="1.0" encoding="UTF-8" standalone="no"?>
<!DOCTYPE svg PUBLIC "-//W3C//DTD SVG 1.1//EN"
 "http://www.w3.org/Graphics/SVG/1.1/DTD/svg11.dtd">
<!-- Generated by graphviz version 2.43.0 (0)
 -->
<!-- Title: G Pages: 1 -->
<svg width="498pt" height="204pt"
 viewBox="0.00 0.00 498.00 204.00" xmlns="http://www.w3.org/2000/svg" xmlns:xlink="http://www.w3.org/1999/xlink">
<g id="graph0" class="graph" transform="scale(1 1) rotate(0) translate(4 200)">
<title>G</title>
<!-- ok -->
<g id="node1" class="node">
<title>ok</title>
<polygon fill="none" stroke="black" points="163.5,-196 38.49,-178 163.5,-160 288.51,-178 163.5,-196"/>
<text text-anchor="middle" x="163.5" y="-174.3" font-family="RocknRoll One" font-size="14.00">WithdrawalScreen</text>
</g>
<!-- confirmation_no -->
<g id="node2" class="node">
<title>confirmation_no</title>
<polygon fill="none" stroke="black" points="179,-109 0,-109 0,-73 179,-73 179,-109"/>
<text text-anchor="middle" x="89.5" y="-87.3" font-family="RocknRoll One" font-size="14.00">WithdrawalScreenに移行</text>
</g>
<!-- ok&#45;&gt;confirmation_no -->
<g id="edge1" class="edge">
<title>ok&#45;&gt;confirmation_no</title>
<path fill="none" stroke="black" d="M150.27,-161.8C139.4,-149.31 123.77,-131.37 111.09,-116.8"/>
<polygon fill="black" stroke="black" points="113.6,-114.35 104.4,-109.11 108.32,-118.95 113.6,-114.35"/>
<text text-anchor="middle" x="141.5" y="-130.8" font-family="RocknRoll One" font-size="14.00">NO</text>
</g>
<!-- confirmation_yes -->
<g id="node3" class="node">
<title>confirmation_yes</title>
<polygon fill="none" stroke="black" points="490,-109 197,-109 197,-73 490,-73 490,-109"/>
<text text-anchor="middle" x="343.5" y="-87.3" font-family="RocknRoll One" font-size="14.00">DBに会員情報をデタラメな値で上書きする</text>
</g>
<!-- ok&#45;&gt;confirmation_yes -->
<g id="edge2" class="edge">
<title>ok&#45;&gt;confirmation_yes</title>
<path fill="none" stroke="black" d="M191.23,-163.91C219.72,-150.45 264.52,-129.29 298.17,-113.41"/>
<polygon fill="black" stroke="black" points="299.79,-116.51 307.34,-109.07 296.8,-110.18 299.79,-116.51"/>
<text text-anchor="middle" x="275.5" y="-130.8" font-family="RocknRoll One" font-size="14.00">YES</text>
</g>
<!-- login -->
<g id="node4" class="node">
<title>login</title>
<polygon fill="none" stroke="black" points="414,-36 273,-36 273,0 414,0 414,-36"/>
<text text-anchor="middle" x="343.5" y="-14.3" font-family="RocknRoll One" font-size="14.00">LoginScreenに移行</text>
</g>
<!-- confirmation_yes&#45;&gt;login -->
<g id="edge3" class="edge">
<title>confirmation_yes&#45;&gt;login</title>
<path fill="none" stroke="black" d="M343.5,-72.81C343.5,-64.79 343.5,-55.05 343.5,-46.07"/>
<polygon fill="black" stroke="black" points="347,-46.03 343.5,-36.03 340,-46.03 347,-46.03"/>
</g>
</g>
</svg>
