<?xml version="1.0" encoding="UTF-8" standalone="no"?>
<!DOCTYPE svg PUBLIC "-//W3C//DTD SVG 1.1//EN"
 "http://www.w3.org/Graphics/SVG/1.1/DTD/svg11.dtd">
<!-- Generated by graphviz version 2.43.0 (0)
 -->
<!-- Title: G Pages: 1 -->
<svg width="758pt" height="425pt"
 viewBox="14.40 14.40 743.40 410.40" xmlns="http://www.w3.org/2000/svg" xmlns:xlink="http://www.w3.org/1999/xlink">
<g id="graph0" class="graph" transform="scale(1 1) rotate(0) translate(50.4 374.4)">
<title>G</title>
<!-- screen -->
<g id="node1" class="node">
<title>screen</title>
<polygon fill="none" stroke="black" points="407.5,-324 249.5,-324 249.5,-288 407.5,-288 407.5,-324"/>
<text text-anchor="middle" x="328.5" y="-302.3" font-family="RocknRoll One" font-size="14.00">退会画面の表示</text>
</g>
<!-- click -->
<g id="node2" class="node">
<title>click</title>
<polygon fill="none" stroke="black" points="469,-252 188,-252 188,-216 469,-216 469,-252"/>
<text text-anchor="middle" x="328.5" y="-230.3" font-family="RocknRoll One" font-size="14.00">チェックボックス3つ全てクリック</text>
</g>
<!-- screen&#45;&gt;click -->
<g id="edge1" class="edge">
<title>screen&#45;&gt;click</title>
<path fill="none" stroke="black" d="M328.5,-287.7C328.5,-279.98 328.5,-270.71 328.5,-262.11"/>
<polygon fill="black" stroke="black" points="332,-262.1 328.5,-252.1 325,-262.1 332,-262.1"/>
</g>
<!-- view -->
<g id="node3" class="node">
<title>view</title>
<polygon fill="none" stroke="black" points="657,-180 0,-180 0,-144 657,-144 657,-180"/>
<text text-anchor="middle" x="328.5" y="-158.3" font-family="RocknRoll One" font-size="14.00">「本当にアカウントを削除してもよろしいですか？この操作は取り消せません。」と表示する</text>
</g>
<!-- click&#45;&gt;view -->
<g id="edge2" class="edge">
<title>click&#45;&gt;view</title>
<path fill="none" stroke="black" d="M328.5,-215.7C328.5,-207.98 328.5,-198.71 328.5,-190.11"/>
<polygon fill="black" stroke="black" points="332,-190.1 328.5,-180.1 325,-190.1 332,-190.1"/>
</g>
<!-- ok -->
<g id="node4" class="node">
<title>ok</title>
<polygon fill="none" stroke="black" points="403.5,-108 253.5,-108 253.5,-72 403.5,-72 403.5,-108"/>
<text text-anchor="middle" x="328.5" y="-86.3" font-family="RocknRoll One" font-size="14.00">「OK」を選択</text>
</g>
<!-- view&#45;&gt;ok -->
<g id="edge3" class="edge">
<title>view&#45;&gt;ok</title>
<path fill="none" stroke="black" d="M328.5,-143.7C328.5,-135.98 328.5,-126.71 328.5,-118.11"/>
<polygon fill="black" stroke="black" points="332,-118.1 328.5,-108.1 325,-118.1 332,-118.1"/>
</g>
<!-- move -->
<g id="node5" class="node">
<title>move</title>
<polygon fill="none" stroke="black" points="416.5,-36 240.5,-36 240.5,0 416.5,0 416.5,-36"/>
<text text-anchor="middle" x="328.5" y="-14.3" font-family="RocknRoll One" font-size="14.00">Withdrawalに移行</text>
</g>
<!-- ok&#45;&gt;move -->
<g id="edge4" class="edge">
<title>ok&#45;&gt;move</title>
<path fill="none" stroke="black" d="M328.5,-71.7C328.5,-63.98 328.5,-54.71 328.5,-46.11"/>
<polygon fill="black" stroke="black" points="332,-46.1 328.5,-36.1 325,-46.1 332,-46.1"/>
</g>
</g>
</svg>
